<svg xmlns="http://www.w3.org/2000/svg" xmlns:xlink="http://www.w3.org/1999/xlink" width="154" zoomAndPan="magnify" viewBox="0 0 115.5 33.749998" height="45" preserveAspectRatio="xMidYMid meet" version="1.2"><defs><clipPath id="69653f7137"><path d="M 0.1875 0 L 114.828125 0 L 114.828125 32.757812 L 0.1875 32.757812 Z M 0.1875 0 "/></clipPath><clipPath id="1f37cfd271"><path d="M 11.386719 0 L 103.617188 0 C 109.804688 0 114.816406 4.976562 114.816406 11.117188 L 114.816406 21.640625 C 114.816406 27.78125 109.804688 32.757812 103.617188 32.757812 L 11.386719 32.757812 C 5.199219 32.757812 0.1875 27.78125 0.1875 21.640625 L 0.1875 11.117188 C 0.1875 4.976562 5.199219 0 11.386719 0 Z M 11.386719 0 "/></clipPath><linearGradient x1="25.589001" gradientTransform="matrix(2.999428,0,0,2.999428,0.0000000000403403,0.000000000000301854)" y1="0.000000446423" x2="25.589001" gradientUnits="userSpaceOnUse" y2="14.731975" id="e9a6717e9d"><stop style="stop-color:#00a2a5;stop-opacity:1;" offset="0"/><stop style="stop-color:#01a2a5;stop-opacity:1;" offset="0.00390625"/><stop style="stop-color:#02a3a6;stop-opacity:1;" offset="0.0078125"/><stop style="stop-color:#03a3a6;stop-opacity:1;" offset="0.0117188"/><stop style="stop-color:#04a3a6;stop-opacity:1;" offset="0.015625"/><stop style="stop-color:#05a4a7;stop-opacity:1;" offset="0.0195312"/><stop style="stop-color:#06a4a7;stop-opacity:1;" offset="0.0234375"/><stop style="stop-color:#07a4a7;stop-opacity:1;" offset="0.0273438"/><stop style="stop-color:#08a5a8;stop-opacity:1;" offset="0.03125"/><stop style="stop-color:#09a5a8;stop-opacity:1;" offset="0.0351562"/><stop style="stop-color:#0aa6a8;stop-opacity:1;" offset="0.0390625"/><stop style="stop-color:#0ba6a9;stop-opacity:1;" offset="0.0429688"/><stop style="stop-color:#0ca6a9;stop-opacity:1;" offset="0.046875"/><stop style="stop-color:#0da7aa;stop-opacity:1;" offset="0.0507812"/><stop style="stop-color:#0ea7aa;stop-opacity:1;" offset="0.0546875"/><stop style="stop-color:#0fa7aa;stop-opacity:1;" offset="0.0585938"/><stop style="stop-color:#10a8ab;stop-opacity:1;" offset="0.0625"/><stop style="stop-color:#11a8ab;stop-opacity:1;" offset="0.0664062"/><stop style="stop-color:#12a8ab;stop-opacity:1;" offset="0.0703125"/><stop style="stop-color:#13a9ac;stop-opacity:1;" offset="0.0742188"/><stop style="stop-color:#14a9ac;stop-opacity:1;" offset="0.078125"/><stop style="stop-color:#15aaac;stop-opacity:1;" offset="0.0820312"/><stop style="stop-color:#16aaad;stop-opacity:1;" offset="0.0859375"/><stop style="stop-color:#17aaad;stop-opacity:1;" offset="0.0898438"/><stop style="stop-color:#18abad;stop-opacity:1;" offset="0.09375"/><stop style="stop-color:#19abae;stop-opacity:1;" offset="0.0976562"/><stop style="stop-color:#1aabae;stop-opacity:1;" offset="0.101562"/><stop style="stop-color:#1bacae;stop-opacity:1;" offset="0.105469"/><stop style="stop-color:#1cacaf;stop-opacity:1;" offset="0.109375"/><stop style="stop-color:#1dacaf;stop-opacity:1;" offset="0.113281"/><stop style="stop-color:#1eadb0;stop-opacity:1;" offset="0.117187"/><stop style="stop-color:#1fadb0;stop-opacity:1;" offset="0.121094"/><stop style="stop-color:#20aeb0;stop-opacity:1;" offset="0.125"/><stop style="stop-color:#21aeb1;stop-opacity:1;" offset="0.128906"/><stop style="stop-color:#22aeb1;stop-opacity:1;" offset="0.132812"/><stop style="stop-color:#23afb1;stop-opacity:1;" offset="0.136719"/><stop style="stop-color:#24afb2;stop-opacity:1;" offset="0.140625"/><stop style="stop-color:#25afb2;stop-opacity:1;" offset="0.144531"/><stop style="stop-color:#26b0b2;stop-opacity:1;" offset="0.148438"/><stop style="stop-color:#27b0b3;stop-opacity:1;" offset="0.152344"/><stop style="stop-color:#28b0b3;stop-opacity:1;" offset="0.15625"/><stop style="stop-color:#29b1b3;stop-opacity:1;" offset="0.160156"/><stop style="stop-color:#2ab1b4;stop-opacity:1;" offset="0.164062"/><stop style="stop-color:#2bb2b4;stop-opacity:1;" offset="0.167969"/><stop style="stop-color:#2cb2b4;stop-opacity:1;" offset="0.171875"/><stop style="stop-color:#2db2b5;stop-opacity:1;" offset="0.175781"/><stop style="stop-color:#2eb3b5;stop-opacity:1;" offset="0.179688"/><stop style="stop-color:#2fb3b6;stop-opacity:1;" offset="0.183594"/><stop style="stop-color:#30b3b6;stop-opacity:1;" offset="0.1875"/><stop style="stop-color:#31b4b6;stop-opacity:1;" offset="0.191406"/><stop style="stop-color:#32b4b7;stop-opacity:1;" offset="0.195312"/><stop style="stop-color:#33b4b7;stop-opacity:1;" offset="0.199219"/><stop style="stop-color:#34b5b7;stop-opacity:1;" offset="0.203125"/><stop style="stop-color:#35b5b8;stop-opacity:1;" offset="0.207031"/><stop style="stop-color:#36b6b8;stop-opacity:1;" offset="0.210937"/><stop style="stop-color:#37b6b8;stop-opacity:1;" offset="0.214844"/><stop style="stop-color:#38b6b9;stop-opacity:1;" offset="0.21875"/><stop style="stop-color:#39b7b9;stop-opacity:1;" offset="0.222656"/><stop style="stop-color:#3ab7b9;stop-opacity:1;" offset="0.226562"/><stop style="stop-color:#3bb7ba;stop-opacity:1;" offset="0.230469"/><stop style="stop-color:#3cb8ba;stop-opacity:1;" offset="0.234375"/><stop style="stop-color:#3db8ba;stop-opacity:1;" offset="0.238281"/><stop style="stop-color:#3eb8bb;stop-opacity:1;" offset="0.242187"/><stop style="stop-color:#3fb9bb;stop-opacity:1;" offset="0.246094"/><stop style="stop-color:#40b9bb;stop-opacity:1;" offset="0.25"/><stop style="stop-color:#41babc;stop-opacity:1;" offset="0.253906"/><stop style="stop-color:#42babc;stop-opacity:1;" offset="0.257812"/><stop style="stop-color:#43babd;stop-opacity:1;" offset="0.261719"/><stop style="stop-color:#44bbbd;stop-opacity:1;" offset="0.265625"/><stop style="stop-color:#45bbbd;stop-opacity:1;" offset="0.269531"/><stop style="stop-color:#46bbbe;stop-opacity:1;" offset="0.273437"/><stop style="stop-color:#47bcbe;stop-opacity:1;" offset="0.277344"/><stop style="stop-color:#48bcbe;stop-opacity:1;" offset="0.28125"/><stop style="stop-color:#49bcbf;stop-opacity:1;" offset="0.285156"/><stop style="stop-color:#4abdbf;stop-opacity:1;" offset="0.289062"/><stop style="stop-color:#4bbdbf;stop-opacity:1;" offset="0.292969"/><stop style="stop-color:#4cbec0;stop-opacity:1;" offset="0.296875"/><stop style="stop-color:#4dbec0;stop-opacity:1;" offset="0.300781"/><stop style="stop-color:#4ebec0;stop-opacity:1;" offset="0.304687"/><stop style="stop-color:#4fbfc1;stop-opacity:1;" offset="0.308594"/><stop style="stop-color:#50bfc1;stop-opacity:1;" offset="0.3125"/><stop style="stop-color:#51bfc1;stop-opacity:1;" offset="0.316406"/><stop style="stop-color:#52c0c2;stop-opacity:1;" offset="0.320312"/><stop style="stop-color:#53c0c2;stop-opacity:1;" offset="0.324219"/><stop style="stop-color:#54c0c3;stop-opacity:1;" offset="0.328125"/><stop style="stop-color:#55c1c3;stop-opacity:1;" offset="0.332031"/><stop style="stop-color:#56c1c3;stop-opacity:1;" offset="0.335937"/><stop style="stop-color:#57c2c4;stop-opacity:1;" offset="0.339844"/><stop style="stop-color:#58c2c4;stop-opacity:1;" offset="0.34375"/><stop style="stop-color:#59c2c4;stop-opacity:1;" offset="0.347656"/><stop style="stop-color:#5ac3c5;stop-opacity:1;" offset="0.351562"/><stop style="stop-color:#5bc3c5;stop-opacity:1;" offset="0.355469"/><stop style="stop-color:#5cc3c5;stop-opacity:1;" offset="0.359375"/><stop style="stop-color:#5dc4c6;stop-opacity:1;" offset="0.363281"/><stop style="stop-color:#5ec4c6;stop-opacity:1;" offset="0.367187"/><stop style="stop-color:#5fc4c6;stop-opacity:1;" offset="0.371094"/><stop style="stop-color:#60c5c7;stop-opacity:1;" offset="0.375"/><stop style="stop-color:#61c5c7;stop-opacity:1;" offset="0.378906"/><stop style="stop-color:#62c6c7;stop-opacity:1;" offset="0.382812"/><stop style="stop-color:#63c6c8;stop-opacity:1;" offset="0.386719"/><stop style="stop-color:#64c6c8;stop-opacity:1;" offset="0.390625"/><stop style="stop-color:#65c7c8;stop-opacity:1;" offset="0.394531"/><stop style="stop-color:#66c7c9;stop-opacity:1;" offset="0.398437"/><stop style="stop-color:#67c7c9;stop-opacity:1;" offset="0.402344"/><stop style="stop-color:#68c8ca;stop-opacity:1;" offset="0.40625"/><stop style="stop-color:#69c8ca;stop-opacity:1;" offset="0.410156"/><stop style="stop-color:#6ac8ca;stop-opacity:1;" offset="0.414062"/><stop style="stop-color:#6bc9cb;stop-opacity:1;" offset="0.417969"/><stop style="stop-color:#6cc9cb;stop-opacity:1;" offset="0.421875"/><stop style="stop-color:#6dcacb;stop-opacity:1;" offset="0.425781"/><stop style="stop-color:#6ecacc;stop-opacity:1;" offset="0.429688"/><stop style="stop-color:#6fcacc;stop-opacity:1;" offset="0.433594"/><stop style="stop-color:#70cbcc;stop-opacity:1;" offset="0.4375"/><stop style="stop-color:#71cbcd;stop-opacity:1;" offset="0.441406"/><stop style="stop-color:#72cbcd;stop-opacity:1;" offset="0.445312"/><stop style="stop-color:#73cccd;stop-opacity:1;" offset="0.449219"/><stop style="stop-color:#74ccce;stop-opacity:1;" offset="0.453125"/><stop style="stop-color:#75ccce;stop-opacity:1;" offset="0.457031"/><stop style="stop-color:#76cdce;stop-opacity:1;" offset="0.460938"/><stop style="stop-color:#77cdcf;stop-opacity:1;" offset="0.464844"/><stop style="stop-color:#78cecf;stop-opacity:1;" offset="0.46875"/><stop style="stop-color:#79ced0;stop-opacity:1;" offset="0.472656"/><stop style="stop-color:#7aced0;stop-opacity:1;" offset="0.476562"/><stop style="stop-color:#7bcfd0;stop-opacity:1;" offset="0.480469"/><stop style="stop-color:#7ccfd1;stop-opacity:1;" offset="0.484375"/><stop style="stop-color:#7dcfd1;stop-opacity:1;" offset="0.488281"/><stop style="stop-color:#7ed0d1;stop-opacity:1;" offset="0.492187"/><stop style="stop-color:#7fd0d2;stop-opacity:1;" offset="0.496094"/><stop style="stop-color:#7fd0d2;stop-opacity:1;" offset="0.5"/><stop style="stop-color:#80d1d2;stop-opacity:1;" offset="0.503906"/><stop style="stop-color:#81d1d3;stop-opacity:1;" offset="0.507812"/><stop style="stop-color:#82d2d3;stop-opacity:1;" offset="0.511719"/><stop style="stop-color:#83d2d3;stop-opacity:1;" offset="0.515625"/><stop style="stop-color:#84d2d4;stop-opacity:1;" offset="0.519531"/><stop style="stop-color:#85d3d4;stop-opacity:1;" offset="0.523437"/><stop style="stop-color:#86d3d4;stop-opacity:1;" offset="0.527344"/><stop style="stop-color:#87d3d5;stop-opacity:1;" offset="0.53125"/><stop style="stop-color:#88d4d5;stop-opacity:1;" offset="0.535156"/><stop style="stop-color:#89d4d6;stop-opacity:1;" offset="0.539062"/><stop style="stop-color:#8ad4d6;stop-opacity:1;" offset="0.542969"/><stop style="stop-color:#8bd5d6;stop-opacity:1;" offset="0.546875"/><stop style="stop-color:#8cd5d7;stop-opacity:1;" offset="0.550781"/><stop style="stop-color:#8dd6d7;stop-opacity:1;" offset="0.554687"/><stop style="stop-color:#8ed6d7;stop-opacity:1;" offset="0.558594"/><stop style="stop-color:#8fd6d8;stop-opacity:1;" offset="0.5625"/><stop style="stop-color:#90d7d8;stop-opacity:1;" offset="0.566406"/><stop style="stop-color:#91d7d8;stop-opacity:1;" offset="0.570312"/><stop style="stop-color:#92d7d9;stop-opacity:1;" offset="0.574219"/><stop style="stop-color:#93d8d9;stop-opacity:1;" offset="0.578125"/><stop style="stop-color:#94d8d9;stop-opacity:1;" offset="0.582031"/><stop style="stop-color:#95d8da;stop-opacity:1;" offset="0.585937"/><stop style="stop-color:#96d9da;stop-opacity:1;" offset="0.589844"/><stop style="stop-color:#97d9da;stop-opacity:1;" offset="0.59375"/><stop style="stop-color:#98dadb;stop-opacity:1;" offset="0.597656"/><stop style="stop-color:#99dadb;stop-opacity:1;" offset="0.601562"/><stop style="stop-color:#9adadb;stop-opacity:1;" offset="0.605469"/><stop style="stop-color:#9bdbdc;stop-opacity:1;" offset="0.609375"/><stop style="stop-color:#9cdbdc;stop-opacity:1;" offset="0.613281"/><stop style="stop-color:#9ddbdd;stop-opacity:1;" offset="0.617187"/><stop style="stop-color:#9edcdd;stop-opacity:1;" offset="0.621094"/><stop style="stop-color:#9fdcdd;stop-opacity:1;" offset="0.625"/><stop style="stop-color:#a0dcde;stop-opacity:1;" offset="0.628906"/><stop style="stop-color:#a1ddde;stop-opacity:1;" offset="0.632812"/><stop style="stop-color:#a2ddde;stop-opacity:1;" offset="0.636719"/><stop style="stop-color:#a3dedf;stop-opacity:1;" offset="0.640625"/><stop style="stop-color:#a4dedf;stop-opacity:1;" offset="0.644531"/><stop style="stop-color:#a5dedf;stop-opacity:1;" offset="0.648437"/><stop style="stop-color:#a6dfe0;stop-opacity:1;" offset="0.652344"/><stop style="stop-color:#a7dfe0;stop-opacity:1;" offset="0.65625"/><stop style="stop-color:#a8dfe0;stop-opacity:1;" offset="0.660156"/><stop style="stop-color:#a9e0e1;stop-opacity:1;" offset="0.664062"/><stop style="stop-color:#aae0e1;stop-opacity:1;" offset="0.667969"/><stop style="stop-color:#abe0e1;stop-opacity:1;" offset="0.671875"/><stop style="stop-color:#ace1e2;stop-opacity:1;" offset="0.675781"/><stop style="stop-color:#ade1e2;stop-opacity:1;" offset="0.679688"/><stop style="stop-color:#aee2e3;stop-opacity:1;" offset="0.683594"/><stop style="stop-color:#afe2e3;stop-opacity:1;" offset="0.6875"/><stop style="stop-color:#b0e2e3;stop-opacity:1;" offset="0.691406"/><stop style="stop-color:#b1e3e4;stop-opacity:1;" offset="0.695313"/><stop style="stop-color:#b2e3e4;stop-opacity:1;" offset="0.699219"/><stop style="stop-color:#b3e3e4;stop-opacity:1;" offset="0.703125"/><stop style="stop-color:#b4e4e5;stop-opacity:1;" offset="0.707031"/><stop style="stop-color:#b5e4e5;stop-opacity:1;" offset="0.710938"/><stop style="stop-color:#b6e4e5;stop-opacity:1;" offset="0.714844"/><stop style="stop-color:#b7e5e6;stop-opacity:1;" offset="0.71875"/><stop style="stop-color:#b8e5e6;stop-opacity:1;" offset="0.722656"/><stop style="stop-color:#b9e6e6;stop-opacity:1;" offset="0.726563"/><stop style="stop-color:#bae6e7;stop-opacity:1;" offset="0.730469"/><stop style="stop-color:#bbe6e7;stop-opacity:1;" offset="0.734375"/><stop style="stop-color:#bce7e7;stop-opacity:1;" offset="0.738281"/><stop style="stop-color:#bde7e8;stop-opacity:1;" offset="0.742188"/><stop style="stop-color:#bee7e8;stop-opacity:1;" offset="0.746094"/><stop style="stop-color:#bfe8e8;stop-opacity:1;" offset="0.75"/><stop style="stop-color:#c0e8e9;stop-opacity:1;" offset="0.753906"/><stop style="stop-color:#c1e8e9;stop-opacity:1;" offset="0.757813"/><stop style="stop-color:#c2e9ea;stop-opacity:1;" offset="0.761719"/><stop style="stop-color:#c3e9ea;stop-opacity:1;" offset="0.765625"/><stop style="stop-color:#c4eaea;stop-opacity:1;" offset="0.769531"/><stop style="stop-color:#c5eaeb;stop-opacity:1;" offset="0.773438"/><stop style="stop-color:#c6eaeb;stop-opacity:1;" offset="0.777344"/><stop style="stop-color:#c7ebeb;stop-opacity:1;" offset="0.78125"/><stop style="stop-color:#c8ebec;stop-opacity:1;" offset="0.785156"/><stop style="stop-color:#c9ebec;stop-opacity:1;" offset="0.789062"/><stop style="stop-color:#caecec;stop-opacity:1;" offset="0.792969"/><stop style="stop-color:#cbeced;stop-opacity:1;" offset="0.796875"/><stop style="stop-color:#cceced;stop-opacity:1;" offset="0.800781"/><stop style="stop-color:#cdeded;stop-opacity:1;" offset="0.804688"/><stop style="stop-color:#ceedee;stop-opacity:1;" offset="0.808594"/><stop style="stop-color:#cfeeee;stop-opacity:1;" offset="0.8125"/><stop style="stop-color:#d0eeee;stop-opacity:1;" offset="0.816406"/><stop style="stop-color:#d1eeef;stop-opacity:1;" offset="0.820312"/><stop style="stop-color:#d2efef;stop-opacity:1;" offset="0.824219"/><stop style="stop-color:#d3eff0;stop-opacity:1;" offset="0.828125"/><stop style="stop-color:#d4eff0;stop-opacity:1;" offset="0.832031"/><stop style="stop-color:#d5f0f0;stop-opacity:1;" offset="0.835938"/><stop style="stop-color:#d6f0f1;stop-opacity:1;" offset="0.839844"/><stop style="stop-color:#d7f0f1;stop-opacity:1;" offset="0.84375"/><stop style="stop-color:#d8f1f1;stop-opacity:1;" offset="0.847656"/><stop style="stop-color:#d9f1f2;stop-opacity:1;" offset="0.851562"/><stop style="stop-color:#daf2f2;stop-opacity:1;" offset="0.855469"/><stop style="stop-color:#dbf2f2;stop-opacity:1;" offset="0.859375"/><stop style="stop-color:#dcf2f3;stop-opacity:1;" offset="0.863281"/><stop style="stop-color:#ddf3f3;stop-opacity:1;" offset="0.867188"/><stop style="stop-color:#def3f3;stop-opacity:1;" offset="0.871094"/><stop style="stop-color:#dff3f4;stop-opacity:1;" offset="0.875"/><stop style="stop-color:#e0f4f4;stop-opacity:1;" offset="0.878906"/><stop style="stop-color:#e1f4f4;stop-opacity:1;" offset="0.882812"/><stop style="stop-color:#e2f4f5;stop-opacity:1;" offset="0.886719"/><stop style="stop-color:#e3f5f5;stop-opacity:1;" offset="0.890625"/><stop style="stop-color:#e4f5f6;stop-opacity:1;" offset="0.894531"/><stop style="stop-color:#e5f6f6;stop-opacity:1;" offset="0.898438"/><stop style="stop-color:#e6f6f6;stop-opacity:1;" offset="0.902344"/><stop style="stop-color:#e7f6f7;stop-opacity:1;" offset="0.90625"/><stop style="stop-color:#e8f7f7;stop-opacity:1;" offset="0.910156"/><stop style="stop-color:#e9f7f7;stop-opacity:1;" offset="0.914062"/><stop style="stop-color:#eaf7f8;stop-opacity:1;" offset="0.917969"/><stop style="stop-color:#ebf8f8;stop-opacity:1;" offset="0.921875"/><stop style="stop-color:#ecf8f8;stop-opacity:1;" offset="0.925781"/><stop style="stop-color:#edf8f9;stop-opacity:1;" offset="0.929688"/><stop style="stop-color:#eef9f9;stop-opacity:1;" offset="0.933594"/><stop style="stop-color:#eff9f9;stop-opacity:1;" offset="0.9375"/><stop style="stop-color:#f0fafa;stop-opacity:1;" offset="0.941406"/><stop style="stop-color:#f1fafa;stop-opacity:1;" offset="0.945312"/><stop style="stop-color:#f2fafa;stop-opacity:1;" offset="0.949219"/><stop style="stop-color:#f3fbfb;stop-opacity:1;" offset="0.953125"/><stop style="stop-color:#f4fbfb;stop-opacity:1;" offset="0.957031"/><stop style="stop-color:#f5fbfb;stop-opacity:1;" offset="0.960938"/><stop style="stop-color:#f6fcfc;stop-opacity:1;" offset="0.964844"/><stop style="stop-color:#f7fcfc;stop-opacity:1;" offset="0.96875"/><stop style="stop-color:#f8fcfd;stop-opacity:1;" offset="0.972656"/><stop style="stop-color:#f9fdfd;stop-opacity:1;" offset="0.976562"/><stop style="stop-color:#fafdfd;stop-opacity:1;" offset="0.980469"/><stop style="stop-color:#fbfefe;stop-opacity:1;" offset="0.984375"/><stop style="stop-color:#fcfefe;stop-opacity:1;" offset="0.988281"/><stop style="stop-color:#fdfefe;stop-opacity:1;" offset="0.992188"/><stop style="stop-color:#feffff;stop-opacity:1;" offset="0.996094"/><stop style="stop-color:#ffffff;stop-opacity:1;" offset="1"/></linearGradient></defs><g id="29483f50dc"><g clip-rule="nonzero" clip-path="url(#69653f7137)"><g clip-rule="nonzero" clip-path="url(#1f37cfd271)"><path style="fill:none;stroke-width:8;stroke-linecap:butt;stroke-linejoin:miter;stroke:url(#e9a6717e9d);stroke-miterlimit:4;" d="M 14.999427 0.00000133902 L 138.507232 0.00000133902 C 146.793046 0.00000133902 153.504346 6.713055 153.504346 14.996351 L 153.504346 29.191771 C 153.504346 37.475067 146.793046 44.188121 138.507232 44.188121 L 14.999427 44.188121 C 6.713612 44.188121 0.00231205 37.475067 0.00231205 29.191771 L 0.00231205 14.996351 C 0.00231205 6.713055 6.713612 0.00000133902 14.999427 0.00000133902 Z M 14.999427 0.00000133902 " transform="matrix(0.746758,0,0,0.741326,0.185773,-0.000000992647)"/></g></g><g style="fill:#1b438c;fill-opacity:1;"><g transform="translate(30.349684, 23.091723)"><path style="stroke:none" d="M 9.53125 -4.4375 L 4.15625 -4.4375 C 3.550781 -3.09375 3.25 -2.160156 3.25 -1.640625 C 3.25 -1.253906 3.390625 -1.007812 3.671875 -0.90625 C 3.960938 -0.8125 4.394531 -0.765625 4.96875 -0.765625 L 4.96875 0 L -0.25 0 L -0.25 -0.765625 C 0.0507812 -0.796875 0.3125 -0.84375 0.53125 -0.90625 C 0.757812 -0.976562 0.957031 -1.066406 1.125 -1.171875 C 1.300781 -1.285156 1.453125 -1.4375 1.578125 -1.625 C 1.703125 -1.8125 1.820312 -2.035156 1.9375 -2.296875 L 6.953125 -14.84375 L 8.359375 -14.84375 L 12.90625 -3.734375 C 13.164062 -3.085938 13.390625 -2.578125 13.578125 -2.203125 C 13.765625 -1.835938 13.960938 -1.554688 14.171875 -1.359375 C 14.378906 -1.160156 14.617188 -1.023438 14.890625 -0.953125 C 15.160156 -0.878906 15.515625 -0.820312 15.953125 -0.78125 L 15.953125 0 L 8.75 0 L 8.75 -0.78125 C 9.363281 -0.800781 9.800781 -0.863281 10.0625 -0.96875 C 10.332031 -1.070312 10.46875 -1.273438 10.46875 -1.578125 C 10.46875 -1.753906 10.421875 -1.984375 10.328125 -2.265625 C 10.242188 -2.546875 10.125 -2.890625 9.96875 -3.296875 Z M 4.59375 -5.578125 L 9.109375 -5.578125 L 6.921875 -11.34375 L 6.84375 -11.34375 Z M 4.59375 -5.578125 "/></g></g><g style="fill:#1b438c;fill-opacity:1;"><g transform="translate(45.745701, 23.091723)"><path style="stroke:none" d="M 4.28125 -4.171875 C 4.28125 -3.703125 4.347656 -3.265625 4.484375 -2.859375 C 4.617188 -2.460938 4.796875 -2.117188 5.015625 -1.828125 C 5.242188 -1.535156 5.515625 -1.304688 5.828125 -1.140625 C 6.148438 -0.972656 6.503906 -0.890625 6.890625 -0.890625 C 7.648438 -0.890625 8.226562 -1.238281 8.625 -1.9375 C 9.019531 -2.632812 9.21875 -3.664062 9.21875 -5.03125 C 9.21875 -6.34375 9.019531 -7.34375 8.625 -8.03125 C 8.238281 -8.726562 7.660156 -9.078125 6.890625 -9.078125 C 6.429688 -9.078125 6.007812 -8.953125 5.625 -8.703125 C 5.238281 -8.453125 4.9375 -8.109375 4.71875 -7.671875 C 4.425781 -7.054688 4.28125 -6.285156 4.28125 -5.359375 Z M 4.25 -8.765625 L 4.3125 -8.765625 C 4.644531 -9.253906 5.070312 -9.628906 5.59375 -9.890625 C 6.113281 -10.148438 6.703125 -10.28125 7.359375 -10.28125 C 8.035156 -10.28125 8.660156 -10.140625 9.234375 -9.859375 C 9.816406 -9.585938 10.316406 -9.21875 10.734375 -8.75 C 11.160156 -8.28125 11.492188 -7.726562 11.734375 -7.09375 C 11.984375 -6.457031 12.109375 -5.78125 12.109375 -5.0625 C 12.109375 -4.300781 11.976562 -3.597656 11.71875 -2.953125 C 11.457031 -2.316406 11.097656 -1.765625 10.640625 -1.296875 C 10.191406 -0.828125 9.664062 -0.457031 9.0625 -0.1875 C 8.46875 0.0703125 7.832031 0.203125 7.15625 0.203125 C 6.457031 0.203125 5.800781 0.0664062 5.1875 -0.203125 C 4.570312 -0.472656 4.082031 -0.832031 3.71875 -1.28125 L 2.265625 0 L 1.625 0 L 1.625 -11.328125 C 1.625 -12.515625 1.539062 -13.332031 1.375 -13.78125 C 1.332031 -13.863281 1.285156 -13.9375 1.234375 -14 C 1.179688 -14.070312 1.109375 -14.128906 1.015625 -14.171875 C 0.921875 -14.210938 0.789062 -14.25 0.625 -14.28125 C 0.457031 -14.3125 0.242188 -14.347656 -0.015625 -14.390625 L -0.015625 -15.03125 L 4.25 -15.796875 Z M 4.25 -8.765625 "/></g></g><g style="fill:#1b438c;fill-opacity:1;"><g transform="translate(58.572541, 23.091723)"><path style="stroke:none" d="M 6.25 -10.28125 C 7.007812 -10.28125 7.726562 -10.148438 8.40625 -9.890625 C 9.082031 -9.628906 9.675781 -9.269531 10.1875 -8.8125 C 10.707031 -8.351562 11.113281 -7.8125 11.40625 -7.1875 C 11.707031 -6.5625 11.859375 -5.875 11.859375 -5.125 C 11.859375 -4.34375 11.707031 -3.628906 11.40625 -2.984375 C 11.113281 -2.335938 10.707031 -1.78125 10.1875 -1.3125 C 9.675781 -0.84375 9.082031 -0.472656 8.40625 -0.203125 C 7.726562 0.0546875 7.007812 0.1875 6.25 0.1875 C 5.5 0.1875 4.785156 0.0546875 4.109375 -0.203125 C 3.441406 -0.460938 2.851562 -0.828125 2.34375 -1.296875 C 1.832031 -1.765625 1.429688 -2.320312 1.140625 -2.96875 C 0.847656 -3.625 0.703125 -4.34375 0.703125 -5.125 C 0.703125 -5.875 0.847656 -6.5625 1.140625 -7.1875 C 1.429688 -7.820312 1.832031 -8.367188 2.34375 -8.828125 C 2.851562 -9.285156 3.441406 -9.640625 4.109375 -9.890625 C 4.785156 -10.148438 5.5 -10.28125 6.25 -10.28125 Z M 6.25 -9.171875 C 5.863281 -9.171875 5.507812 -9.070312 5.1875 -8.875 C 4.875 -8.675781 4.601562 -8.398438 4.375 -8.046875 C 4.15625 -7.691406 3.984375 -7.265625 3.859375 -6.765625 C 3.742188 -6.265625 3.6875 -5.707031 3.6875 -5.09375 C 3.6875 -4.46875 3.742188 -3.898438 3.859375 -3.390625 C 3.984375 -2.878906 4.15625 -2.445312 4.375 -2.09375 C 4.601562 -1.738281 4.875 -1.460938 5.1875 -1.265625 C 5.5 -1.066406 5.851562 -0.96875 6.25 -0.96875 C 6.632812 -0.96875 6.988281 -1.066406 7.3125 -1.265625 C 7.632812 -1.460938 7.910156 -1.738281 8.140625 -2.09375 C 8.367188 -2.457031 8.546875 -2.894531 8.671875 -3.40625 C 8.804688 -3.914062 8.875 -4.476562 8.875 -5.09375 C 8.875 -5.707031 8.804688 -6.257812 8.671875 -6.75 C 8.546875 -7.25 8.367188 -7.675781 8.140625 -8.03125 C 7.910156 -8.394531 7.632812 -8.675781 7.3125 -8.875 C 6.988281 -9.070312 6.632812 -9.171875 6.25 -9.171875 Z M 6.25 -9.171875 "/></g></g><g style="fill:#1b438c;fill-opacity:1;"><g transform="translate(71.132947, 23.091723)"><path style="stroke:none" d="M 8.84375 -6.96875 C 8.84375 -7.476562 8.828125 -7.878906 8.796875 -8.171875 C 8.773438 -8.472656 8.707031 -8.703125 8.59375 -8.859375 C 8.488281 -9.015625 8.320312 -9.117188 8.09375 -9.171875 C 7.875 -9.234375 7.570312 -9.285156 7.1875 -9.328125 L 7.1875 -10.09375 L 11.5 -10.09375 L 11.5 -4.3125 C 11.5 -3.539062 11.503906 -2.9375 11.515625 -2.5 C 11.535156 -2.0625 11.570312 -1.734375 11.625 -1.515625 C 11.664062 -1.359375 11.710938 -1.226562 11.765625 -1.125 C 11.816406 -1.03125 11.898438 -0.953125 12.015625 -0.890625 C 12.128906 -0.835938 12.28125 -0.800781 12.46875 -0.78125 C 12.664062 -0.769531 12.925781 -0.765625 13.25 -0.765625 L 13.25 -0.015625 L 9.453125 0.203125 L 9.25 -1.484375 L 9.171875 -1.484375 C 8.835938 -0.953125 8.375 -0.539062 7.78125 -0.25 C 7.1875 0.0390625 6.519531 0.1875 5.78125 0.1875 C 4.425781 0.1875 3.394531 -0.289062 2.6875 -1.25 C 2.132812 -1.988281 1.859375 -3.035156 1.859375 -4.390625 L 1.859375 -6.96875 C 1.859375 -7.488281 1.84375 -7.894531 1.8125 -8.1875 C 1.789062 -8.488281 1.726562 -8.710938 1.625 -8.859375 C 1.519531 -9.015625 1.359375 -9.117188 1.140625 -9.171875 C 0.921875 -9.234375 0.625 -9.285156 0.25 -9.328125 L 0.25 -10.09375 L 4.515625 -10.09375 L 4.515625 -4.703125 C 4.515625 -3.421875 4.671875 -2.488281 4.984375 -1.90625 C 5.304688 -1.332031 5.816406 -1.046875 6.515625 -1.046875 C 7.253906 -1.046875 7.828125 -1.390625 8.234375 -2.078125 C 8.640625 -2.734375 8.84375 -3.703125 8.84375 -4.984375 Z M 8.84375 -6.96875 "/></g></g><g style="fill:#1b438c;fill-opacity:1;"><g transform="translate(84.625866, 23.091723)"><path style="stroke:none" d="M 0.46875 -9.046875 L 0.46875 -9.890625 C 1.238281 -10.109375 1.878906 -10.4375 2.390625 -10.875 C 2.898438 -11.3125 3.285156 -11.816406 3.546875 -12.390625 L 4.515625 -12.390625 L 4.515625 -10.09375 L 6.703125 -10.09375 L 6.703125 -9.046875 L 4.515625 -9.046875 L 4.515625 -3.203125 C 4.515625 -2.410156 4.597656 -1.847656 4.765625 -1.515625 C 4.941406 -1.191406 5.234375 -1.03125 5.640625 -1.03125 C 6.128906 -1.03125 6.5 -1.257812 6.75 -1.71875 L 7.15625 -1.15625 C 6.800781 -0.257812 5.960938 0.1875 4.640625 0.1875 C 3.765625 0.1875 3.082031 -0.015625 2.59375 -0.421875 C 2.101562 -0.828125 1.859375 -1.394531 1.859375 -2.125 L 1.859375 -9.046875 Z M 0.46875 -9.046875 "/></g></g></g></svg>