<svg xmlns="http://www.w3.org/2000/svg" xmlns:xlink="http://www.w3.org/1999/xlink" width="154" zoomAndPan="magnify" viewBox="0 0 115.5 33.749998" height="45" preserveAspectRatio="xMidYMid meet" version="1.2"><defs><clipPath id="0fa7c02b91"><path d="M 0.1875 0 L 114.828125 0 L 114.828125 32.757812 L 0.1875 32.757812 Z M 0.1875 0 "/></clipPath><clipPath id="b3cd156643"><path d="M 11.386719 0 L 103.617188 0 C 109.804688 0 114.816406 4.976562 114.816406 11.117188 L 114.816406 21.640625 C 114.816406 27.78125 109.804688 32.757812 103.617188 32.757812 L 11.386719 32.757812 C 5.199219 32.757812 0.1875 27.78125 0.1875 21.640625 L 0.1875 11.117188 C 0.1875 4.976562 5.199219 0 11.386719 0 Z M 11.386719 0 "/></clipPath><linearGradient x1="25.589001" gradientTransform="matrix(2.999428,0,0,2.999428,0.0000000000403403,0.000000000000301854)" y1="0.000000446423" x2="25.589001" gradientUnits="userSpaceOnUse" y2="14.731975" id="c99acb9b61"><stop style="stop-color:#00a2a5;stop-opacity:1;" offset="0"/><stop style="stop-color:#01a2a5;stop-opacity:1;" offset="0.00390625"/><stop style="stop-color:#02a3a6;stop-opacity:1;" offset="0.0078125"/><stop style="stop-color:#03a3a6;stop-opacity:1;" offset="0.0117188"/><stop style="stop-color:#04a3a6;stop-opacity:1;" offset="0.015625"/><stop style="stop-color:#05a4a7;stop-opacity:1;" offset="0.0195312"/><stop style="stop-color:#06a4a7;stop-opacity:1;" offset="0.0234375"/><stop style="stop-color:#07a4a7;stop-opacity:1;" offset="0.0273438"/><stop style="stop-color:#08a5a8;stop-opacity:1;" offset="0.03125"/><stop style="stop-color:#09a5a8;stop-opacity:1;" offset="0.0351562"/><stop style="stop-color:#0aa6a8;stop-opacity:1;" offset="0.0390625"/><stop style="stop-color:#0ba6a9;stop-opacity:1;" offset="0.0429688"/><stop style="stop-color:#0ca6a9;stop-opacity:1;" offset="0.046875"/><stop style="stop-color:#0da7aa;stop-opacity:1;" offset="0.0507812"/><stop style="stop-color:#0ea7aa;stop-opacity:1;" offset="0.0546875"/><stop style="stop-color:#0fa7aa;stop-opacity:1;" offset="0.0585938"/><stop style="stop-color:#10a8ab;stop-opacity:1;" offset="0.0625"/><stop style="stop-color:#11a8ab;stop-opacity:1;" offset="0.0664062"/><stop style="stop-color:#12a8ab;stop-opacity:1;" offset="0.0703125"/><stop style="stop-color:#13a9ac;stop-opacity:1;" offset="0.0742188"/><stop style="stop-color:#14a9ac;stop-opacity:1;" offset="0.078125"/><stop style="stop-color:#15aaac;stop-opacity:1;" offset="0.0820312"/><stop style="stop-color:#16aaad;stop-opacity:1;" offset="0.0859375"/><stop style="stop-color:#17aaad;stop-opacity:1;" offset="0.0898438"/><stop style="stop-color:#18abad;stop-opacity:1;" offset="0.09375"/><stop style="stop-color:#19abae;stop-opacity:1;" offset="0.0976562"/><stop style="stop-color:#1aabae;stop-opacity:1;" offset="0.101562"/><stop style="stop-color:#1bacae;stop-opacity:1;" offset="0.105469"/><stop style="stop-color:#1cacaf;stop-opacity:1;" offset="0.109375"/><stop style="stop-color:#1dacaf;stop-opacity:1;" offset="0.113281"/><stop style="stop-color:#1eadb0;stop-opacity:1;" offset="0.117187"/><stop style="stop-color:#1fadb0;stop-opacity:1;" offset="0.121094"/><stop style="stop-color:#20aeb0;stop-opacity:1;" offset="0.125"/><stop style="stop-color:#21aeb1;stop-opacity:1;" offset="0.128906"/><stop style="stop-color:#22aeb1;stop-opacity:1;" offset="0.132812"/><stop style="stop-color:#23afb1;stop-opacity:1;" offset="0.136719"/><stop style="stop-color:#24afb2;stop-opacity:1;" offset="0.140625"/><stop style="stop-color:#25afb2;stop-opacity:1;" offset="0.144531"/><stop style="stop-color:#26b0b2;stop-opacity:1;" offset="0.148438"/><stop style="stop-color:#27b0b3;stop-opacity:1;" offset="0.152344"/><stop style="stop-color:#28b0b3;stop-opacity:1;" offset="0.15625"/><stop style="stop-color:#29b1b3;stop-opacity:1;" offset="0.160156"/><stop style="stop-color:#2ab1b4;stop-opacity:1;" offset="0.164062"/><stop style="stop-color:#2bb2b4;stop-opacity:1;" offset="0.167969"/><stop style="stop-color:#2cb2b4;stop-opacity:1;" offset="0.171875"/><stop style="stop-color:#2db2b5;stop-opacity:1;" offset="0.175781"/><stop style="stop-color:#2eb3b5;stop-opacity:1;" offset="0.179688"/><stop style="stop-color:#2fb3b6;stop-opacity:1;" offset="0.183594"/><stop style="stop-color:#30b3b6;stop-opacity:1;" offset="0.1875"/><stop style="stop-color:#31b4b6;stop-opacity:1;" offset="0.191406"/><stop style="stop-color:#32b4b7;stop-opacity:1;" offset="0.195312"/><stop style="stop-color:#33b4b7;stop-opacity:1;" offset="0.199219"/><stop style="stop-color:#34b5b7;stop-opacity:1;" offset="0.203125"/><stop style="stop-color:#35b5b8;stop-opacity:1;" offset="0.207031"/><stop style="stop-color:#36b6b8;stop-opacity:1;" offset="0.210937"/><stop style="stop-color:#37b6b8;stop-opacity:1;" offset="0.214844"/><stop style="stop-color:#38b6b9;stop-opacity:1;" offset="0.21875"/><stop style="stop-color:#39b7b9;stop-opacity:1;" offset="0.222656"/><stop style="stop-color:#3ab7b9;stop-opacity:1;" offset="0.226562"/><stop style="stop-color:#3bb7ba;stop-opacity:1;" offset="0.230469"/><stop style="stop-color:#3cb8ba;stop-opacity:1;" offset="0.234375"/><stop style="stop-color:#3db8ba;stop-opacity:1;" offset="0.238281"/><stop style="stop-color:#3eb8bb;stop-opacity:1;" offset="0.242187"/><stop style="stop-color:#3fb9bb;stop-opacity:1;" offset="0.246094"/><stop style="stop-color:#40b9bb;stop-opacity:1;" offset="0.25"/><stop style="stop-color:#41babc;stop-opacity:1;" offset="0.253906"/><stop style="stop-color:#42babc;stop-opacity:1;" offset="0.257812"/><stop style="stop-color:#43babd;stop-opacity:1;" offset="0.261719"/><stop style="stop-color:#44bbbd;stop-opacity:1;" offset="0.265625"/><stop style="stop-color:#45bbbd;stop-opacity:1;" offset="0.269531"/><stop style="stop-color:#46bbbe;stop-opacity:1;" offset="0.273437"/><stop style="stop-color:#47bcbe;stop-opacity:1;" offset="0.277344"/><stop style="stop-color:#48bcbe;stop-opacity:1;" offset="0.28125"/><stop style="stop-color:#49bcbf;stop-opacity:1;" offset="0.285156"/><stop style="stop-color:#4abdbf;stop-opacity:1;" offset="0.289062"/><stop style="stop-color:#4bbdbf;stop-opacity:1;" offset="0.292969"/><stop style="stop-color:#4cbec0;stop-opacity:1;" offset="0.296875"/><stop style="stop-color:#4dbec0;stop-opacity:1;" offset="0.300781"/><stop style="stop-color:#4ebec0;stop-opacity:1;" offset="0.304687"/><stop style="stop-color:#4fbfc1;stop-opacity:1;" offset="0.308594"/><stop style="stop-color:#50bfc1;stop-opacity:1;" offset="0.3125"/><stop style="stop-color:#51bfc1;stop-opacity:1;" offset="0.316406"/><stop style="stop-color:#52c0c2;stop-opacity:1;" offset="0.320312"/><stop style="stop-color:#53c0c2;stop-opacity:1;" offset="0.324219"/><stop style="stop-color:#54c0c3;stop-opacity:1;" offset="0.328125"/><stop style="stop-color:#55c1c3;stop-opacity:1;" offset="0.332031"/><stop style="stop-color:#56c1c3;stop-opacity:1;" offset="0.335937"/><stop style="stop-color:#57c2c4;stop-opacity:1;" offset="0.339844"/><stop style="stop-color:#58c2c4;stop-opacity:1;" offset="0.34375"/><stop style="stop-color:#59c2c4;stop-opacity:1;" offset="0.347656"/><stop style="stop-color:#5ac3c5;stop-opacity:1;" offset="0.351562"/><stop style="stop-color:#5bc3c5;stop-opacity:1;" offset="0.355469"/><stop style="stop-color:#5cc3c5;stop-opacity:1;" offset="0.359375"/><stop style="stop-color:#5dc4c6;stop-opacity:1;" offset="0.363281"/><stop style="stop-color:#5ec4c6;stop-opacity:1;" offset="0.367187"/><stop style="stop-color:#5fc4c6;stop-opacity:1;" offset="0.371094"/><stop style="stop-color:#60c5c7;stop-opacity:1;" offset="0.375"/><stop style="stop-color:#61c5c7;stop-opacity:1;" offset="0.378906"/><stop style="stop-color:#62c6c7;stop-opacity:1;" offset="0.382812"/><stop style="stop-color:#63c6c8;stop-opacity:1;" offset="0.386719"/><stop style="stop-color:#64c6c8;stop-opacity:1;" offset="0.390625"/><stop style="stop-color:#65c7c8;stop-opacity:1;" offset="0.394531"/><stop style="stop-color:#66c7c9;stop-opacity:1;" offset="0.398437"/><stop style="stop-color:#67c7c9;stop-opacity:1;" offset="0.402344"/><stop style="stop-color:#68c8ca;stop-opacity:1;" offset="0.40625"/><stop style="stop-color:#69c8ca;stop-opacity:1;" offset="0.410156"/><stop style="stop-color:#6ac8ca;stop-opacity:1;" offset="0.414062"/><stop style="stop-color:#6bc9cb;stop-opacity:1;" offset="0.417969"/><stop style="stop-color:#6cc9cb;stop-opacity:1;" offset="0.421875"/><stop style="stop-color:#6dcacb;stop-opacity:1;" offset="0.425781"/><stop style="stop-color:#6ecacc;stop-opacity:1;" offset="0.429688"/><stop style="stop-color:#6fcacc;stop-opacity:1;" offset="0.433594"/><stop style="stop-color:#70cbcc;stop-opacity:1;" offset="0.4375"/><stop style="stop-color:#71cbcd;stop-opacity:1;" offset="0.441406"/><stop style="stop-color:#72cbcd;stop-opacity:1;" offset="0.445312"/><stop style="stop-color:#73cccd;stop-opacity:1;" offset="0.449219"/><stop style="stop-color:#74ccce;stop-opacity:1;" offset="0.453125"/><stop style="stop-color:#75ccce;stop-opacity:1;" offset="0.457031"/><stop style="stop-color:#76cdce;stop-opacity:1;" offset="0.460938"/><stop style="stop-color:#77cdcf;stop-opacity:1;" offset="0.464844"/><stop style="stop-color:#78cecf;stop-opacity:1;" offset="0.46875"/><stop style="stop-color:#79ced0;stop-opacity:1;" offset="0.472656"/><stop style="stop-color:#7aced0;stop-opacity:1;" offset="0.476562"/><stop style="stop-color:#7bcfd0;stop-opacity:1;" offset="0.480469"/><stop style="stop-color:#7ccfd1;stop-opacity:1;" offset="0.484375"/><stop style="stop-color:#7dcfd1;stop-opacity:1;" offset="0.488281"/><stop style="stop-color:#7ed0d1;stop-opacity:1;" offset="0.492187"/><stop style="stop-color:#7fd0d2;stop-opacity:1;" offset="0.496094"/><stop style="stop-color:#7fd0d2;stop-opacity:1;" offset="0.5"/><stop style="stop-color:#80d1d2;stop-opacity:1;" offset="0.503906"/><stop style="stop-color:#81d1d3;stop-opacity:1;" offset="0.507812"/><stop style="stop-color:#82d2d3;stop-opacity:1;" offset="0.511719"/><stop style="stop-color:#83d2d3;stop-opacity:1;" offset="0.515625"/><stop style="stop-color:#84d2d4;stop-opacity:1;" offset="0.519531"/><stop style="stop-color:#85d3d4;stop-opacity:1;" offset="0.523437"/><stop style="stop-color:#86d3d4;stop-opacity:1;" offset="0.527344"/><stop style="stop-color:#87d3d5;stop-opacity:1;" offset="0.53125"/><stop style="stop-color:#88d4d5;stop-opacity:1;" offset="0.535156"/><stop style="stop-color:#89d4d6;stop-opacity:1;" offset="0.539062"/><stop style="stop-color:#8ad4d6;stop-opacity:1;" offset="0.542969"/><stop style="stop-color:#8bd5d6;stop-opacity:1;" offset="0.546875"/><stop style="stop-color:#8cd5d7;stop-opacity:1;" offset="0.550781"/><stop style="stop-color:#8dd6d7;stop-opacity:1;" offset="0.554687"/><stop style="stop-color:#8ed6d7;stop-opacity:1;" offset="0.558594"/><stop style="stop-color:#8fd6d8;stop-opacity:1;" offset="0.5625"/><stop style="stop-color:#90d7d8;stop-opacity:1;" offset="0.566406"/><stop style="stop-color:#91d7d8;stop-opacity:1;" offset="0.570312"/><stop style="stop-color:#92d7d9;stop-opacity:1;" offset="0.574219"/><stop style="stop-color:#93d8d9;stop-opacity:1;" offset="0.578125"/><stop style="stop-color:#94d8d9;stop-opacity:1;" offset="0.582031"/><stop style="stop-color:#95d8da;stop-opacity:1;" offset="0.585937"/><stop style="stop-color:#96d9da;stop-opacity:1;" offset="0.589844"/><stop style="stop-color:#97d9da;stop-opacity:1;" offset="0.59375"/><stop style="stop-color:#98dadb;stop-opacity:1;" offset="0.597656"/><stop style="stop-color:#99dadb;stop-opacity:1;" offset="0.601562"/><stop style="stop-color:#9adadb;stop-opacity:1;" offset="0.605469"/><stop style="stop-color:#9bdbdc;stop-opacity:1;" offset="0.609375"/><stop style="stop-color:#9cdbdc;stop-opacity:1;" offset="0.613281"/><stop style="stop-color:#9ddbdd;stop-opacity:1;" offset="0.617187"/><stop style="stop-color:#9edcdd;stop-opacity:1;" offset="0.621094"/><stop style="stop-color:#9fdcdd;stop-opacity:1;" offset="0.625"/><stop style="stop-color:#a0dcde;stop-opacity:1;" offset="0.628906"/><stop style="stop-color:#a1ddde;stop-opacity:1;" offset="0.632812"/><stop style="stop-color:#a2ddde;stop-opacity:1;" offset="0.636719"/><stop style="stop-color:#a3dedf;stop-opacity:1;" offset="0.640625"/><stop style="stop-color:#a4dedf;stop-opacity:1;" offset="0.644531"/><stop style="stop-color:#a5dedf;stop-opacity:1;" offset="0.648437"/><stop style="stop-color:#a6dfe0;stop-opacity:1;" offset="0.652344"/><stop style="stop-color:#a7dfe0;stop-opacity:1;" offset="0.65625"/><stop style="stop-color:#a8dfe0;stop-opacity:1;" offset="0.660156"/><stop style="stop-color:#a9e0e1;stop-opacity:1;" offset="0.664062"/><stop style="stop-color:#aae0e1;stop-opacity:1;" offset="0.667969"/><stop style="stop-color:#abe0e1;stop-opacity:1;" offset="0.671875"/><stop style="stop-color:#ace1e2;stop-opacity:1;" offset="0.675781"/><stop style="stop-color:#ade1e2;stop-opacity:1;" offset="0.679688"/><stop style="stop-color:#aee2e3;stop-opacity:1;" offset="0.683594"/><stop style="stop-color:#afe2e3;stop-opacity:1;" offset="0.6875"/><stop style="stop-color:#b0e2e3;stop-opacity:1;" offset="0.691406"/><stop style="stop-color:#b1e3e4;stop-opacity:1;" offset="0.695313"/><stop style="stop-color:#b2e3e4;stop-opacity:1;" offset="0.699219"/><stop style="stop-color:#b3e3e4;stop-opacity:1;" offset="0.703125"/><stop style="stop-color:#b4e4e5;stop-opacity:1;" offset="0.707031"/><stop style="stop-color:#b5e4e5;stop-opacity:1;" offset="0.710938"/><stop style="stop-color:#b6e4e5;stop-opacity:1;" offset="0.714844"/><stop style="stop-color:#b7e5e6;stop-opacity:1;" offset="0.71875"/><stop style="stop-color:#b8e5e6;stop-opacity:1;" offset="0.722656"/><stop style="stop-color:#b9e6e6;stop-opacity:1;" offset="0.726563"/><stop style="stop-color:#bae6e7;stop-opacity:1;" offset="0.730469"/><stop style="stop-color:#bbe6e7;stop-opacity:1;" offset="0.734375"/><stop style="stop-color:#bce7e7;stop-opacity:1;" offset="0.738281"/><stop style="stop-color:#bde7e8;stop-opacity:1;" offset="0.742188"/><stop style="stop-color:#bee7e8;stop-opacity:1;" offset="0.746094"/><stop style="stop-color:#bfe8e8;stop-opacity:1;" offset="0.75"/><stop style="stop-color:#c0e8e9;stop-opacity:1;" offset="0.753906"/><stop style="stop-color:#c1e8e9;stop-opacity:1;" offset="0.757813"/><stop style="stop-color:#c2e9ea;stop-opacity:1;" offset="0.761719"/><stop style="stop-color:#c3e9ea;stop-opacity:1;" offset="0.765625"/><stop style="stop-color:#c4eaea;stop-opacity:1;" offset="0.769531"/><stop style="stop-color:#c5eaeb;stop-opacity:1;" offset="0.773438"/><stop style="stop-color:#c6eaeb;stop-opacity:1;" offset="0.777344"/><stop style="stop-color:#c7ebeb;stop-opacity:1;" offset="0.78125"/><stop style="stop-color:#c8ebec;stop-opacity:1;" offset="0.785156"/><stop style="stop-color:#c9ebec;stop-opacity:1;" offset="0.789062"/><stop style="stop-color:#caecec;stop-opacity:1;" offset="0.792969"/><stop style="stop-color:#cbeced;stop-opacity:1;" offset="0.796875"/><stop style="stop-color:#cceced;stop-opacity:1;" offset="0.800781"/><stop style="stop-color:#cdeded;stop-opacity:1;" offset="0.804688"/><stop style="stop-color:#ceedee;stop-opacity:1;" offset="0.808594"/><stop style="stop-color:#cfeeee;stop-opacity:1;" offset="0.8125"/><stop style="stop-color:#d0eeee;stop-opacity:1;" offset="0.816406"/><stop style="stop-color:#d1eeef;stop-opacity:1;" offset="0.820312"/><stop style="stop-color:#d2efef;stop-opacity:1;" offset="0.824219"/><stop style="stop-color:#d3eff0;stop-opacity:1;" offset="0.828125"/><stop style="stop-color:#d4eff0;stop-opacity:1;" offset="0.832031"/><stop style="stop-color:#d5f0f0;stop-opacity:1;" offset="0.835938"/><stop style="stop-color:#d6f0f1;stop-opacity:1;" offset="0.839844"/><stop style="stop-color:#d7f0f1;stop-opacity:1;" offset="0.84375"/><stop style="stop-color:#d8f1f1;stop-opacity:1;" offset="0.847656"/><stop style="stop-color:#d9f1f2;stop-opacity:1;" offset="0.851562"/><stop style="stop-color:#daf2f2;stop-opacity:1;" offset="0.855469"/><stop style="stop-color:#dbf2f2;stop-opacity:1;" offset="0.859375"/><stop style="stop-color:#dcf2f3;stop-opacity:1;" offset="0.863281"/><stop style="stop-color:#ddf3f3;stop-opacity:1;" offset="0.867188"/><stop style="stop-color:#def3f3;stop-opacity:1;" offset="0.871094"/><stop style="stop-color:#dff3f4;stop-opacity:1;" offset="0.875"/><stop style="stop-color:#e0f4f4;stop-opacity:1;" offset="0.878906"/><stop style="stop-color:#e1f4f4;stop-opacity:1;" offset="0.882812"/><stop style="stop-color:#e2f4f5;stop-opacity:1;" offset="0.886719"/><stop style="stop-color:#e3f5f5;stop-opacity:1;" offset="0.890625"/><stop style="stop-color:#e4f5f6;stop-opacity:1;" offset="0.894531"/><stop style="stop-color:#e5f6f6;stop-opacity:1;" offset="0.898438"/><stop style="stop-color:#e6f6f6;stop-opacity:1;" offset="0.902344"/><stop style="stop-color:#e7f6f7;stop-opacity:1;" offset="0.90625"/><stop style="stop-color:#e8f7f7;stop-opacity:1;" offset="0.910156"/><stop style="stop-color:#e9f7f7;stop-opacity:1;" offset="0.914062"/><stop style="stop-color:#eaf7f8;stop-opacity:1;" offset="0.917969"/><stop style="stop-color:#ebf8f8;stop-opacity:1;" offset="0.921875"/><stop style="stop-color:#ecf8f8;stop-opacity:1;" offset="0.925781"/><stop style="stop-color:#edf8f9;stop-opacity:1;" offset="0.929688"/><stop style="stop-color:#eef9f9;stop-opacity:1;" offset="0.933594"/><stop style="stop-color:#eff9f9;stop-opacity:1;" offset="0.9375"/><stop style="stop-color:#f0fafa;stop-opacity:1;" offset="0.941406"/><stop style="stop-color:#f1fafa;stop-opacity:1;" offset="0.945312"/><stop style="stop-color:#f2fafa;stop-opacity:1;" offset="0.949219"/><stop style="stop-color:#f3fbfb;stop-opacity:1;" offset="0.953125"/><stop style="stop-color:#f4fbfb;stop-opacity:1;" offset="0.957031"/><stop style="stop-color:#f5fbfb;stop-opacity:1;" offset="0.960938"/><stop style="stop-color:#f6fcfc;stop-opacity:1;" offset="0.964844"/><stop style="stop-color:#f7fcfc;stop-opacity:1;" offset="0.96875"/><stop style="stop-color:#f8fcfd;stop-opacity:1;" offset="0.972656"/><stop style="stop-color:#f9fdfd;stop-opacity:1;" offset="0.976562"/><stop style="stop-color:#fafdfd;stop-opacity:1;" offset="0.980469"/><stop style="stop-color:#fbfefe;stop-opacity:1;" offset="0.984375"/><stop style="stop-color:#fcfefe;stop-opacity:1;" offset="0.988281"/><stop style="stop-color:#fdfefe;stop-opacity:1;" offset="0.992188"/><stop style="stop-color:#feffff;stop-opacity:1;" offset="0.996094"/><stop style="stop-color:#ffffff;stop-opacity:1;" offset="1"/></linearGradient></defs><g id="5ca962ff05"><g clip-rule="nonzero" clip-path="url(#0fa7c02b91)"><g clip-rule="nonzero" clip-path="url(#b3cd156643)"><path style="fill:none;stroke-width:8;stroke-linecap:butt;stroke-linejoin:miter;stroke:url(#c99acb9b61);stroke-miterlimit:4;" d="M 14.999427 0.00000133902 L 138.507232 0.00000133902 C 146.793046 0.00000133902 153.504346 6.713055 153.504346 14.996351 L 153.504346 29.191771 C 153.504346 37.475067 146.793046 44.188121 138.507232 44.188121 L 14.999427 44.188121 C 6.713612 44.188121 0.00231205 37.475067 0.00231205 29.191771 L 0.00231205 14.996351 C 0.00231205 6.713055 6.713612 0.00000133902 14.999427 0.00000133902 Z M 14.999427 0.00000133902 " transform="matrix(0.746758,0,0,0.741326,0.185773,-0.000000992647)"/></g></g><g style="fill:#1b438c;fill-opacity:1;"><g transform="translate(34.318272, 22.838888)"><path style="stroke:none" d="M 0.625 0 L 0.625 -0.765625 C 1.0625 -0.773438 1.410156 -0.8125 1.671875 -0.875 C 1.929688 -0.9375 2.132812 -1.039062 2.28125 -1.1875 C 2.425781 -1.34375 2.519531 -1.5625 2.5625 -1.84375 C 2.613281 -2.125 2.640625 -2.488281 2.640625 -2.9375 L 2.640625 -11.71875 C 2.640625 -12.164062 2.617188 -12.523438 2.578125 -12.796875 C 2.546875 -13.066406 2.46875 -13.28125 2.34375 -13.4375 C 2.226562 -13.601562 2.066406 -13.710938 1.859375 -13.765625 C 1.648438 -13.828125 1.375 -13.867188 1.03125 -13.890625 L 1.03125 -14.65625 L 7.140625 -14.65625 C 9.054688 -14.65625 10.53125 -14.347656 11.5625 -13.734375 C 12.59375 -13.117188 13.109375 -12.238281 13.109375 -11.09375 C 13.109375 -9.582031 12.023438 -8.515625 9.859375 -7.890625 L 9.859375 -7.828125 C 10.554688 -7.828125 11.1875 -7.726562 11.75 -7.53125 C 12.3125 -7.332031 12.789062 -7.054688 13.1875 -6.703125 C 13.582031 -6.347656 13.882812 -5.925781 14.09375 -5.4375 C 14.3125 -4.957031 14.421875 -4.429688 14.421875 -3.859375 C 14.421875 -3.210938 14.265625 -2.648438 13.953125 -2.171875 C 13.648438 -1.691406 13.207031 -1.285156 12.625 -0.953125 C 11.488281 -0.316406 9.929688 0 7.953125 0 Z M 8.09375 -1.15625 C 10.132812 -1.15625 11.15625 -2.078125 11.15625 -3.921875 C 11.15625 -5.046875 10.785156 -5.867188 10.046875 -6.390625 C 9.671875 -6.660156 9.179688 -6.851562 8.578125 -6.96875 C 7.972656 -7.082031 7.234375 -7.140625 6.359375 -7.140625 L 5.4375 -7.140625 L 5.4375 -3.328125 C 5.4375 -2.546875 5.640625 -1.988281 6.046875 -1.65625 C 6.453125 -1.320312 7.132812 -1.15625 8.09375 -1.15625 Z M 6.5625 -8.28125 C 7.132812 -8.28125 7.628906 -8.332031 8.046875 -8.4375 C 8.460938 -8.550781 8.816406 -8.707031 9.109375 -8.90625 C 9.722656 -9.320312 10.03125 -9.972656 10.03125 -10.859375 C 10.03125 -11.785156 9.800781 -12.457031 9.34375 -12.875 C 8.882812 -13.289062 8.148438 -13.5 7.140625 -13.5 L 5.78125 -13.5 C 5.550781 -13.5 5.4375 -13.390625 5.4375 -13.171875 L 5.4375 -8.28125 Z M 6.5625 -8.28125 "/></g></g><g style="fill:#1b438c;fill-opacity:1;"><g transform="translate(49.390735, 22.838888)"><path style="stroke:none" d="M 4.703125 -3.125 C 4.703125 -2.613281 4.71875 -2.207031 4.75 -1.90625 C 4.789062 -1.601562 4.867188 -1.367188 4.984375 -1.203125 C 5.097656 -1.035156 5.257812 -0.921875 5.46875 -0.859375 C 5.6875 -0.804688 5.984375 -0.773438 6.359375 -0.765625 L 6.359375 0 L 0.359375 0 L 0.359375 -0.765625 C 0.710938 -0.773438 1 -0.8125 1.21875 -0.875 C 1.445312 -0.945312 1.617188 -1.0625 1.734375 -1.21875 C 1.859375 -1.382812 1.941406 -1.609375 1.984375 -1.890625 C 2.035156 -2.179688 2.0625 -2.546875 2.0625 -2.984375 L 2.0625 -10.84375 C 2.0625 -11.582031 2.046875 -12.1875 2.015625 -12.65625 C 1.992188 -13.132812 1.960938 -13.460938 1.921875 -13.640625 C 1.859375 -13.960938 1.710938 -14.171875 1.484375 -14.265625 C 1.265625 -14.367188 0.863281 -14.421875 0.28125 -14.421875 L 0.28125 -15.078125 L 4.703125 -15.796875 Z M 4.703125 -3.125 "/></g></g><g style="fill:#1b438c;fill-opacity:1;"><g transform="translate(56.146708, 22.838888)"><path style="stroke:none" d="M 6.25 -10.28125 C 7.007812 -10.28125 7.726562 -10.148438 8.40625 -9.890625 C 9.082031 -9.628906 9.675781 -9.269531 10.1875 -8.8125 C 10.707031 -8.351562 11.113281 -7.8125 11.40625 -7.1875 C 11.707031 -6.5625 11.859375 -5.875 11.859375 -5.125 C 11.859375 -4.34375 11.707031 -3.628906 11.40625 -2.984375 C 11.113281 -2.335938 10.707031 -1.78125 10.1875 -1.3125 C 9.675781 -0.84375 9.082031 -0.472656 8.40625 -0.203125 C 7.726562 0.0546875 7.007812 0.1875 6.25 0.1875 C 5.5 0.1875 4.785156 0.0546875 4.109375 -0.203125 C 3.441406 -0.460938 2.851562 -0.828125 2.34375 -1.296875 C 1.832031 -1.765625 1.429688 -2.320312 1.140625 -2.96875 C 0.847656 -3.625 0.703125 -4.34375 0.703125 -5.125 C 0.703125 -5.875 0.847656 -6.5625 1.140625 -7.1875 C 1.429688 -7.820312 1.832031 -8.367188 2.34375 -8.828125 C 2.851562 -9.285156 3.441406 -9.640625 4.109375 -9.890625 C 4.785156 -10.148438 5.5 -10.28125 6.25 -10.28125 Z M 6.25 -9.171875 C 5.863281 -9.171875 5.507812 -9.070312 5.1875 -8.875 C 4.875 -8.675781 4.601562 -8.398438 4.375 -8.046875 C 4.15625 -7.691406 3.984375 -7.265625 3.859375 -6.765625 C 3.742188 -6.265625 3.6875 -5.707031 3.6875 -5.09375 C 3.6875 -4.46875 3.742188 -3.898438 3.859375 -3.390625 C 3.984375 -2.878906 4.15625 -2.445312 4.375 -2.09375 C 4.601562 -1.738281 4.875 -1.460938 5.1875 -1.265625 C 5.5 -1.066406 5.851562 -0.96875 6.25 -0.96875 C 6.632812 -0.96875 6.988281 -1.066406 7.3125 -1.265625 C 7.632812 -1.460938 7.910156 -1.738281 8.140625 -2.09375 C 8.367188 -2.457031 8.546875 -2.894531 8.671875 -3.40625 C 8.804688 -3.914062 8.875 -4.476562 8.875 -5.09375 C 8.875 -5.707031 8.804688 -6.257812 8.671875 -6.75 C 8.546875 -7.25 8.367188 -7.675781 8.140625 -8.03125 C 7.910156 -8.394531 7.632812 -8.675781 7.3125 -8.875 C 6.988281 -9.070312 6.632812 -9.171875 6.25 -9.171875 Z M 6.25 -9.171875 "/></g></g><g style="fill:#1b438c;fill-opacity:1;"><g transform="translate(68.707114, 22.838888)"><path style="stroke:none" d="M 4.34375 -2.0625 C 4.6875 -2.03125 4.988281 -2 5.25 -1.96875 C 5.507812 -1.945312 5.753906 -1.921875 5.984375 -1.890625 C 6.222656 -1.859375 6.457031 -1.828125 6.6875 -1.796875 C 6.925781 -1.765625 7.175781 -1.726562 7.4375 -1.6875 C 8.425781 -1.550781 9.203125 -1.179688 9.765625 -0.578125 C 10.335938 0.0234375 10.625 0.769531 10.625 1.65625 C 10.625 2.726562 10.175781 3.546875 9.28125 4.109375 C 8.394531 4.671875 7.085938 4.953125 5.359375 4.953125 C 3.773438 4.953125 2.554688 4.71875 1.703125 4.25 C 0.847656 3.789062 0.421875 3.132812 0.421875 2.28125 C 0.421875 1.625 0.59375 1.125 0.9375 0.78125 C 1.28125 0.445312 1.710938 0.28125 2.234375 0.28125 C 2.554688 0.28125 2.875 0.347656 3.1875 0.484375 C 3.5 0.617188 3.765625 0.8125 3.984375 1.0625 C 3.648438 1.125 3.378906 1.269531 3.171875 1.5 C 2.960938 1.738281 2.859375 2.019531 2.859375 2.34375 C 2.859375 2.851562 3.082031 3.242188 3.53125 3.515625 C 3.976562 3.785156 4.640625 3.921875 5.515625 3.921875 C 7.421875 3.921875 8.375 3.316406 8.375 2.109375 C 8.375 1.679688 8.226562 1.3125 7.9375 1 C 7.65625 0.6875 7.25 0.5 6.71875 0.4375 L 3.390625 -0.015625 C 1.984375 -0.203125 1.28125 -0.832031 1.28125 -1.90625 C 1.28125 -2.425781 1.445312 -2.847656 1.78125 -3.171875 C 2.113281 -3.503906 2.59375 -3.734375 3.21875 -3.859375 L 3.21875 -3.9375 C 2.925781 -4.050781 2.660156 -4.207031 2.421875 -4.40625 C 2.191406 -4.613281 1.988281 -4.847656 1.8125 -5.109375 C 1.632812 -5.378906 1.492188 -5.671875 1.390625 -5.984375 C 1.296875 -6.296875 1.25 -6.617188 1.25 -6.953125 C 1.25 -7.421875 1.347656 -7.859375 1.546875 -8.265625 C 1.742188 -8.679688 2.015625 -9.035156 2.359375 -9.328125 C 2.710938 -9.617188 3.125 -9.847656 3.59375 -10.015625 C 4.070312 -10.191406 4.59375 -10.28125 5.15625 -10.28125 C 5.695312 -10.28125 6.226562 -10.195312 6.75 -10.03125 C 7.269531 -9.863281 7.71875 -9.632812 8.09375 -9.34375 C 8.382812 -9.519531 8.632812 -9.664062 8.84375 -9.78125 C 9.0625 -9.90625 9.257812 -10.003906 9.4375 -10.078125 C 9.625 -10.148438 9.796875 -10.203125 9.953125 -10.234375 C 10.109375 -10.265625 10.257812 -10.28125 10.40625 -10.28125 C 10.894531 -10.28125 11.285156 -10.171875 11.578125 -9.953125 C 11.878906 -9.734375 12.03125 -9.445312 12.03125 -9.09375 C 12.03125 -8.832031 11.945312 -8.613281 11.78125 -8.4375 C 11.613281 -8.269531 11.398438 -8.1875 11.140625 -8.1875 C 10.941406 -8.1875 10.785156 -8.226562 10.671875 -8.3125 C 10.554688 -8.394531 10.445312 -8.488281 10.34375 -8.59375 C 10.238281 -8.695312 10.128906 -8.789062 10.015625 -8.875 C 9.898438 -8.957031 9.742188 -9 9.546875 -9 C 9.285156 -9 9.035156 -8.828125 8.796875 -8.484375 C 8.921875 -8.273438 9.007812 -8.046875 9.0625 -7.796875 C 9.113281 -7.546875 9.140625 -7.253906 9.140625 -6.921875 C 9.140625 -6.441406 9.0625 -6 8.90625 -5.59375 C 8.75 -5.1875 8.507812 -4.828125 8.1875 -4.515625 C 7.863281 -4.203125 7.445312 -3.9375 6.9375 -3.71875 C 6.4375 -3.507812 5.820312 -3.367188 5.09375 -3.296875 C 4.488281 -3.234375 4.066406 -3.148438 3.828125 -3.046875 C 3.597656 -2.941406 3.484375 -2.789062 3.484375 -2.59375 C 3.484375 -2.28125 3.769531 -2.101562 4.34375 -2.0625 Z M 5.25 -4.375 C 5.65625 -4.375 5.972656 -4.585938 6.203125 -5.015625 C 6.429688 -5.453125 6.546875 -6.054688 6.546875 -6.828125 C 6.546875 -7.617188 6.429688 -8.222656 6.203125 -8.640625 C 5.972656 -9.066406 5.648438 -9.28125 5.234375 -9.28125 C 4.804688 -9.28125 4.460938 -9.066406 4.203125 -8.640625 C 3.953125 -8.210938 3.828125 -7.625 3.828125 -6.875 C 3.828125 -6.113281 3.957031 -5.503906 4.21875 -5.046875 C 4.476562 -4.597656 4.820312 -4.375 5.25 -4.375 Z M 5.25 -4.375 "/></g></g></g></svg>