<svg xmlns="http://www.w3.org/2000/svg" xmlns:xlink="http://www.w3.org/1999/xlink" width="193" zoomAndPan="magnify" viewBox="0 0 144.75 28.499999" height="38" preserveAspectRatio="xMidYMid meet" version="1.2"><defs><clipPath id="2a3814c306"><path d="M 2.574219 0 L 141.121094 0 L 141.121094 28 L 2.574219 28 Z M 2.574219 0 "/></clipPath><clipPath id="9459ca8602"><path d="M 13.617188 0 L 130.058594 0 C 136.152344 0 141.097656 4.941406 141.097656 11.039062 L 141.097656 16.890625 C 141.097656 22.988281 136.152344 27.933594 130.058594 27.933594 L 13.617188 27.933594 C 7.519531 27.933594 2.574219 22.988281 2.574219 16.890625 L 2.574219 11.039062 C 2.574219 4.941406 7.519531 0 13.617188 0 Z M 13.617188 0 "/></clipPath><linearGradient x1="36.528999" gradientTransform="matrix(2.575181,0,0,2.575181,0.0000000527117,-0.00000000000166091)" y1="0.000000000000644968" x2="36.528999" gradientUnits="userSpaceOnUse" y2="14.731975" id="dc5eabca76"><stop style="stop-color:#00a2a5;stop-opacity:1;" offset="0"/><stop style="stop-color:#01a2a5;stop-opacity:1;" offset="0.00390625"/><stop style="stop-color:#02a3a6;stop-opacity:1;" offset="0.0078125"/><stop style="stop-color:#03a3a6;stop-opacity:1;" offset="0.0117187"/><stop style="stop-color:#04a3a6;stop-opacity:1;" offset="0.015625"/><stop style="stop-color:#05a4a7;stop-opacity:1;" offset="0.0195312"/><stop style="stop-color:#06a4a7;stop-opacity:1;" offset="0.0234375"/><stop style="stop-color:#07a4a7;stop-opacity:1;" offset="0.0273438"/><stop style="stop-color:#08a5a8;stop-opacity:1;" offset="0.03125"/><stop style="stop-color:#09a5a8;stop-opacity:1;" offset="0.0351562"/><stop style="stop-color:#0aa6a8;stop-opacity:1;" offset="0.0390625"/><stop style="stop-color:#0ba6a9;stop-opacity:1;" offset="0.0429688"/><stop style="stop-color:#0ca6a9;stop-opacity:1;" offset="0.046875"/><stop style="stop-color:#0da7aa;stop-opacity:1;" offset="0.0507812"/><stop style="stop-color:#0ea7aa;stop-opacity:1;" offset="0.0546875"/><stop style="stop-color:#0fa7aa;stop-opacity:1;" offset="0.0585938"/><stop style="stop-color:#10a8ab;stop-opacity:1;" offset="0.0625"/><stop style="stop-color:#11a8ab;stop-opacity:1;" offset="0.0664062"/><stop style="stop-color:#12a8ab;stop-opacity:1;" offset="0.0703125"/><stop style="stop-color:#13a9ac;stop-opacity:1;" offset="0.0742188"/><stop style="stop-color:#14a9ac;stop-opacity:1;" offset="0.078125"/><stop style="stop-color:#15aaac;stop-opacity:1;" offset="0.0820312"/><stop style="stop-color:#16aaad;stop-opacity:1;" offset="0.0859375"/><stop style="stop-color:#17aaad;stop-opacity:1;" offset="0.0898438"/><stop style="stop-color:#18abad;stop-opacity:1;" offset="0.09375"/><stop style="stop-color:#19abae;stop-opacity:1;" offset="0.0976562"/><stop style="stop-color:#1aabae;stop-opacity:1;" offset="0.101562"/><stop style="stop-color:#1bacae;stop-opacity:1;" offset="0.105469"/><stop style="stop-color:#1cacaf;stop-opacity:1;" offset="0.109375"/><stop style="stop-color:#1dacaf;stop-opacity:1;" offset="0.113281"/><stop style="stop-color:#1eadb0;stop-opacity:1;" offset="0.117188"/><stop style="stop-color:#1fadb0;stop-opacity:1;" offset="0.121094"/><stop style="stop-color:#20aeb0;stop-opacity:1;" offset="0.125"/><stop style="stop-color:#21aeb1;stop-opacity:1;" offset="0.128906"/><stop style="stop-color:#22aeb1;stop-opacity:1;" offset="0.132812"/><stop style="stop-color:#23afb1;stop-opacity:1;" offset="0.136719"/><stop style="stop-color:#24afb2;stop-opacity:1;" offset="0.140625"/><stop style="stop-color:#25afb2;stop-opacity:1;" offset="0.144531"/><stop style="stop-color:#26b0b2;stop-opacity:1;" offset="0.148438"/><stop style="stop-color:#27b0b3;stop-opacity:1;" offset="0.152344"/><stop style="stop-color:#28b0b3;stop-opacity:1;" offset="0.15625"/><stop style="stop-color:#29b1b3;stop-opacity:1;" offset="0.160156"/><stop style="stop-color:#2ab1b4;stop-opacity:1;" offset="0.164062"/><stop style="stop-color:#2bb2b4;stop-opacity:1;" offset="0.167969"/><stop style="stop-color:#2cb2b4;stop-opacity:1;" offset="0.171875"/><stop style="stop-color:#2db2b5;stop-opacity:1;" offset="0.175781"/><stop style="stop-color:#2eb3b5;stop-opacity:1;" offset="0.179688"/><stop style="stop-color:#2fb3b6;stop-opacity:1;" offset="0.183594"/><stop style="stop-color:#30b3b6;stop-opacity:1;" offset="0.1875"/><stop style="stop-color:#31b4b6;stop-opacity:1;" offset="0.191406"/><stop style="stop-color:#32b4b7;stop-opacity:1;" offset="0.195312"/><stop style="stop-color:#33b4b7;stop-opacity:1;" offset="0.199219"/><stop style="stop-color:#34b5b7;stop-opacity:1;" offset="0.203125"/><stop style="stop-color:#35b5b8;stop-opacity:1;" offset="0.207031"/><stop style="stop-color:#36b6b8;stop-opacity:1;" offset="0.210938"/><stop style="stop-color:#37b6b8;stop-opacity:1;" offset="0.214844"/><stop style="stop-color:#38b6b9;stop-opacity:1;" offset="0.21875"/><stop style="stop-color:#39b7b9;stop-opacity:1;" offset="0.222656"/><stop style="stop-color:#3ab7b9;stop-opacity:1;" offset="0.226562"/><stop style="stop-color:#3bb7ba;stop-opacity:1;" offset="0.230469"/><stop style="stop-color:#3cb8ba;stop-opacity:1;" offset="0.234375"/><stop style="stop-color:#3db8ba;stop-opacity:1;" offset="0.238281"/><stop style="stop-color:#3eb8bb;stop-opacity:1;" offset="0.242188"/><stop style="stop-color:#3fb9bb;stop-opacity:1;" offset="0.246094"/><stop style="stop-color:#40b9bb;stop-opacity:1;" offset="0.25"/><stop style="stop-color:#41babc;stop-opacity:1;" offset="0.253906"/><stop style="stop-color:#42babc;stop-opacity:1;" offset="0.257812"/><stop style="stop-color:#43babd;stop-opacity:1;" offset="0.261719"/><stop style="stop-color:#44bbbd;stop-opacity:1;" offset="0.265625"/><stop style="stop-color:#45bbbd;stop-opacity:1;" offset="0.269531"/><stop style="stop-color:#46bbbe;stop-opacity:1;" offset="0.273438"/><stop style="stop-color:#47bcbe;stop-opacity:1;" offset="0.277344"/><stop style="stop-color:#48bcbe;stop-opacity:1;" offset="0.28125"/><stop style="stop-color:#49bcbf;stop-opacity:1;" offset="0.285156"/><stop style="stop-color:#4abdbf;stop-opacity:1;" offset="0.289062"/><stop style="stop-color:#4bbdbf;stop-opacity:1;" offset="0.292969"/><stop style="stop-color:#4cbec0;stop-opacity:1;" offset="0.296875"/><stop style="stop-color:#4dbec0;stop-opacity:1;" offset="0.300781"/><stop style="stop-color:#4ebec0;stop-opacity:1;" offset="0.304688"/><stop style="stop-color:#4fbfc1;stop-opacity:1;" offset="0.308594"/><stop style="stop-color:#50bfc1;stop-opacity:1;" offset="0.3125"/><stop style="stop-color:#51bfc1;stop-opacity:1;" offset="0.316406"/><stop style="stop-color:#52c0c2;stop-opacity:1;" offset="0.320312"/><stop style="stop-color:#53c0c2;stop-opacity:1;" offset="0.324219"/><stop style="stop-color:#54c0c3;stop-opacity:1;" offset="0.328125"/><stop style="stop-color:#55c1c3;stop-opacity:1;" offset="0.332031"/><stop style="stop-color:#56c1c3;stop-opacity:1;" offset="0.335938"/><stop style="stop-color:#57c2c4;stop-opacity:1;" offset="0.339844"/><stop style="stop-color:#58c2c4;stop-opacity:1;" offset="0.34375"/><stop style="stop-color:#59c2c4;stop-opacity:1;" offset="0.347656"/><stop style="stop-color:#5ac3c5;stop-opacity:1;" offset="0.351562"/><stop style="stop-color:#5bc3c5;stop-opacity:1;" offset="0.355469"/><stop style="stop-color:#5cc3c5;stop-opacity:1;" offset="0.359375"/><stop style="stop-color:#5dc4c6;stop-opacity:1;" offset="0.363281"/><stop style="stop-color:#5ec4c6;stop-opacity:1;" offset="0.367188"/><stop style="stop-color:#5fc4c6;stop-opacity:1;" offset="0.371094"/><stop style="stop-color:#60c5c7;stop-opacity:1;" offset="0.375"/><stop style="stop-color:#61c5c7;stop-opacity:1;" offset="0.378906"/><stop style="stop-color:#62c6c7;stop-opacity:1;" offset="0.382812"/><stop style="stop-color:#63c6c8;stop-opacity:1;" offset="0.386719"/><stop style="stop-color:#64c6c8;stop-opacity:1;" offset="0.390625"/><stop style="stop-color:#65c7c8;stop-opacity:1;" offset="0.394531"/><stop style="stop-color:#66c7c9;stop-opacity:1;" offset="0.398438"/><stop style="stop-color:#67c7c9;stop-opacity:1;" offset="0.402344"/><stop style="stop-color:#68c8ca;stop-opacity:1;" offset="0.40625"/><stop style="stop-color:#69c8ca;stop-opacity:1;" offset="0.410156"/><stop style="stop-color:#6ac8ca;stop-opacity:1;" offset="0.414062"/><stop style="stop-color:#6bc9cb;stop-opacity:1;" offset="0.417969"/><stop style="stop-color:#6cc9cb;stop-opacity:1;" offset="0.421875"/><stop style="stop-color:#6dcacb;stop-opacity:1;" offset="0.425781"/><stop style="stop-color:#6ecacc;stop-opacity:1;" offset="0.429688"/><stop style="stop-color:#6fcacc;stop-opacity:1;" offset="0.433594"/><stop style="stop-color:#70cbcc;stop-opacity:1;" offset="0.4375"/><stop style="stop-color:#71cbcd;stop-opacity:1;" offset="0.441406"/><stop style="stop-color:#72cbcd;stop-opacity:1;" offset="0.445312"/><stop style="stop-color:#73cccd;stop-opacity:1;" offset="0.449219"/><stop style="stop-color:#74ccce;stop-opacity:1;" offset="0.453125"/><stop style="stop-color:#75ccce;stop-opacity:1;" offset="0.457031"/><stop style="stop-color:#76cdce;stop-opacity:1;" offset="0.460938"/><stop style="stop-color:#77cdcf;stop-opacity:1;" offset="0.464844"/><stop style="stop-color:#78cecf;stop-opacity:1;" offset="0.46875"/><stop style="stop-color:#79ced0;stop-opacity:1;" offset="0.472656"/><stop style="stop-color:#7aced0;stop-opacity:1;" offset="0.476562"/><stop style="stop-color:#7bcfd0;stop-opacity:1;" offset="0.480469"/><stop style="stop-color:#7ccfd1;stop-opacity:1;" offset="0.484375"/><stop style="stop-color:#7dcfd1;stop-opacity:1;" offset="0.488281"/><stop style="stop-color:#7ed0d1;stop-opacity:1;" offset="0.492187"/><stop style="stop-color:#7fd0d2;stop-opacity:1;" offset="0.496094"/><stop style="stop-color:#7fd0d2;stop-opacity:1;" offset="0.5"/><stop style="stop-color:#80d1d2;stop-opacity:1;" offset="0.503906"/><stop style="stop-color:#81d1d3;stop-opacity:1;" offset="0.507812"/><stop style="stop-color:#82d2d3;stop-opacity:1;" offset="0.511719"/><stop style="stop-color:#83d2d3;stop-opacity:1;" offset="0.515625"/><stop style="stop-color:#84d2d4;stop-opacity:1;" offset="0.519531"/><stop style="stop-color:#85d3d4;stop-opacity:1;" offset="0.523437"/><stop style="stop-color:#86d3d4;stop-opacity:1;" offset="0.527344"/><stop style="stop-color:#87d3d5;stop-opacity:1;" offset="0.53125"/><stop style="stop-color:#88d4d5;stop-opacity:1;" offset="0.535156"/><stop style="stop-color:#89d4d6;stop-opacity:1;" offset="0.539062"/><stop style="stop-color:#8ad4d6;stop-opacity:1;" offset="0.542969"/><stop style="stop-color:#8bd5d6;stop-opacity:1;" offset="0.546875"/><stop style="stop-color:#8cd5d7;stop-opacity:1;" offset="0.550781"/><stop style="stop-color:#8dd6d7;stop-opacity:1;" offset="0.554687"/><stop style="stop-color:#8ed6d7;stop-opacity:1;" offset="0.558594"/><stop style="stop-color:#8fd6d8;stop-opacity:1;" offset="0.5625"/><stop style="stop-color:#90d7d8;stop-opacity:1;" offset="0.566406"/><stop style="stop-color:#91d7d8;stop-opacity:1;" offset="0.570312"/><stop style="stop-color:#92d7d9;stop-opacity:1;" offset="0.574219"/><stop style="stop-color:#93d8d9;stop-opacity:1;" offset="0.578125"/><stop style="stop-color:#94d8d9;stop-opacity:1;" offset="0.582031"/><stop style="stop-color:#95d8da;stop-opacity:1;" offset="0.585937"/><stop style="stop-color:#96d9da;stop-opacity:1;" offset="0.589844"/><stop style="stop-color:#97d9da;stop-opacity:1;" offset="0.59375"/><stop style="stop-color:#98dadb;stop-opacity:1;" offset="0.597656"/><stop style="stop-color:#99dadb;stop-opacity:1;" offset="0.601562"/><stop style="stop-color:#9adadb;stop-opacity:1;" offset="0.605469"/><stop style="stop-color:#9bdbdc;stop-opacity:1;" offset="0.609375"/><stop style="stop-color:#9cdbdc;stop-opacity:1;" offset="0.613281"/><stop style="stop-color:#9ddbdd;stop-opacity:1;" offset="0.617187"/><stop style="stop-color:#9edcdd;stop-opacity:1;" offset="0.621094"/><stop style="stop-color:#9fdcdd;stop-opacity:1;" offset="0.625"/><stop style="stop-color:#a0dcde;stop-opacity:1;" offset="0.628906"/><stop style="stop-color:#a1ddde;stop-opacity:1;" offset="0.632812"/><stop style="stop-color:#a2ddde;stop-opacity:1;" offset="0.636719"/><stop style="stop-color:#a3dedf;stop-opacity:1;" offset="0.640625"/><stop style="stop-color:#a4dedf;stop-opacity:1;" offset="0.644531"/><stop style="stop-color:#a5dedf;stop-opacity:1;" offset="0.648437"/><stop style="stop-color:#a6dfe0;stop-opacity:1;" offset="0.652344"/><stop style="stop-color:#a7dfe0;stop-opacity:1;" offset="0.65625"/><stop style="stop-color:#a8dfe0;stop-opacity:1;" offset="0.660156"/><stop style="stop-color:#a9e0e1;stop-opacity:1;" offset="0.664062"/><stop style="stop-color:#aae0e1;stop-opacity:1;" offset="0.667969"/><stop style="stop-color:#abe0e1;stop-opacity:1;" offset="0.671875"/><stop style="stop-color:#ace1e2;stop-opacity:1;" offset="0.675781"/><stop style="stop-color:#ade1e2;stop-opacity:1;" offset="0.679687"/><stop style="stop-color:#aee2e3;stop-opacity:1;" offset="0.683594"/><stop style="stop-color:#afe2e3;stop-opacity:1;" offset="0.6875"/><stop style="stop-color:#b0e2e3;stop-opacity:1;" offset="0.691406"/><stop style="stop-color:#b1e3e4;stop-opacity:1;" offset="0.695312"/><stop style="stop-color:#b2e3e4;stop-opacity:1;" offset="0.699219"/><stop style="stop-color:#b3e3e4;stop-opacity:1;" offset="0.703125"/><stop style="stop-color:#b4e4e5;stop-opacity:1;" offset="0.707031"/><stop style="stop-color:#b5e4e5;stop-opacity:1;" offset="0.710937"/><stop style="stop-color:#b6e4e5;stop-opacity:1;" offset="0.714844"/><stop style="stop-color:#b7e5e6;stop-opacity:1;" offset="0.71875"/><stop style="stop-color:#b8e5e6;stop-opacity:1;" offset="0.722656"/><stop style="stop-color:#b9e6e6;stop-opacity:1;" offset="0.726562"/><stop style="stop-color:#bae6e7;stop-opacity:1;" offset="0.730469"/><stop style="stop-color:#bbe6e7;stop-opacity:1;" offset="0.734375"/><stop style="stop-color:#bce7e7;stop-opacity:1;" offset="0.738281"/><stop style="stop-color:#bde7e8;stop-opacity:1;" offset="0.742187"/><stop style="stop-color:#bee7e8;stop-opacity:1;" offset="0.746094"/><stop style="stop-color:#bfe8e8;stop-opacity:1;" offset="0.75"/><stop style="stop-color:#c0e8e9;stop-opacity:1;" offset="0.753906"/><stop style="stop-color:#c1e8e9;stop-opacity:1;" offset="0.757812"/><stop style="stop-color:#c2e9ea;stop-opacity:1;" offset="0.761719"/><stop style="stop-color:#c3e9ea;stop-opacity:1;" offset="0.765625"/><stop style="stop-color:#c4eaea;stop-opacity:1;" offset="0.769531"/><stop style="stop-color:#c5eaeb;stop-opacity:1;" offset="0.773437"/><stop style="stop-color:#c6eaeb;stop-opacity:1;" offset="0.777344"/><stop style="stop-color:#c7ebeb;stop-opacity:1;" offset="0.78125"/><stop style="stop-color:#c8ebec;stop-opacity:1;" offset="0.785156"/><stop style="stop-color:#c9ebec;stop-opacity:1;" offset="0.789062"/><stop style="stop-color:#caecec;stop-opacity:1;" offset="0.792969"/><stop style="stop-color:#cbeced;stop-opacity:1;" offset="0.796875"/><stop style="stop-color:#cceced;stop-opacity:1;" offset="0.800781"/><stop style="stop-color:#cdeded;stop-opacity:1;" offset="0.804687"/><stop style="stop-color:#ceedee;stop-opacity:1;" offset="0.808594"/><stop style="stop-color:#cfeeee;stop-opacity:1;" offset="0.8125"/><stop style="stop-color:#d0eeee;stop-opacity:1;" offset="0.816406"/><stop style="stop-color:#d1eeef;stop-opacity:1;" offset="0.820312"/><stop style="stop-color:#d2efef;stop-opacity:1;" offset="0.824219"/><stop style="stop-color:#d3eff0;stop-opacity:1;" offset="0.828125"/><stop style="stop-color:#d4eff0;stop-opacity:1;" offset="0.832031"/><stop style="stop-color:#d5f0f0;stop-opacity:1;" offset="0.835937"/><stop style="stop-color:#d6f0f1;stop-opacity:1;" offset="0.839844"/><stop style="stop-color:#d7f0f1;stop-opacity:1;" offset="0.84375"/><stop style="stop-color:#d8f1f1;stop-opacity:1;" offset="0.847656"/><stop style="stop-color:#d9f1f2;stop-opacity:1;" offset="0.851562"/><stop style="stop-color:#daf2f2;stop-opacity:1;" offset="0.855469"/><stop style="stop-color:#dbf2f2;stop-opacity:1;" offset="0.859375"/><stop style="stop-color:#dcf2f3;stop-opacity:1;" offset="0.863281"/><stop style="stop-color:#ddf3f3;stop-opacity:1;" offset="0.867187"/><stop style="stop-color:#def3f3;stop-opacity:1;" offset="0.871094"/><stop style="stop-color:#dff3f4;stop-opacity:1;" offset="0.875"/><stop style="stop-color:#e0f4f4;stop-opacity:1;" offset="0.878906"/><stop style="stop-color:#e1f4f4;stop-opacity:1;" offset="0.882812"/><stop style="stop-color:#e2f4f5;stop-opacity:1;" offset="0.886719"/><stop style="stop-color:#e3f5f5;stop-opacity:1;" offset="0.890625"/><stop style="stop-color:#e4f5f6;stop-opacity:1;" offset="0.894531"/><stop style="stop-color:#e5f6f6;stop-opacity:1;" offset="0.898437"/><stop style="stop-color:#e6f6f6;stop-opacity:1;" offset="0.902344"/><stop style="stop-color:#e7f6f7;stop-opacity:1;" offset="0.90625"/><stop style="stop-color:#e8f7f7;stop-opacity:1;" offset="0.910156"/><stop style="stop-color:#e9f7f7;stop-opacity:1;" offset="0.914062"/><stop style="stop-color:#eaf7f8;stop-opacity:1;" offset="0.917969"/><stop style="stop-color:#ebf8f8;stop-opacity:1;" offset="0.921875"/><stop style="stop-color:#ecf8f8;stop-opacity:1;" offset="0.925781"/><stop style="stop-color:#edf8f9;stop-opacity:1;" offset="0.929687"/><stop style="stop-color:#eef9f9;stop-opacity:1;" offset="0.933594"/><stop style="stop-color:#eff9f9;stop-opacity:1;" offset="0.9375"/><stop style="stop-color:#f0fafa;stop-opacity:1;" offset="0.941406"/><stop style="stop-color:#f1fafa;stop-opacity:1;" offset="0.945312"/><stop style="stop-color:#f2fafa;stop-opacity:1;" offset="0.949219"/><stop style="stop-color:#f3fbfb;stop-opacity:1;" offset="0.953125"/><stop style="stop-color:#f4fbfb;stop-opacity:1;" offset="0.957031"/><stop style="stop-color:#f5fbfb;stop-opacity:1;" offset="0.960937"/><stop style="stop-color:#f6fcfc;stop-opacity:1;" offset="0.964844"/><stop style="stop-color:#f7fcfc;stop-opacity:1;" offset="0.96875"/><stop style="stop-color:#f8fcfd;stop-opacity:1;" offset="0.972656"/><stop style="stop-color:#f9fdfd;stop-opacity:1;" offset="0.976562"/><stop style="stop-color:#fafdfd;stop-opacity:1;" offset="0.980469"/><stop style="stop-color:#fbfefe;stop-opacity:1;" offset="0.984375"/><stop style="stop-color:#fcfefe;stop-opacity:1;" offset="0.988281"/><stop style="stop-color:#fdfefe;stop-opacity:1;" offset="0.992187"/><stop style="stop-color:#feffff;stop-opacity:1;" offset="0.996094"/><stop style="stop-color:#ffffff;stop-opacity:1;" offset="1"/></linearGradient></defs><g id="0177e4a60b"><g clip-rule="nonzero" clip-path="url(#2a3814c306)"><g clip-rule="nonzero" clip-path="url(#9459ca8602)"><path style="fill:none;stroke-width:8;stroke-linecap:butt;stroke-linejoin:miter;stroke:url(#dc5eabca76);stroke-miterlimit:4;" d="M 14.996933 -0.00000000000166091 L 173.146614 -0.00000000000166091 C 181.423091 -0.00000000000166091 188.139771 6.711374 188.139771 14.993156 L 188.139771 22.940696 C 188.139771 31.222479 181.423091 37.939158 173.146614 37.939158 L 14.996933 37.939158 C 6.71515 37.939158 -0.00152899 31.222479 -0.00152899 22.940696 L -0.00152899 14.993156 C -0.00152899 6.711374 6.71515 -0.00000000000166091 14.996933 -0.00000000000166091 Z M 14.996933 -0.00000000000166091 " transform="matrix(0.736273,0,0,0.736273,2.575345,0.00000000000122288)"/></g></g><g style="fill:#1b438c;fill-opacity:1;"><g transform="translate(17.461633, 19.365799)"><path style="stroke:none" d="M 0.53125 0 L 0.53125 -0.640625 C 0.894531 -0.648438 1.1875 -0.679688 1.40625 -0.734375 C 1.632812 -0.796875 1.8125 -0.890625 1.9375 -1.015625 C 2.0625 -1.148438 2.144531 -1.332031 2.1875 -1.5625 C 2.226562 -1.800781 2.25 -2.113281 2.25 -2.5 L 2.25 -9.96875 C 2.25 -10.34375 2.234375 -10.644531 2.203125 -10.875 C 2.171875 -11.113281 2.101562 -11.300781 2 -11.4375 C 1.894531 -11.570312 1.753906 -11.660156 1.578125 -11.703125 C 1.398438 -11.753906 1.164062 -11.789062 0.875 -11.8125 L 0.875 -12.46875 L 6.0625 -12.46875 C 7.695312 -12.46875 8.953125 -12.203125 9.828125 -11.671875 C 10.710938 -11.148438 11.15625 -10.40625 11.15625 -9.4375 C 11.15625 -8.15625 10.234375 -7.25 8.390625 -6.71875 L 8.390625 -6.65625 C 8.984375 -6.65625 9.519531 -6.570312 10 -6.40625 C 10.476562 -6.238281 10.882812 -6.003906 11.21875 -5.703125 C 11.550781 -5.398438 11.804688 -5.039062 11.984375 -4.625 C 12.171875 -4.21875 12.265625 -3.769531 12.265625 -3.28125 C 12.265625 -2.726562 12.132812 -2.25 11.875 -1.84375 C 11.613281 -1.4375 11.234375 -1.09375 10.734375 -0.8125 C 9.773438 -0.269531 8.453125 0 6.765625 0 Z M 6.875 -0.984375 C 8.613281 -0.984375 9.484375 -1.765625 9.484375 -3.328125 C 9.484375 -4.296875 9.171875 -5 8.546875 -5.4375 C 8.222656 -5.664062 7.804688 -5.828125 7.296875 -5.921875 C 6.785156 -6.015625 6.15625 -6.0625 5.40625 -6.0625 L 4.625 -6.0625 L 4.625 -2.828125 C 4.625 -2.160156 4.796875 -1.6875 5.140625 -1.40625 C 5.492188 -1.125 6.070312 -0.984375 6.875 -0.984375 Z M 5.578125 -7.046875 C 6.066406 -7.046875 6.488281 -7.085938 6.84375 -7.171875 C 7.195312 -7.265625 7.5 -7.398438 7.75 -7.578125 C 8.269531 -7.929688 8.53125 -8.488281 8.53125 -9.25 C 8.53125 -10.03125 8.332031 -10.597656 7.9375 -10.953125 C 7.550781 -11.304688 6.925781 -11.484375 6.0625 -11.484375 L 4.921875 -11.484375 C 4.722656 -11.484375 4.625 -11.390625 4.625 -11.203125 L 4.625 -7.046875 Z M 5.578125 -7.046875 "/></g></g><g style="fill:#1b438c;fill-opacity:1;"><g transform="translate(30.356149, 19.365799)"><path style="stroke:none" d="M 5.3125 -8.734375 C 5.957031 -8.734375 6.566406 -8.625 7.140625 -8.40625 C 7.722656 -8.1875 8.234375 -7.878906 8.671875 -7.484375 C 9.109375 -7.097656 9.453125 -6.640625 9.703125 -6.109375 C 9.953125 -5.578125 10.078125 -4.992188 10.078125 -4.359375 C 10.078125 -3.691406 9.953125 -3.082031 9.703125 -2.53125 C 9.453125 -1.988281 9.109375 -1.515625 8.671875 -1.109375 C 8.234375 -0.710938 7.722656 -0.398438 7.140625 -0.171875 C 6.566406 0.046875 5.957031 0.15625 5.3125 0.15625 C 4.675781 0.15625 4.070312 0.046875 3.5 -0.171875 C 2.925781 -0.390625 2.421875 -0.695312 1.984375 -1.09375 C 1.554688 -1.5 1.21875 -1.976562 0.96875 -2.53125 C 0.71875 -3.082031 0.59375 -3.691406 0.59375 -4.359375 C 0.59375 -4.992188 0.71875 -5.578125 0.96875 -6.109375 C 1.21875 -6.648438 1.554688 -7.113281 1.984375 -7.5 C 2.421875 -7.894531 2.925781 -8.195312 3.5 -8.40625 C 4.070312 -8.625 4.675781 -8.734375 5.3125 -8.734375 Z M 5.3125 -7.796875 C 4.988281 -7.796875 4.691406 -7.710938 4.421875 -7.546875 C 4.148438 -7.378906 3.921875 -7.144531 3.734375 -6.84375 C 3.546875 -6.539062 3.398438 -6.175781 3.296875 -5.75 C 3.191406 -5.320312 3.140625 -4.851562 3.140625 -4.34375 C 3.140625 -3.800781 3.191406 -3.3125 3.296875 -2.875 C 3.398438 -2.445312 3.546875 -2.082031 3.734375 -1.78125 C 3.921875 -1.476562 4.144531 -1.242188 4.40625 -1.078125 C 4.675781 -0.910156 4.976562 -0.828125 5.3125 -0.828125 C 5.644531 -0.828125 5.945312 -0.910156 6.21875 -1.078125 C 6.5 -1.242188 6.734375 -1.476562 6.921875 -1.78125 C 7.117188 -2.09375 7.269531 -2.460938 7.375 -2.890625 C 7.488281 -3.328125 7.546875 -3.8125 7.546875 -4.34375 C 7.546875 -4.851562 7.488281 -5.316406 7.375 -5.734375 C 7.269531 -6.160156 7.117188 -6.523438 6.921875 -6.828125 C 6.734375 -7.140625 6.5 -7.378906 6.21875 -7.546875 C 5.945312 -7.710938 5.644531 -7.796875 5.3125 -7.796875 Z M 5.3125 -7.796875 "/></g></g><g style="fill:#1b438c;fill-opacity:1;"><g transform="translate(41.034163, 19.365799)"><path style="stroke:none" d="M 5.3125 -8.734375 C 5.957031 -8.734375 6.566406 -8.625 7.140625 -8.40625 C 7.722656 -8.1875 8.234375 -7.878906 8.671875 -7.484375 C 9.109375 -7.097656 9.453125 -6.640625 9.703125 -6.109375 C 9.953125 -5.578125 10.078125 -4.992188 10.078125 -4.359375 C 10.078125 -3.691406 9.953125 -3.082031 9.703125 -2.53125 C 9.453125 -1.988281 9.109375 -1.515625 8.671875 -1.109375 C 8.234375 -0.710938 7.722656 -0.398438 7.140625 -0.171875 C 6.566406 0.046875 5.957031 0.15625 5.3125 0.15625 C 4.675781 0.15625 4.070312 0.046875 3.5 -0.171875 C 2.925781 -0.390625 2.421875 -0.695312 1.984375 -1.09375 C 1.554688 -1.5 1.21875 -1.976562 0.96875 -2.53125 C 0.71875 -3.082031 0.59375 -3.691406 0.59375 -4.359375 C 0.59375 -4.992188 0.71875 -5.578125 0.96875 -6.109375 C 1.21875 -6.648438 1.554688 -7.113281 1.984375 -7.5 C 2.421875 -7.894531 2.925781 -8.195312 3.5 -8.40625 C 4.070312 -8.625 4.675781 -8.734375 5.3125 -8.734375 Z M 5.3125 -7.796875 C 4.988281 -7.796875 4.691406 -7.710938 4.421875 -7.546875 C 4.148438 -7.378906 3.921875 -7.144531 3.734375 -6.84375 C 3.546875 -6.539062 3.398438 -6.175781 3.296875 -5.75 C 3.191406 -5.320312 3.140625 -4.851562 3.140625 -4.34375 C 3.140625 -3.800781 3.191406 -3.3125 3.296875 -2.875 C 3.398438 -2.445312 3.546875 -2.082031 3.734375 -1.78125 C 3.921875 -1.476562 4.144531 -1.242188 4.40625 -1.078125 C 4.675781 -0.910156 4.976562 -0.828125 5.3125 -0.828125 C 5.644531 -0.828125 5.945312 -0.910156 6.21875 -1.078125 C 6.5 -1.242188 6.734375 -1.476562 6.921875 -1.78125 C 7.117188 -2.09375 7.269531 -2.460938 7.375 -2.890625 C 7.488281 -3.328125 7.546875 -3.8125 7.546875 -4.34375 C 7.546875 -4.851562 7.488281 -5.316406 7.375 -5.734375 C 7.269531 -6.160156 7.117188 -6.523438 6.921875 -6.828125 C 6.734375 -7.140625 6.5 -7.378906 6.21875 -7.546875 C 5.945312 -7.710938 5.644531 -7.796875 5.3125 -7.796875 Z M 5.3125 -7.796875 "/></g></g><g style="fill:#1b438c;fill-opacity:1;"><g transform="translate(51.712176, 19.365799)"><path style="stroke:none" d="M 5.796875 -0.640625 C 6.140625 -0.640625 6.378906 -0.65625 6.515625 -0.6875 C 6.660156 -0.71875 6.734375 -0.773438 6.734375 -0.859375 C 6.734375 -0.921875 6.660156 -1.078125 6.515625 -1.328125 C 6.367188 -1.585938 6.179688 -1.882812 5.953125 -2.21875 L 4.734375 -4.0625 L 3.921875 -3.28125 L 3.921875 -2.65625 C 3.921875 -2.226562 3.9375 -1.882812 3.96875 -1.625 C 4 -1.375 4.050781 -1.175781 4.125 -1.03125 C 4.207031 -0.882812 4.320312 -0.78125 4.46875 -0.71875 C 4.613281 -0.664062 4.800781 -0.640625 5.03125 -0.640625 L 5.03125 0 L 0.265625 0 L 0.265625 -0.640625 C 0.566406 -0.648438 0.804688 -0.679688 0.984375 -0.734375 C 1.171875 -0.796875 1.316406 -0.894531 1.421875 -1.03125 C 1.535156 -1.164062 1.609375 -1.351562 1.640625 -1.59375 C 1.679688 -1.832031 1.703125 -2.148438 1.703125 -2.546875 L 1.703125 -9.40625 C 1.703125 -10.0625 1.691406 -10.578125 1.671875 -10.953125 C 1.648438 -11.335938 1.59375 -11.625 1.5 -11.8125 C 1.40625 -12 1.265625 -12.113281 1.078125 -12.15625 C 0.890625 -12.195312 0.632812 -12.21875 0.3125 -12.21875 L 0.3125 -12.828125 L 3.921875 -13.4375 L 3.921875 -4.4375 L 5.46875 -5.90625 C 6.03125 -6.4375 6.429688 -6.832031 6.671875 -7.09375 C 6.910156 -7.363281 7.03125 -7.554688 7.03125 -7.671875 C 7.03125 -7.765625 6.925781 -7.832031 6.71875 -7.875 C 6.519531 -7.914062 6.148438 -7.9375 5.609375 -7.9375 L 5.609375 -8.578125 L 10.03125 -8.578125 L 10.03125 -7.9375 C 9.625 -7.9375 9.265625 -7.863281 8.953125 -7.71875 C 8.640625 -7.582031 8.300781 -7.34375 7.9375 -7 L 6.359375 -5.515625 L 9.15625 -1.546875 C 9.40625 -1.203125 9.648438 -0.960938 9.890625 -0.828125 C 10.128906 -0.703125 10.441406 -0.640625 10.828125 -0.640625 L 10.828125 0 L 5.796875 0 Z M 5.796875 -0.640625 "/></g></g><g style="fill:#1b438c;fill-opacity:1;"><g transform="translate(62.212154, 19.365799)"><path style="stroke:none" d=""/></g></g><g style="fill:#1b438c;fill-opacity:1;"><g transform="translate(66.515721, 19.365799)"><path style="stroke:none" d="M 7.640625 -12.625 C 8.609375 -12.625 9.515625 -12.457031 10.359375 -12.125 C 11.203125 -11.789062 11.929688 -11.332031 12.546875 -10.75 C 13.171875 -10.164062 13.660156 -9.476562 14.015625 -8.6875 C 14.367188 -7.90625 14.546875 -7.054688 14.546875 -6.140625 C 14.546875 -5.265625 14.363281 -4.441406 14 -3.671875 C 13.644531 -2.910156 13.15625 -2.242188 12.53125 -1.671875 C 11.914062 -1.109375 11.1875 -0.660156 10.34375 -0.328125 C 9.5 -0.00390625 8.597656 0.15625 7.640625 0.15625 C 6.679688 0.15625 5.78125 -0.00390625 4.9375 -0.328125 C 4.09375 -0.660156 3.359375 -1.109375 2.734375 -1.671875 C 2.109375 -2.242188 1.617188 -2.910156 1.265625 -3.671875 C 0.910156 -4.441406 0.734375 -5.265625 0.734375 -6.140625 C 0.734375 -7.054688 0.910156 -7.90625 1.265625 -8.6875 C 1.617188 -9.476562 2.101562 -10.164062 2.71875 -10.75 C 3.34375 -11.332031 4.078125 -11.789062 4.921875 -12.125 C 5.765625 -12.457031 6.671875 -12.625 7.640625 -12.625 Z M 7.640625 -0.890625 C 8.265625 -0.890625 8.828125 -1.007812 9.328125 -1.25 C 9.835938 -1.5 10.269531 -1.847656 10.625 -2.296875 C 10.988281 -2.742188 11.265625 -3.285156 11.453125 -3.921875 C 11.640625 -4.566406 11.734375 -5.289062 11.734375 -6.09375 C 11.734375 -6.925781 11.640625 -7.679688 11.453125 -8.359375 C 11.265625 -9.035156 10.988281 -9.613281 10.625 -10.09375 C 10.269531 -10.570312 9.835938 -10.9375 9.328125 -11.1875 C 8.828125 -11.445312 8.265625 -11.578125 7.640625 -11.578125 C 7.003906 -11.578125 6.4375 -11.445312 5.9375 -11.1875 C 5.4375 -10.9375 5.003906 -10.570312 4.640625 -10.09375 C 4.285156 -9.613281 4.015625 -9.035156 3.828125 -8.359375 C 3.640625 -7.679688 3.546875 -6.925781 3.546875 -6.09375 C 3.546875 -5.289062 3.640625 -4.566406 3.828125 -3.921875 C 4.015625 -3.285156 4.285156 -2.742188 4.640625 -2.296875 C 5.003906 -1.847656 5.4375 -1.5 5.9375 -1.25 C 6.4375 -1.007812 7.003906 -0.890625 7.640625 -0.890625 Z M 7.640625 -0.890625 "/></g></g><g style="fill:#1b438c;fill-opacity:1;"><g transform="translate(81.772336, 19.365799)"><path style="stroke:none" d="M 4.15625 -2.640625 C 4.15625 -2.191406 4.164062 -1.84375 4.1875 -1.59375 C 4.21875 -1.34375 4.28125 -1.148438 4.375 -1.015625 C 4.46875 -0.878906 4.609375 -0.789062 4.796875 -0.75 C 4.984375 -0.707031 5.238281 -0.671875 5.5625 -0.640625 L 5.5625 0 L 0.46875 0 L 0.46875 -0.640625 C 0.78125 -0.671875 1.03125 -0.707031 1.21875 -0.75 C 1.40625 -0.789062 1.550781 -0.875 1.65625 -1 C 1.757812 -1.132812 1.828125 -1.316406 1.859375 -1.546875 C 1.890625 -1.785156 1.90625 -2.113281 1.90625 -2.53125 L 1.90625 -4.546875 C 1.90625 -5.179688 1.894531 -5.695312 1.875 -6.09375 C 1.851562 -6.488281 1.828125 -6.753906 1.796875 -6.890625 C 1.765625 -7.035156 1.722656 -7.148438 1.671875 -7.234375 C 1.617188 -7.328125 1.535156 -7.398438 1.421875 -7.453125 C 1.316406 -7.503906 1.179688 -7.535156 1.015625 -7.546875 C 0.859375 -7.566406 0.65625 -7.578125 0.40625 -7.578125 L 0.40625 -8.125 L 3.53125 -8.734375 L 3.734375 -7.3125 L 3.796875 -7.3125 C 4.160156 -7.769531 4.582031 -8.117188 5.0625 -8.359375 C 5.550781 -8.609375 6.085938 -8.734375 6.671875 -8.734375 C 7.359375 -8.734375 7.914062 -8.640625 8.34375 -8.453125 C 8.769531 -8.265625 9.148438 -7.953125 9.484375 -7.515625 C 9.671875 -7.265625 9.832031 -6.941406 9.96875 -6.546875 C 10.113281 -6.148438 10.1875 -5.609375 10.1875 -4.921875 L 10.1875 -2.640625 C 10.1875 -2.191406 10.195312 -1.84375 10.21875 -1.59375 C 10.25 -1.34375 10.304688 -1.148438 10.390625 -1.015625 C 10.484375 -0.878906 10.625 -0.789062 10.8125 -0.75 C 11 -0.707031 11.25 -0.671875 11.5625 -0.640625 L 11.5625 0 L 6.484375 0 L 6.484375 -0.640625 C 6.816406 -0.648438 7.078125 -0.679688 7.265625 -0.734375 C 7.453125 -0.785156 7.59375 -0.875 7.6875 -1 C 7.78125 -1.132812 7.84375 -1.320312 7.875 -1.5625 C 7.914062 -1.800781 7.9375 -2.125 7.9375 -2.53125 L 7.9375 -4.734375 C 7.9375 -5.273438 7.898438 -5.734375 7.828125 -6.109375 C 7.765625 -6.492188 7.660156 -6.800781 7.515625 -7.03125 C 7.367188 -7.257812 7.175781 -7.425781 6.9375 -7.53125 C 6.707031 -7.632812 6.410156 -7.6875 6.046875 -7.6875 C 5.703125 -7.6875 5.40625 -7.585938 5.15625 -7.390625 C 4.914062 -7.203125 4.703125 -6.9375 4.515625 -6.59375 C 4.421875 -6.394531 4.335938 -6.140625 4.265625 -5.828125 C 4.191406 -5.523438 4.15625 -5.207031 4.15625 -4.875 Z M 4.15625 -2.640625 "/></g></g><g style="fill:#1b438c;fill-opacity:1;"><g transform="translate(93.534332, 19.365799)"><path style="stroke:none" d="M 4 -2.65625 C 4 -2.21875 4.015625 -1.867188 4.046875 -1.609375 C 4.078125 -1.359375 4.140625 -1.160156 4.234375 -1.015625 C 4.335938 -0.878906 4.476562 -0.785156 4.65625 -0.734375 C 4.84375 -0.679688 5.09375 -0.648438 5.40625 -0.640625 L 5.40625 0 L 0.3125 0 L 0.3125 -0.640625 C 0.613281 -0.648438 0.859375 -0.6875 1.046875 -0.75 C 1.234375 -0.8125 1.378906 -0.910156 1.484375 -1.046875 C 1.585938 -1.179688 1.65625 -1.367188 1.6875 -1.609375 C 1.726562 -1.847656 1.75 -2.160156 1.75 -2.546875 L 1.75 -9.234375 C 1.75 -9.859375 1.738281 -10.367188 1.71875 -10.765625 C 1.695312 -11.171875 1.671875 -11.453125 1.640625 -11.609375 C 1.578125 -11.878906 1.453125 -12.054688 1.265625 -12.140625 C 1.078125 -12.222656 0.738281 -12.265625 0.25 -12.265625 L 0.25 -12.828125 L 4 -13.4375 Z M 4 -2.65625 "/></g></g><g style="fill:#1b438c;fill-opacity:1;"><g transform="translate(99.277807, 19.365799)"><path style="stroke:none" d="M 4.15625 -2.65625 C 4.15625 -2.21875 4.171875 -1.867188 4.203125 -1.609375 C 4.234375 -1.359375 4.296875 -1.160156 4.390625 -1.015625 C 4.492188 -0.878906 4.632812 -0.785156 4.8125 -0.734375 C 5 -0.679688 5.25 -0.648438 5.5625 -0.640625 L 5.5625 0 L 0.46875 0 L 0.46875 -0.640625 C 0.769531 -0.648438 1.015625 -0.6875 1.203125 -0.75 C 1.390625 -0.8125 1.535156 -0.910156 1.640625 -1.046875 C 1.742188 -1.179688 1.8125 -1.367188 1.84375 -1.609375 C 1.882812 -1.847656 1.90625 -2.160156 1.90625 -2.546875 L 1.90625 -4.53125 C 1.90625 -5.15625 1.894531 -5.671875 1.875 -6.078125 C 1.851562 -6.484375 1.828125 -6.757812 1.796875 -6.90625 C 1.742188 -7.175781 1.625 -7.351562 1.4375 -7.4375 C 1.25 -7.53125 0.90625 -7.578125 0.40625 -7.578125 L 0.40625 -8.125 L 4.15625 -8.734375 Z M 1.78125 -12.171875 C 1.78125 -12.523438 1.898438 -12.820312 2.140625 -13.0625 C 2.390625 -13.3125 2.6875 -13.4375 3.03125 -13.4375 C 3.382812 -13.4375 3.679688 -13.3125 3.921875 -13.0625 C 4.171875 -12.820312 4.296875 -12.523438 4.296875 -12.171875 C 4.296875 -11.828125 4.171875 -11.53125 3.921875 -11.28125 C 3.679688 -11.039062 3.382812 -10.921875 3.03125 -10.921875 C 2.6875 -10.921875 2.390625 -11.039062 2.140625 -11.28125 C 1.898438 -11.53125 1.78125 -11.828125 1.78125 -12.171875 Z M 1.78125 -12.171875 "/></g></g><g style="fill:#1b438c;fill-opacity:1;"><g transform="translate(105.118359, 19.365799)"><path style="stroke:none" d="M 4.15625 -2.640625 C 4.15625 -2.191406 4.164062 -1.84375 4.1875 -1.59375 C 4.21875 -1.34375 4.28125 -1.148438 4.375 -1.015625 C 4.46875 -0.878906 4.609375 -0.789062 4.796875 -0.75 C 4.984375 -0.707031 5.238281 -0.671875 5.5625 -0.640625 L 5.5625 0 L 0.46875 0 L 0.46875 -0.640625 C 0.78125 -0.671875 1.03125 -0.707031 1.21875 -0.75 C 1.40625 -0.789062 1.550781 -0.875 1.65625 -1 C 1.757812 -1.132812 1.828125 -1.316406 1.859375 -1.546875 C 1.890625 -1.785156 1.90625 -2.113281 1.90625 -2.53125 L 1.90625 -4.546875 C 1.90625 -5.179688 1.894531 -5.695312 1.875 -6.09375 C 1.851562 -6.488281 1.828125 -6.753906 1.796875 -6.890625 C 1.765625 -7.035156 1.722656 -7.148438 1.671875 -7.234375 C 1.617188 -7.328125 1.535156 -7.398438 1.421875 -7.453125 C 1.316406 -7.503906 1.179688 -7.535156 1.015625 -7.546875 C 0.859375 -7.566406 0.65625 -7.578125 0.40625 -7.578125 L 0.40625 -8.125 L 3.53125 -8.734375 L 3.734375 -7.3125 L 3.796875 -7.3125 C 4.160156 -7.769531 4.582031 -8.117188 5.0625 -8.359375 C 5.550781 -8.609375 6.085938 -8.734375 6.671875 -8.734375 C 7.359375 -8.734375 7.914062 -8.640625 8.34375 -8.453125 C 8.769531 -8.265625 9.148438 -7.953125 9.484375 -7.515625 C 9.671875 -7.265625 9.832031 -6.941406 9.96875 -6.546875 C 10.113281 -6.148438 10.1875 -5.609375 10.1875 -4.921875 L 10.1875 -2.640625 C 10.1875 -2.191406 10.195312 -1.84375 10.21875 -1.59375 C 10.25 -1.34375 10.304688 -1.148438 10.390625 -1.015625 C 10.484375 -0.878906 10.625 -0.789062 10.8125 -0.75 C 11 -0.707031 11.25 -0.671875 11.5625 -0.640625 L 11.5625 0 L 6.484375 0 L 6.484375 -0.640625 C 6.816406 -0.648438 7.078125 -0.679688 7.265625 -0.734375 C 7.453125 -0.785156 7.59375 -0.875 7.6875 -1 C 7.78125 -1.132812 7.84375 -1.320312 7.875 -1.5625 C 7.914062 -1.800781 7.9375 -2.125 7.9375 -2.53125 L 7.9375 -4.734375 C 7.9375 -5.273438 7.898438 -5.734375 7.828125 -6.109375 C 7.765625 -6.492188 7.660156 -6.800781 7.515625 -7.03125 C 7.367188 -7.257812 7.175781 -7.425781 6.9375 -7.53125 C 6.707031 -7.632812 6.410156 -7.6875 6.046875 -7.6875 C 5.703125 -7.6875 5.40625 -7.585938 5.15625 -7.390625 C 4.914062 -7.203125 4.703125 -6.9375 4.515625 -6.59375 C 4.421875 -6.394531 4.335938 -6.140625 4.265625 -5.828125 C 4.191406 -5.523438 4.15625 -5.207031 4.15625 -4.875 Z M 4.15625 -2.640625 "/></g></g><g style="fill:#1b438c;fill-opacity:1;"><g transform="translate(116.880355, 19.365799)"><path style="stroke:none" d="M 8.734375 -1.5 C 7.753906 -0.394531 6.53125 0.15625 5.0625 0.15625 C 4.394531 0.15625 3.785156 0.0507812 3.234375 -0.15625 C 2.691406 -0.363281 2.226562 -0.660156 1.84375 -1.046875 C 1.457031 -1.429688 1.15625 -1.882812 0.9375 -2.40625 C 0.71875 -2.9375 0.609375 -3.523438 0.609375 -4.171875 C 0.609375 -4.847656 0.722656 -5.460938 0.953125 -6.015625 C 1.179688 -6.566406 1.503906 -7.046875 1.921875 -7.453125 C 2.335938 -7.859375 2.828125 -8.171875 3.390625 -8.390625 C 3.953125 -8.617188 4.578125 -8.734375 5.265625 -8.734375 C 6.410156 -8.734375 7.300781 -8.425781 7.9375 -7.8125 C 8.570312 -7.195312 8.890625 -6.335938 8.890625 -5.234375 C 8.890625 -5.054688 8.859375 -4.945312 8.796875 -4.90625 C 8.742188 -4.875 8.597656 -4.859375 8.359375 -4.859375 L 3.140625 -4.859375 C 3.097656 -4.753906 3.078125 -4.578125 3.078125 -4.328125 C 3.078125 -3.265625 3.304688 -2.425781 3.765625 -1.8125 C 4.222656 -1.195312 4.847656 -0.890625 5.640625 -0.890625 C 6.085938 -0.890625 6.535156 -0.988281 6.984375 -1.1875 C 7.429688 -1.394531 7.863281 -1.691406 8.28125 -2.078125 Z M 5.59375 -5.765625 C 6.03125 -5.765625 6.3125 -5.785156 6.4375 -5.828125 C 6.5625 -5.878906 6.625 -6 6.625 -6.1875 C 6.625 -6.65625 6.488281 -7.039062 6.21875 -7.34375 C 5.945312 -7.644531 5.609375 -7.796875 5.203125 -7.796875 C 4.734375 -7.796875 4.316406 -7.601562 3.953125 -7.21875 C 3.597656 -6.84375 3.363281 -6.359375 3.25 -5.765625 Z M 5.59375 -5.765625 "/></g></g></g></svg>