<svg xmlns="http://www.w3.org/2000/svg" xmlns:xlink="http://www.w3.org/1999/xlink" width="182" zoomAndPan="magnify" viewBox="0 0 136.5 28.499999" height="38" preserveAspectRatio="xMidYMid meet" version="1.2"><defs><clipPath id="16a62e4a60"><path d="M 3.191406 2 L 131.441406 2 L 131.441406 27.273438 L 3.191406 27.273438 Z M 3.191406 2 "/></clipPath><clipPath id="59625d723f"><path d="M 3.191406 0 L 131.441406 0 L 131.441406 25 L 3.191406 25 Z M 3.191406 0 "/></clipPath></defs><g id="d4dca33ace"><g clip-rule="nonzero" clip-path="url(#16a62e4a60)"><path style=" stroke:none;fill-rule:nonzero;fill:#1b438c;fill-opacity:1;" d="M 10.121094 2.292969 L 124.515625 2.292969 C 124.96875 2.292969 125.417969 2.335938 125.863281 2.425781 C 126.308594 2.511719 126.738281 2.640625 127.15625 2.8125 C 127.578125 2.984375 127.972656 3.195312 128.351562 3.445312 C 128.726562 3.695312 129.078125 3.976562 129.398438 4.296875 C 129.71875 4.613281 130.003906 4.957031 130.257812 5.332031 C 130.507812 5.703125 130.722656 6.097656 130.894531 6.511719 C 131.066406 6.925781 131.199219 7.351562 131.289062 7.792969 C 131.375 8.234375 131.421875 8.675781 131.421875 9.125 L 131.421875 20.445312 C 131.421875 20.894531 131.375 21.339844 131.289062 21.777344 C 131.199219 22.21875 131.066406 22.644531 130.894531 23.058594 C 130.722656 23.472656 130.507812 23.867188 130.257812 24.242188 C 130.003906 24.613281 129.71875 24.957031 129.398438 25.277344 C 129.078125 25.59375 128.726562 25.875 128.351562 26.125 C 127.972656 26.375 127.578125 26.585938 127.15625 26.757812 C 126.738281 26.929688 126.308594 27.058594 125.863281 27.144531 C 125.417969 27.234375 124.96875 27.277344 124.515625 27.277344 L 10.121094 27.277344 C 9.667969 27.277344 9.21875 27.234375 8.777344 27.144531 C 8.332031 27.058594 7.898438 26.929688 7.480469 26.757812 C 7.0625 26.585938 6.664062 26.375 6.285156 26.125 C 5.910156 25.875 5.5625 25.59375 5.238281 25.277344 C 4.917969 24.957031 4.632812 24.613281 4.382812 24.242188 C 4.128906 23.867188 3.917969 23.472656 3.742188 23.058594 C 3.570312 22.644531 3.4375 22.21875 3.351562 21.777344 C 3.261719 21.339844 3.21875 20.894531 3.21875 20.445312 L 3.21875 9.125 C 3.21875 8.675781 3.261719 8.234375 3.351562 7.792969 C 3.4375 7.351562 3.570312 6.925781 3.742188 6.511719 C 3.917969 6.097656 4.128906 5.703125 4.382812 5.332031 C 4.632812 4.957031 4.917969 4.613281 5.238281 4.296875 C 5.5625 3.976562 5.910156 3.695312 6.285156 3.445312 C 6.664062 3.195312 7.0625 2.984375 7.480469 2.8125 C 7.898438 2.640625 8.332031 2.511719 8.777344 2.425781 C 9.21875 2.335938 9.667969 2.292969 10.121094 2.292969 Z M 10.121094 2.292969 "/></g><g clip-rule="nonzero" clip-path="url(#59625d723f)"><path style=" stroke:none;fill-rule:nonzero;fill:#69c8ca;fill-opacity:1;" d="M 10.121094 0 L 124.515625 0 C 124.96875 0 125.417969 0.0429688 125.863281 0.132812 C 126.308594 0.21875 126.738281 0.347656 127.15625 0.519531 C 127.578125 0.691406 127.972656 0.902344 128.351562 1.152344 C 128.726562 1.402344 129.078125 1.683594 129.398438 2 C 129.71875 2.316406 130.003906 2.664062 130.257812 3.035156 C 130.507812 3.410156 130.722656 3.804688 130.894531 4.21875 C 131.066406 4.632812 131.199219 5.058594 131.289062 5.5 C 131.375 5.9375 131.421875 6.382812 131.421875 6.832031 L 131.421875 18.152344 C 131.421875 18.601562 131.375 19.042969 131.289062 19.484375 C 131.199219 19.925781 131.066406 20.351562 130.894531 20.765625 C 130.722656 21.179688 130.507812 21.574219 130.257812 21.945312 C 130.003906 22.320312 129.71875 22.664062 129.398438 22.980469 C 129.078125 23.300781 128.726562 23.582031 128.351562 23.832031 C 127.972656 24.082031 127.578125 24.292969 127.15625 24.464844 C 126.738281 24.632812 126.308594 24.765625 125.863281 24.851562 C 125.417969 24.9375 124.96875 24.984375 124.515625 24.984375 L 10.121094 24.984375 C 9.667969 24.984375 9.21875 24.9375 8.777344 24.851562 C 8.332031 24.765625 7.898438 24.632812 7.480469 24.464844 C 7.0625 24.292969 6.664062 24.082031 6.285156 23.832031 C 5.910156 23.582031 5.5625 23.300781 5.238281 22.980469 C 4.917969 22.664062 4.632812 22.320312 4.382812 21.945312 C 4.128906 21.574219 3.917969 21.179688 3.742188 20.765625 C 3.570312 20.351562 3.4375 19.925781 3.351562 19.484375 C 3.261719 19.042969 3.21875 18.601562 3.21875 18.152344 L 3.21875 6.832031 C 3.21875 6.382812 3.261719 5.9375 3.351562 5.5 C 3.4375 5.058594 3.570312 4.632812 3.742188 4.21875 C 3.917969 3.804688 4.128906 3.410156 4.382812 3.035156 C 4.632812 2.664062 4.917969 2.316406 5.238281 2 C 5.5625 1.683594 5.910156 1.402344 6.285156 1.152344 C 6.664062 0.902344 7.0625 0.691406 7.480469 0.519531 C 7.898438 0.347656 8.332031 0.21875 8.777344 0.132812 C 9.21875 0.0429688 9.667969 0 10.121094 0 Z M 10.121094 0 "/></g><g style="fill:#0f338a;fill-opacity:1;"><g transform="translate(10.974038, 18.553745)"><path style="stroke:none" d="M 11.78125 -12.828125 L 12.59375 -12.828125 L 12.265625 -8.609375 L 11.59375 -8.609375 C 11.363281 -9.628906 10.910156 -10.429688 10.234375 -11.015625 C 9.566406 -11.609375 8.753906 -11.90625 7.796875 -11.90625 C 7.140625 -11.90625 6.554688 -11.773438 6.046875 -11.515625 C 5.535156 -11.253906 5.101562 -10.878906 4.75 -10.390625 C 4.40625 -9.910156 4.140625 -9.320312 3.953125 -8.625 C 3.773438 -7.9375 3.6875 -7.160156 3.6875 -6.296875 C 3.6875 -4.578125 4.035156 -3.253906 4.734375 -2.328125 C 5.441406 -1.398438 6.484375 -0.9375 7.859375 -0.9375 C 8.972656 -0.9375 9.890625 -1.234375 10.609375 -1.828125 C 11.335938 -2.429688 11.859375 -3.328125 12.171875 -4.515625 L 12.90625 -4.515625 L 12.90625 0 L 12.125 0 L 11.890625 -1.3125 C 10.671875 -0.320312 9.1875 0.171875 7.4375 0.171875 C 6.425781 0.171875 5.507812 0.0195312 4.6875 -0.28125 C 3.875 -0.582031 3.175781 -1.003906 2.59375 -1.546875 C 2.019531 -2.097656 1.570312 -2.769531 1.25 -3.5625 C 0.9375 -4.351562 0.78125 -5.234375 0.78125 -6.203125 C 0.78125 -7.210938 0.945312 -8.128906 1.28125 -8.953125 C 1.613281 -9.785156 2.082031 -10.503906 2.6875 -11.109375 C 3.289062 -11.710938 4.007812 -12.175781 4.84375 -12.5 C 5.6875 -12.820312 6.617188 -12.984375 7.640625 -12.984375 C 8.316406 -12.984375 8.945312 -12.890625 9.53125 -12.703125 C 10.125 -12.515625 10.765625 -12.210938 11.453125 -11.796875 Z M 11.78125 -12.828125 "/></g></g><g style="fill:#0f338a;fill-opacity:1;"><g transform="translate(24.679576, 18.553745)"><path style="stroke:none" d="M 5.46875 -9 C 6.132812 -9 6.765625 -8.882812 7.359375 -8.65625 C 7.953125 -8.425781 8.472656 -8.109375 8.921875 -7.703125 C 9.367188 -7.304688 9.722656 -6.832031 9.984375 -6.28125 C 10.242188 -5.738281 10.375 -5.140625 10.375 -4.484375 C 10.375 -3.804688 10.242188 -3.179688 9.984375 -2.609375 C 9.722656 -2.046875 9.367188 -1.554688 8.921875 -1.140625 C 8.472656 -0.734375 7.953125 -0.410156 7.359375 -0.171875 C 6.765625 0.0546875 6.132812 0.171875 5.46875 0.171875 C 4.8125 0.171875 4.1875 0.0546875 3.59375 -0.171875 C 3.007812 -0.398438 2.492188 -0.71875 2.046875 -1.125 C 1.597656 -1.539062 1.242188 -2.035156 0.984375 -2.609375 C 0.734375 -3.179688 0.609375 -3.804688 0.609375 -4.484375 C 0.609375 -5.140625 0.734375 -5.742188 0.984375 -6.296875 C 1.242188 -6.847656 1.597656 -7.320312 2.046875 -7.71875 C 2.492188 -8.125 3.007812 -8.4375 3.59375 -8.65625 C 4.1875 -8.882812 4.8125 -9 5.46875 -9 Z M 5.46875 -8.03125 C 5.132812 -8.03125 4.828125 -7.941406 4.546875 -7.765625 C 4.265625 -7.597656 4.023438 -7.359375 3.828125 -7.046875 C 3.640625 -6.734375 3.492188 -6.359375 3.390625 -5.921875 C 3.285156 -5.484375 3.234375 -5 3.234375 -4.46875 C 3.234375 -3.90625 3.285156 -3.398438 3.390625 -2.953125 C 3.492188 -2.515625 3.640625 -2.140625 3.828125 -1.828125 C 4.023438 -1.515625 4.257812 -1.269531 4.53125 -1.09375 C 4.8125 -0.925781 5.125 -0.84375 5.46875 -0.84375 C 5.8125 -0.84375 6.125 -0.925781 6.40625 -1.09375 C 6.6875 -1.269531 6.925781 -1.515625 7.125 -1.828125 C 7.320312 -2.148438 7.476562 -2.53125 7.59375 -2.96875 C 7.707031 -3.414062 7.765625 -3.914062 7.765625 -4.46875 C 7.765625 -5 7.707031 -5.476562 7.59375 -5.90625 C 7.476562 -6.34375 7.320312 -6.71875 7.125 -7.03125 C 6.925781 -7.351562 6.6875 -7.597656 6.40625 -7.765625 C 6.125 -7.941406 5.8125 -8.03125 5.46875 -8.03125 Z M 5.46875 -8.03125 "/></g></g><g style="fill:#0f338a;fill-opacity:1;"><g transform="translate(35.670648, 18.553745)"><path style="stroke:none" d="M 4.28125 -2.71875 C 4.28125 -2.257812 4.289062 -1.898438 4.3125 -1.640625 C 4.34375 -1.378906 4.40625 -1.175781 4.5 -1.03125 C 4.59375 -0.894531 4.738281 -0.804688 4.9375 -0.765625 C 5.132812 -0.722656 5.398438 -0.691406 5.734375 -0.671875 L 5.734375 0 L 0.484375 0 L 0.484375 -0.671875 C 0.804688 -0.691406 1.0625 -0.722656 1.25 -0.765625 C 1.445312 -0.804688 1.597656 -0.894531 1.703125 -1.03125 C 1.804688 -1.164062 1.875 -1.351562 1.90625 -1.59375 C 1.945312 -1.84375 1.96875 -2.175781 1.96875 -2.59375 L 1.96875 -4.6875 C 1.96875 -5.332031 1.957031 -5.859375 1.9375 -6.265625 C 1.914062 -6.671875 1.882812 -6.945312 1.84375 -7.09375 C 1.8125 -7.238281 1.765625 -7.359375 1.703125 -7.453125 C 1.648438 -7.546875 1.566406 -7.617188 1.453125 -7.671875 C 1.347656 -7.722656 1.210938 -7.753906 1.046875 -7.765625 C 0.878906 -7.785156 0.671875 -7.796875 0.421875 -7.796875 L 0.421875 -8.359375 L 3.625 -9 L 3.84375 -7.53125 L 3.921875 -7.53125 C 4.285156 -8 4.71875 -8.359375 5.21875 -8.609375 C 5.71875 -8.867188 6.265625 -9 6.859375 -9 C 7.566406 -9 8.140625 -8.898438 8.578125 -8.703125 C 9.023438 -8.503906 9.421875 -8.179688 9.765625 -7.734375 C 9.953125 -7.472656 10.117188 -7.140625 10.265625 -6.734375 C 10.410156 -6.328125 10.484375 -5.769531 10.484375 -5.0625 L 10.484375 -2.71875 C 10.484375 -2.257812 10.492188 -1.898438 10.515625 -1.640625 C 10.546875 -1.378906 10.609375 -1.175781 10.703125 -1.03125 C 10.796875 -0.894531 10.9375 -0.804688 11.125 -0.765625 C 11.3125 -0.722656 11.566406 -0.691406 11.890625 -0.671875 L 11.890625 0 L 6.671875 0 L 6.671875 -0.671875 C 7.003906 -0.679688 7.269531 -0.707031 7.46875 -0.75 C 7.664062 -0.800781 7.8125 -0.894531 7.90625 -1.03125 C 8.007812 -1.164062 8.078125 -1.359375 8.109375 -1.609375 C 8.140625 -1.859375 8.15625 -2.1875 8.15625 -2.59375 L 8.15625 -4.859375 C 8.15625 -5.429688 8.125 -5.910156 8.0625 -6.296875 C 8 -6.679688 7.890625 -6.992188 7.734375 -7.234375 C 7.585938 -7.472656 7.390625 -7.644531 7.140625 -7.75 C 6.898438 -7.851562 6.597656 -7.90625 6.234375 -7.90625 C 5.878906 -7.90625 5.570312 -7.804688 5.3125 -7.609375 C 5.0625 -7.410156 4.835938 -7.132812 4.640625 -6.78125 C 4.546875 -6.582031 4.460938 -6.320312 4.390625 -6 C 4.316406 -5.6875 4.28125 -5.359375 4.28125 -5.015625 Z M 4.28125 -2.71875 "/></g></g><g style="fill:#0f338a;fill-opacity:1;"><g transform="translate(47.77748, 18.553745)"><path style="stroke:none" d="M 1.421875 0 L 0.90625 0 L 0.90625 -3.03125 L 1.59375 -3.03125 C 1.78125 -2.226562 2.050781 -1.644531 2.40625 -1.28125 C 2.769531 -0.914062 3.234375 -0.734375 3.796875 -0.734375 C 4.203125 -0.734375 4.519531 -0.816406 4.75 -0.984375 C 4.976562 -1.160156 5.09375 -1.398438 5.09375 -1.703125 C 5.09375 -2.015625 4.953125 -2.316406 4.671875 -2.609375 C 4.398438 -2.898438 3.953125 -3.210938 3.328125 -3.546875 C 2.484375 -4.003906 1.878906 -4.457031 1.515625 -4.90625 C 1.148438 -5.351562 0.96875 -5.859375 0.96875 -6.421875 C 0.96875 -6.796875 1.035156 -7.140625 1.171875 -7.453125 C 1.304688 -7.765625 1.492188 -8.035156 1.734375 -8.265625 C 1.972656 -8.503906 2.257812 -8.6875 2.59375 -8.8125 C 2.925781 -8.945312 3.289062 -9.015625 3.6875 -9.015625 C 4.03125 -9.015625 4.367188 -8.960938 4.703125 -8.859375 C 5.046875 -8.765625 5.34375 -8.625 5.59375 -8.4375 L 5.890625 -8.84375 L 6.328125 -8.84375 L 6.328125 -6.328125 L 5.6875 -6.328125 C 5.425781 -6.960938 5.160156 -7.414062 4.890625 -7.6875 C 4.617188 -7.96875 4.285156 -8.109375 3.890625 -8.109375 C 3.585938 -8.109375 3.34375 -8.023438 3.15625 -7.859375 C 2.96875 -7.691406 2.875 -7.472656 2.875 -7.203125 C 2.875 -6.890625 3.007812 -6.59375 3.28125 -6.3125 C 3.5625 -6.03125 4.015625 -5.722656 4.640625 -5.390625 C 5.085938 -5.148438 5.472656 -4.910156 5.796875 -4.671875 C 6.117188 -4.441406 6.378906 -4.207031 6.578125 -3.96875 C 6.773438 -3.726562 6.921875 -3.476562 7.015625 -3.21875 C 7.109375 -2.957031 7.15625 -2.675781 7.15625 -2.375 C 7.15625 -1.988281 7.082031 -1.640625 6.9375 -1.328125 C 6.800781 -1.015625 6.597656 -0.75 6.328125 -0.53125 C 6.054688 -0.3125 5.734375 -0.140625 5.359375 -0.015625 C 4.992188 0.109375 4.582031 0.171875 4.125 0.171875 C 3.65625 0.171875 3.210938 0.109375 2.796875 -0.015625 C 2.390625 -0.148438 2.050781 -0.335938 1.78125 -0.578125 Z M 1.421875 0 "/></g></g><g style="fill:#0f338a;fill-opacity:1;"><g transform="translate(55.537847, 18.553745)"><path style="stroke:none" d="M 7.75 -6.09375 C 7.75 -6.539062 7.734375 -6.894531 7.703125 -7.15625 C 7.679688 -7.414062 7.617188 -7.613281 7.515625 -7.75 C 7.421875 -7.894531 7.273438 -7.988281 7.078125 -8.03125 C 6.890625 -8.082031 6.628906 -8.125 6.296875 -8.15625 L 6.296875 -8.828125 L 10.0625 -8.828125 L 10.0625 -3.78125 C 10.0625 -3.101562 10.066406 -2.570312 10.078125 -2.1875 C 10.097656 -1.800781 10.128906 -1.515625 10.171875 -1.328125 C 10.210938 -1.179688 10.253906 -1.066406 10.296875 -0.984375 C 10.335938 -0.898438 10.40625 -0.832031 10.5 -0.78125 C 10.601562 -0.738281 10.738281 -0.707031 10.90625 -0.6875 C 11.082031 -0.675781 11.3125 -0.671875 11.59375 -0.671875 L 11.59375 -0.015625 L 8.28125 0.1875 L 8.09375 -1.296875 L 8.03125 -1.296875 C 7.738281 -0.828125 7.332031 -0.460938 6.8125 -0.203125 C 6.289062 0.046875 5.707031 0.171875 5.0625 0.171875 C 3.875 0.171875 2.96875 -0.25 2.34375 -1.09375 C 1.863281 -1.738281 1.625 -2.65625 1.625 -3.84375 L 1.625 -6.09375 C 1.625 -6.550781 1.613281 -6.910156 1.59375 -7.171875 C 1.570312 -7.429688 1.515625 -7.628906 1.421875 -7.765625 C 1.328125 -7.898438 1.1875 -7.988281 1 -8.03125 C 0.8125 -8.082031 0.550781 -8.125 0.21875 -8.15625 L 0.21875 -8.828125 L 3.953125 -8.828125 L 3.953125 -4.109375 C 3.953125 -2.992188 4.085938 -2.179688 4.359375 -1.671875 C 4.640625 -1.171875 5.085938 -0.921875 5.703125 -0.921875 C 6.347656 -0.921875 6.851562 -1.21875 7.21875 -1.8125 C 7.570312 -2.394531 7.75 -3.242188 7.75 -4.359375 Z M 7.75 -6.09375 "/></g></g><g style="fill:#0f338a;fill-opacity:1;"><g transform="translate(67.344929, 18.553745)"><path style="stroke:none" d="M 4.109375 -2.734375 C 4.109375 -2.285156 4.125 -1.925781 4.15625 -1.65625 C 4.195312 -1.394531 4.265625 -1.191406 4.359375 -1.046875 C 4.460938 -0.898438 4.609375 -0.800781 4.796875 -0.75 C 4.984375 -0.707031 5.238281 -0.679688 5.5625 -0.671875 L 5.5625 0 L 0.3125 0 L 0.3125 -0.671875 C 0.625 -0.679688 0.875 -0.710938 1.0625 -0.765625 C 1.257812 -0.828125 1.410156 -0.925781 1.515625 -1.0625 C 1.628906 -1.207031 1.703125 -1.40625 1.734375 -1.65625 C 1.773438 -1.90625 1.796875 -2.222656 1.796875 -2.609375 L 1.796875 -9.5 C 1.796875 -10.132812 1.785156 -10.660156 1.765625 -11.078125 C 1.742188 -11.492188 1.71875 -11.78125 1.6875 -11.9375 C 1.625 -12.21875 1.492188 -12.398438 1.296875 -12.484375 C 1.109375 -12.578125 0.757812 -12.625 0.25 -12.625 L 0.25 -13.1875 L 4.109375 -13.828125 Z M 4.109375 -2.734375 "/></g></g><g style="fill:#0f338a;fill-opacity:1;"><g transform="translate(73.256799, 18.553745)"><path style="stroke:none" d="M 0.421875 -7.90625 L 0.421875 -8.65625 C 1.085938 -8.84375 1.644531 -9.128906 2.09375 -9.515625 C 2.539062 -9.898438 2.875 -10.34375 3.09375 -10.84375 L 3.953125 -10.84375 L 3.953125 -8.828125 L 5.859375 -8.828125 L 5.859375 -7.90625 L 3.953125 -7.90625 L 3.953125 -2.796875 C 3.953125 -2.109375 4.023438 -1.617188 4.171875 -1.328125 C 4.316406 -1.046875 4.570312 -0.90625 4.9375 -0.90625 C 5.363281 -0.90625 5.6875 -1.101562 5.90625 -1.5 L 6.265625 -1.015625 C 5.953125 -0.222656 5.21875 0.171875 4.0625 0.171875 C 3.300781 0.171875 2.703125 -0.00390625 2.265625 -0.359375 C 1.835938 -0.722656 1.625 -1.222656 1.625 -1.859375 L 1.625 -7.90625 Z M 0.421875 -7.90625 "/></g></g><g style="fill:#0f338a;fill-opacity:1;"><g transform="translate(79.618303, 18.553745)"><path style="stroke:none" d=""/></g></g><g style="fill:#0f338a;fill-opacity:1;"><g transform="translate(84.048038, 18.553745)"><path style="stroke:none" d="M 11.15625 0.171875 L 3.78125 -10.34375 L 3.71875 -10.34375 L 3.71875 -3.1875 C 3.71875 -2.625 3.734375 -2.179688 3.765625 -1.859375 C 3.804688 -1.535156 3.890625 -1.285156 4.015625 -1.109375 C 4.148438 -0.929688 4.328125 -0.816406 4.546875 -0.765625 C 4.773438 -0.710938 5.078125 -0.679688 5.453125 -0.671875 L 5.453125 0 L 0.5 0 L 0.5 -0.671875 C 0.90625 -0.679688 1.234375 -0.710938 1.484375 -0.765625 C 1.734375 -0.828125 1.925781 -0.941406 2.0625 -1.109375 C 2.207031 -1.273438 2.300781 -1.507812 2.34375 -1.8125 C 2.394531 -2.125 2.421875 -2.539062 2.421875 -3.0625 L 2.421875 -9.765625 C 2.421875 -10.222656 2.394531 -10.601562 2.34375 -10.90625 C 2.300781 -11.21875 2.21875 -11.460938 2.09375 -11.640625 C 1.976562 -11.816406 1.804688 -11.941406 1.578125 -12.015625 C 1.347656 -12.085938 1.046875 -12.132812 0.671875 -12.15625 L 0.671875 -12.828125 L 5.3125 -12.828125 L 12.03125 -3.203125 L 12.09375 -3.203125 L 12.09375 -9.640625 C 12.09375 -10.179688 12.070312 -10.613281 12.03125 -10.9375 C 11.988281 -11.269531 11.90625 -11.523438 11.78125 -11.703125 C 11.65625 -11.878906 11.476562 -11.992188 11.25 -12.046875 C 11.019531 -12.109375 10.722656 -12.144531 10.359375 -12.15625 L 10.359375 -12.828125 L 15.3125 -12.828125 L 15.3125 -12.15625 C 14.894531 -12.144531 14.5625 -12.109375 14.3125 -12.046875 C 14.0625 -11.984375 13.867188 -11.867188 13.734375 -11.703125 C 13.597656 -11.535156 13.503906 -11.296875 13.453125 -10.984375 C 13.410156 -10.679688 13.390625 -10.273438 13.390625 -9.765625 L 13.390625 0.171875 Z M 11.15625 0.171875 "/></g></g><g style="fill:#0f338a;fill-opacity:1;"><g transform="translate(99.252232, 18.553745)"><path style="stroke:none" d="M 5.46875 -9 C 6.132812 -9 6.765625 -8.882812 7.359375 -8.65625 C 7.953125 -8.425781 8.472656 -8.109375 8.921875 -7.703125 C 9.367188 -7.304688 9.722656 -6.832031 9.984375 -6.28125 C 10.242188 -5.738281 10.375 -5.140625 10.375 -4.484375 C 10.375 -3.804688 10.242188 -3.179688 9.984375 -2.609375 C 9.722656 -2.046875 9.367188 -1.554688 8.921875 -1.140625 C 8.472656 -0.734375 7.953125 -0.410156 7.359375 -0.171875 C 6.765625 0.0546875 6.132812 0.171875 5.46875 0.171875 C 4.8125 0.171875 4.1875 0.0546875 3.59375 -0.171875 C 3.007812 -0.398438 2.492188 -0.71875 2.046875 -1.125 C 1.597656 -1.539062 1.242188 -2.035156 0.984375 -2.609375 C 0.734375 -3.179688 0.609375 -3.804688 0.609375 -4.484375 C 0.609375 -5.140625 0.734375 -5.742188 0.984375 -6.296875 C 1.242188 -6.847656 1.597656 -7.320312 2.046875 -7.71875 C 2.492188 -8.125 3.007812 -8.4375 3.59375 -8.65625 C 4.1875 -8.882812 4.8125 -9 5.46875 -9 Z M 5.46875 -8.03125 C 5.132812 -8.03125 4.828125 -7.941406 4.546875 -7.765625 C 4.265625 -7.597656 4.023438 -7.359375 3.828125 -7.046875 C 3.640625 -6.734375 3.492188 -6.359375 3.390625 -5.921875 C 3.285156 -5.484375 3.234375 -5 3.234375 -4.46875 C 3.234375 -3.90625 3.285156 -3.398438 3.390625 -2.953125 C 3.492188 -2.515625 3.640625 -2.140625 3.828125 -1.828125 C 4.023438 -1.515625 4.257812 -1.269531 4.53125 -1.09375 C 4.8125 -0.925781 5.125 -0.84375 5.46875 -0.84375 C 5.8125 -0.84375 6.125 -0.925781 6.40625 -1.09375 C 6.6875 -1.269531 6.925781 -1.515625 7.125 -1.828125 C 7.320312 -2.148438 7.476562 -2.53125 7.59375 -2.96875 C 7.707031 -3.414062 7.765625 -3.914062 7.765625 -4.46875 C 7.765625 -5 7.707031 -5.476562 7.59375 -5.90625 C 7.476562 -6.34375 7.320312 -6.71875 7.125 -7.03125 C 6.925781 -7.351562 6.6875 -7.597656 6.40625 -7.765625 C 6.125 -7.941406 5.8125 -8.03125 5.46875 -8.03125 Z M 5.46875 -8.03125 "/></g></g><g style="fill:#0f338a;fill-opacity:1;"><g transform="translate(109.87684, 18.553745)"><path style="stroke:none" d="M 5.21875 0.171875 L 3.96875 0.171875 L 1.6875 -6.671875 C 1.507812 -7.210938 1.300781 -7.585938 1.0625 -7.796875 C 0.832031 -8.015625 0.523438 -8.132812 0.140625 -8.15625 L 0.140625 -8.828125 L 4.890625 -8.828125 L 4.890625 -8.15625 C 4.492188 -8.144531 4.21875 -8.085938 4.0625 -7.984375 C 3.90625 -7.878906 3.828125 -7.695312 3.828125 -7.4375 C 3.828125 -7.320312 3.84375 -7.191406 3.875 -7.046875 C 3.914062 -6.898438 3.960938 -6.734375 4.015625 -6.546875 L 5.0625 -2.640625 L 5.125 -2.640625 L 7.46875 -8.828125 L 8.828125 -8.828125 L 10.578125 -2.640625 L 10.65625 -2.640625 L 12 -6.09375 C 12.101562 -6.375 12.175781 -6.613281 12.21875 -6.8125 C 12.269531 -7.019531 12.296875 -7.203125 12.296875 -7.359375 C 12.296875 -7.648438 12.195312 -7.851562 12 -7.96875 C 11.8125 -8.09375 11.5625 -8.15625 11.25 -8.15625 L 11.25 -8.828125 L 14.828125 -8.828125 L 14.828125 -8.15625 C 14.628906 -8.15625 14.460938 -8.132812 14.328125 -8.09375 C 14.191406 -8.050781 14.054688 -7.945312 13.921875 -7.78125 C 13.785156 -7.613281 13.640625 -7.359375 13.484375 -7.015625 C 13.335938 -6.671875 13.144531 -6.195312 12.90625 -5.59375 L 10.609375 0.171875 L 9.296875 0.171875 L 7.53125 -5.75 L 7.46875 -5.75 Z M 5.21875 0.171875 "/></g></g></g></svg>