<svg xmlns="http://www.w3.org/2000/svg" xmlns:xlink="http://www.w3.org/1999/xlink" width="186" zoomAndPan="magnify" viewBox="0 0 139.5 30.000001" height="40" preserveAspectRatio="xMidYMid meet" version="1.2"><defs><clipPath id="0aea651389"><path d="M 5.703125 2 L 132.71875 2 L 132.71875 26.855469 L 5.703125 26.855469 Z M 5.703125 2 "/></clipPath><clipPath id="b9b4d7deda"><path d="M 5.703125 0 L 132.71875 0 L 132.71875 25 L 5.703125 25 Z M 5.703125 0 "/></clipPath></defs><g id="45ec486f17"><g clip-rule="nonzero" clip-path="url(#0aea651389)"><path style=" stroke:none;fill-rule:nonzero;fill:#1b438c;fill-opacity:1;" d="M 12.550781 2.128906 L 125.867188 2.128906 C 126.316406 2.128906 126.761719 2.171875 127.203125 2.257812 C 127.640625 2.347656 128.070312 2.476562 128.484375 2.648438 C 128.898438 2.820312 129.292969 3.03125 129.667969 3.28125 C 130.042969 3.53125 130.386719 3.8125 130.703125 4.132812 C 131.023438 4.449219 131.304688 4.792969 131.554688 5.167969 C 131.804688 5.542969 132.015625 5.933594 132.1875 6.351562 C 132.359375 6.765625 132.488281 7.191406 132.578125 7.632812 C 132.664062 8.074219 132.707031 8.519531 132.707031 8.96875 L 132.707031 20.300781 C 132.707031 20.75 132.664062 21.195312 132.578125 21.636719 C 132.488281 22.078125 132.359375 22.503906 132.1875 22.917969 C 132.015625 23.335938 131.804688 23.730469 131.554688 24.101562 C 131.304688 24.476562 131.023438 24.820312 130.703125 25.140625 C 130.386719 25.457031 130.042969 25.738281 129.667969 25.988281 C 129.292969 26.238281 128.898438 26.449219 128.484375 26.621094 C 128.070312 26.792969 127.640625 26.921875 127.203125 27.011719 C 126.761719 27.097656 126.316406 27.140625 125.867188 27.140625 L 12.550781 27.140625 C 12.101562 27.140625 11.660156 27.097656 11.21875 27.011719 C 10.777344 26.921875 10.351562 26.792969 9.933594 26.621094 C 9.519531 26.449219 9.125 26.238281 8.753906 25.988281 C 8.378906 25.738281 8.035156 25.457031 7.714844 25.140625 C 7.398438 24.820312 7.113281 24.476562 6.863281 24.101562 C 6.617188 23.730469 6.40625 23.335938 6.234375 22.917969 C 6.0625 22.503906 5.929688 22.078125 5.84375 21.636719 C 5.757812 21.195312 5.710938 20.75 5.710938 20.300781 L 5.710938 8.96875 C 5.710938 8.519531 5.757812 8.074219 5.84375 7.632812 C 5.929688 7.191406 6.0625 6.765625 6.234375 6.351562 C 6.40625 5.933594 6.617188 5.542969 6.863281 5.167969 C 7.113281 4.792969 7.398438 4.449219 7.714844 4.132812 C 8.035156 3.8125 8.378906 3.53125 8.753906 3.28125 C 9.125 3.03125 9.519531 2.820312 9.933594 2.648438 C 10.351562 2.476562 10.777344 2.347656 11.21875 2.257812 C 11.660156 2.171875 12.101562 2.128906 12.550781 2.128906 Z M 12.550781 2.128906 "/></g><g clip-rule="nonzero" clip-path="url(#b9b4d7deda)"><path style=" stroke:none;fill-rule:nonzero;fill:#00a5a7;fill-opacity:1;" d="M 12.550781 -0.167969 L 125.867188 -0.167969 C 126.316406 -0.167969 126.761719 -0.125 127.203125 -0.0390625 C 127.640625 0.0507812 128.070312 0.179688 128.484375 0.351562 C 128.898438 0.523438 129.292969 0.734375 129.667969 0.984375 C 130.042969 1.234375 130.386719 1.515625 130.703125 1.835938 C 131.023438 2.152344 131.304688 2.496094 131.554688 2.871094 C 131.804688 3.246094 132.015625 3.636719 132.1875 4.054688 C 132.359375 4.46875 132.488281 4.894531 132.578125 5.335938 C 132.664062 5.777344 132.707031 6.222656 132.707031 6.671875 L 132.707031 18.003906 C 132.707031 18.453125 132.664062 18.898438 132.578125 19.339844 C 132.488281 19.78125 132.359375 20.207031 132.1875 20.621094 C 132.015625 21.039062 131.804688 21.433594 131.554688 21.804688 C 131.304688 22.179688 131.023438 22.523438 130.703125 22.84375 C 130.386719 23.160156 130.042969 23.441406 129.667969 23.691406 C 129.292969 23.941406 128.898438 24.152344 128.484375 24.324219 C 128.070312 24.496094 127.640625 24.625 127.203125 24.714844 C 126.761719 24.800781 126.316406 24.84375 125.867188 24.84375 L 12.550781 24.84375 C 12.101562 24.84375 11.660156 24.800781 11.21875 24.714844 C 10.777344 24.625 10.351562 24.496094 9.933594 24.324219 C 9.519531 24.152344 9.125 23.941406 8.753906 23.691406 C 8.378906 23.441406 8.035156 23.160156 7.714844 22.84375 C 7.398438 22.523438 7.113281 22.179688 6.863281 21.804688 C 6.617188 21.433594 6.40625 21.039062 6.234375 20.621094 C 6.0625 20.207031 5.929688 19.78125 5.84375 19.339844 C 5.757812 18.898438 5.710938 18.453125 5.710938 18.003906 L 5.710938 6.671875 C 5.710938 6.222656 5.757812 5.777344 5.84375 5.335938 C 5.929688 4.894531 6.0625 4.46875 6.234375 4.054688 C 6.40625 3.636719 6.617188 3.246094 6.863281 2.871094 C 7.113281 2.496094 7.398438 2.152344 7.714844 1.835938 C 8.035156 1.515625 8.378906 1.234375 8.753906 0.984375 C 9.125 0.734375 9.519531 0.523438 9.933594 0.351562 C 10.351562 0.179688 10.777344 0.0507812 11.21875 -0.0390625 C 11.660156 -0.125 12.101562 -0.167969 12.550781 -0.167969 Z M 12.550781 -0.167969 "/></g><g style="fill:#0f338a;fill-opacity:1;"><g transform="translate(20.4669, 19.940845)"><path style="stroke:none" d="M 12.140625 -13.21875 L 12.984375 -13.21875 L 12.640625 -8.875 L 11.953125 -8.875 C 11.710938 -9.925781 11.242188 -10.753906 10.546875 -11.359375 C 9.859375 -11.972656 9.019531 -12.28125 8.03125 -12.28125 C 7.351562 -12.28125 6.75 -12.144531 6.21875 -11.875 C 5.695312 -11.601562 5.253906 -11.21875 4.890625 -10.71875 C 4.535156 -10.226562 4.265625 -9.625 4.078125 -8.90625 C 3.890625 -8.1875 3.796875 -7.378906 3.796875 -6.484375 C 3.796875 -4.710938 4.15625 -3.347656 4.875 -2.390625 C 5.601562 -1.441406 6.679688 -0.96875 8.109375 -0.96875 C 9.253906 -0.96875 10.203125 -1.273438 10.953125 -1.890625 C 11.703125 -2.503906 12.234375 -3.425781 12.546875 -4.65625 L 13.3125 -4.65625 L 13.3125 0 L 12.5 0 L 12.265625 -1.359375 C 11.003906 -0.335938 9.472656 0.171875 7.671875 0.171875 C 6.628906 0.171875 5.6875 0.0195312 4.84375 -0.28125 C 4 -0.59375 3.273438 -1.03125 2.671875 -1.59375 C 2.078125 -2.164062 1.617188 -2.859375 1.296875 -3.671875 C 0.972656 -4.484375 0.8125 -5.390625 0.8125 -6.390625 C 0.8125 -7.429688 0.984375 -8.378906 1.328125 -9.234375 C 1.671875 -10.097656 2.148438 -10.835938 2.765625 -11.453125 C 3.390625 -12.066406 4.132812 -12.539062 5 -12.875 C 5.863281 -13.21875 6.820312 -13.390625 7.875 -13.390625 C 8.570312 -13.390625 9.222656 -13.289062 9.828125 -13.09375 C 10.441406 -12.90625 11.101562 -12.59375 11.8125 -12.15625 Z M 12.140625 -13.21875 "/></g></g><g style="fill:#0f338a;fill-opacity:1;"><g transform="translate(34.597766, 19.940845)"><path style="stroke:none" d="M 5.625 -9.265625 C 6.3125 -9.265625 6.960938 -9.144531 7.578125 -8.90625 C 8.191406 -8.675781 8.726562 -8.351562 9.1875 -7.9375 C 9.65625 -7.53125 10.023438 -7.039062 10.296875 -6.46875 C 10.566406 -5.90625 10.703125 -5.289062 10.703125 -4.625 C 10.703125 -3.925781 10.566406 -3.28125 10.296875 -2.6875 C 10.023438 -2.101562 9.65625 -1.597656 9.1875 -1.171875 C 8.726562 -0.753906 8.191406 -0.425781 7.578125 -0.1875 C 6.960938 0.0507812 6.3125 0.171875 5.625 0.171875 C 4.957031 0.171875 4.316406 0.0546875 3.703125 -0.171875 C 3.097656 -0.410156 2.566406 -0.738281 2.109375 -1.15625 C 1.648438 -1.582031 1.289062 -2.09375 1.03125 -2.6875 C 0.769531 -3.28125 0.640625 -3.925781 0.640625 -4.625 C 0.640625 -5.289062 0.769531 -5.910156 1.03125 -6.484375 C 1.289062 -7.054688 1.648438 -7.546875 2.109375 -7.953125 C 2.566406 -8.367188 3.097656 -8.691406 3.703125 -8.921875 C 4.316406 -9.148438 4.957031 -9.265625 5.625 -9.265625 Z M 5.625 -8.28125 C 5.289062 -8.28125 4.976562 -8.191406 4.6875 -8.015625 C 4.40625 -7.835938 4.160156 -7.585938 3.953125 -7.265625 C 3.753906 -6.941406 3.597656 -6.550781 3.484375 -6.09375 C 3.378906 -5.644531 3.328125 -5.148438 3.328125 -4.609375 C 3.328125 -4.035156 3.378906 -3.519531 3.484375 -3.0625 C 3.597656 -2.601562 3.753906 -2.210938 3.953125 -1.890625 C 4.160156 -1.566406 4.398438 -1.316406 4.671875 -1.140625 C 4.953125 -0.960938 5.269531 -0.875 5.625 -0.875 C 5.988281 -0.875 6.316406 -0.960938 6.609375 -1.140625 C 6.898438 -1.316406 7.144531 -1.566406 7.34375 -1.890625 C 7.550781 -2.222656 7.710938 -2.617188 7.828125 -3.078125 C 7.941406 -3.535156 8 -4.046875 8 -4.609375 C 8 -5.148438 7.941406 -5.644531 7.828125 -6.09375 C 7.710938 -6.539062 7.550781 -6.925781 7.34375 -7.25 C 7.144531 -7.582031 6.898438 -7.835938 6.609375 -8.015625 C 6.316406 -8.191406 5.988281 -8.28125 5.625 -8.28125 Z M 5.625 -8.28125 "/></g></g><g style="fill:#0f338a;fill-opacity:1;"><g transform="translate(45.929931, 19.940845)"><path style="stroke:none" d="M 4.40625 -2.796875 C 4.40625 -2.328125 4.421875 -1.957031 4.453125 -1.6875 C 4.484375 -1.414062 4.546875 -1.207031 4.640625 -1.0625 C 4.742188 -0.925781 4.894531 -0.832031 5.09375 -0.78125 C 5.289062 -0.738281 5.5625 -0.707031 5.90625 -0.6875 L 5.90625 0 L 0.5 0 L 0.5 -0.6875 C 0.832031 -0.707031 1.097656 -0.738281 1.296875 -0.78125 C 1.492188 -0.832031 1.644531 -0.925781 1.75 -1.0625 C 1.863281 -1.195312 1.9375 -1.390625 1.96875 -1.640625 C 2.007812 -1.898438 2.03125 -2.242188 2.03125 -2.671875 L 2.03125 -4.828125 C 2.03125 -5.503906 2.015625 -6.050781 1.984375 -6.46875 C 1.960938 -6.882812 1.9375 -7.164062 1.90625 -7.3125 C 1.875 -7.457031 1.828125 -7.578125 1.765625 -7.671875 C 1.710938 -7.773438 1.628906 -7.851562 1.515625 -7.90625 C 1.398438 -7.957031 1.253906 -7.988281 1.078125 -8 C 0.910156 -8.019531 0.691406 -8.03125 0.421875 -8.03125 L 0.421875 -8.625 L 3.75 -9.265625 L 3.96875 -7.765625 L 4.03125 -7.765625 C 4.414062 -8.242188 4.863281 -8.613281 5.375 -8.875 C 5.882812 -9.132812 6.453125 -9.265625 7.078125 -9.265625 C 7.804688 -9.265625 8.394531 -9.164062 8.84375 -8.96875 C 9.300781 -8.769531 9.707031 -8.4375 10.0625 -7.96875 C 10.257812 -7.707031 10.429688 -7.363281 10.578125 -6.9375 C 10.722656 -6.519531 10.796875 -5.945312 10.796875 -5.21875 L 10.796875 -2.796875 C 10.796875 -2.328125 10.8125 -1.957031 10.84375 -1.6875 C 10.875 -1.414062 10.9375 -1.207031 11.03125 -1.0625 C 11.125 -0.925781 11.269531 -0.832031 11.46875 -0.78125 C 11.664062 -0.738281 11.929688 -0.707031 12.265625 -0.6875 L 12.265625 0 L 6.890625 0 L 6.890625 -0.6875 C 7.234375 -0.695312 7.503906 -0.726562 7.703125 -0.78125 C 7.898438 -0.832031 8.050781 -0.925781 8.15625 -1.0625 C 8.257812 -1.195312 8.328125 -1.394531 8.359375 -1.65625 C 8.398438 -1.914062 8.421875 -2.253906 8.421875 -2.671875 L 8.421875 -5.015625 C 8.421875 -5.597656 8.382812 -6.085938 8.3125 -6.484375 C 8.238281 -6.890625 8.125 -7.210938 7.96875 -7.453125 C 7.820312 -7.703125 7.617188 -7.878906 7.359375 -7.984375 C 7.109375 -8.097656 6.796875 -8.15625 6.421875 -8.15625 C 6.054688 -8.15625 5.738281 -8.050781 5.46875 -7.84375 C 5.207031 -7.632812 4.984375 -7.347656 4.796875 -6.984375 C 4.691406 -6.785156 4.597656 -6.519531 4.515625 -6.1875 C 4.441406 -5.863281 4.40625 -5.523438 4.40625 -5.171875 Z M 4.40625 -2.796875 "/></g></g><g style="fill:#0f338a;fill-opacity:1;"><g transform="translate(58.412481, 19.940845)"><path style="stroke:none" d="M 0.421875 -8.15625 L 0.421875 -8.921875 C 1.109375 -9.117188 1.679688 -9.414062 2.140625 -9.8125 C 2.609375 -10.207031 2.957031 -10.660156 3.1875 -11.171875 L 4.0625 -11.171875 L 4.0625 -9.09375 L 6.046875 -9.09375 L 6.046875 -8.15625 L 4.0625 -8.15625 L 4.0625 -2.890625 C 4.0625 -2.171875 4.140625 -1.660156 4.296875 -1.359375 C 4.453125 -1.066406 4.710938 -0.921875 5.078125 -0.921875 C 5.523438 -0.921875 5.863281 -1.128906 6.09375 -1.546875 L 6.453125 -1.046875 C 6.128906 -0.234375 5.375 0.171875 4.1875 0.171875 C 3.394531 0.171875 2.78125 -0.0078125 2.34375 -0.375 C 1.90625 -0.738281 1.6875 -1.253906 1.6875 -1.921875 L 1.6875 -8.15625 Z M 0.421875 -8.15625 "/></g></g><g style="fill:#0f338a;fill-opacity:1;"><g transform="translate(64.971396, 19.940845)"><path style="stroke:none" d="M 5.90625 -4.890625 C 4.945312 -4.453125 4.222656 -4.046875 3.734375 -3.671875 C 3.242188 -3.304688 3 -2.925781 3 -2.53125 C 3 -2.195312 3.085938 -1.929688 3.265625 -1.734375 C 3.453125 -1.535156 3.6875 -1.4375 3.96875 -1.4375 C 4.238281 -1.4375 4.492188 -1.484375 4.734375 -1.578125 C 4.972656 -1.679688 5.175781 -1.8125 5.34375 -1.96875 C 5.519531 -2.132812 5.65625 -2.328125 5.75 -2.546875 C 5.851562 -2.773438 5.90625 -3.015625 5.90625 -3.265625 Z M 5.90625 -5.796875 L 5.90625 -6.53125 C 5.90625 -7.1875 5.785156 -7.664062 5.546875 -7.96875 C 5.316406 -8.28125 4.957031 -8.4375 4.46875 -8.4375 C 4.132812 -8.4375 3.878906 -8.347656 3.703125 -8.171875 C 3.535156 -7.992188 3.378906 -7.695312 3.234375 -7.28125 C 3.128906 -7 2.976562 -6.773438 2.78125 -6.609375 C 2.59375 -6.453125 2.335938 -6.375 2.015625 -6.375 C 1.691406 -6.375 1.441406 -6.46875 1.265625 -6.65625 C 1.097656 -6.851562 1.015625 -7.128906 1.015625 -7.484375 C 1.015625 -8.035156 1.3125 -8.46875 1.90625 -8.78125 C 2.507812 -9.101562 3.421875 -9.265625 4.640625 -9.265625 C 5.921875 -9.265625 6.832031 -9.03125 7.375 -8.5625 C 7.925781 -8.101562 8.203125 -7.332031 8.203125 -6.25 L 8.203125 -2.484375 C 8.203125 -1.515625 8.398438 -1.03125 8.796875 -1.03125 C 9.015625 -1.03125 9.210938 -1.101562 9.390625 -1.25 L 9.65625 -0.75 C 9.488281 -0.46875 9.234375 -0.242188 8.890625 -0.078125 C 8.554688 0.0859375 8.179688 0.171875 7.765625 0.171875 C 7.234375 0.171875 6.828125 0.0078125 6.546875 -0.3125 C 6.273438 -0.632812 6.140625 -1.085938 6.140625 -1.671875 L 6.0625 -1.671875 C 5.726562 -1.066406 5.296875 -0.609375 4.765625 -0.296875 C 4.242188 0.00390625 3.644531 0.15625 2.96875 0.15625 C 2.25 0.15625 1.671875 -0.046875 1.234375 -0.453125 C 0.796875 -0.859375 0.578125 -1.390625 0.578125 -2.046875 C 0.578125 -2.546875 0.800781 -3.015625 1.25 -3.453125 C 1.695312 -3.898438 2.441406 -4.332031 3.484375 -4.75 Z M 5.90625 -5.796875 "/></g></g><g style="fill:#0f338a;fill-opacity:1;"><g transform="translate(74.826941, 19.940845)"><path style="stroke:none" d="M 9.0625 -1.421875 C 8.632812 -0.941406 8.09375 -0.570312 7.4375 -0.3125 C 6.789062 -0.0507812 6.09375 0.078125 5.34375 0.078125 C 4.644531 0.078125 4.007812 -0.03125 3.4375 -0.25 C 2.863281 -0.46875 2.367188 -0.773438 1.953125 -1.171875 C 1.546875 -1.578125 1.226562 -2.0625 1 -2.625 C 0.78125 -3.195312 0.671875 -3.828125 0.671875 -4.515625 C 0.671875 -5.222656 0.789062 -5.867188 1.03125 -6.453125 C 1.269531 -7.035156 1.609375 -7.535156 2.046875 -7.953125 C 2.484375 -8.367188 3.003906 -8.691406 3.609375 -8.921875 C 4.210938 -9.148438 4.878906 -9.265625 5.609375 -9.265625 C 6.128906 -9.265625 6.609375 -9.210938 7.046875 -9.109375 C 7.484375 -9.015625 7.859375 -8.875 8.171875 -8.6875 C 8.492188 -8.507812 8.742188 -8.296875 8.921875 -8.046875 C 9.109375 -7.796875 9.203125 -7.53125 9.203125 -7.25 C 9.203125 -6.914062 9.109375 -6.648438 8.921875 -6.453125 C 8.734375 -6.265625 8.476562 -6.171875 8.15625 -6.171875 C 7.894531 -6.171875 7.660156 -6.238281 7.453125 -6.375 C 7.253906 -6.507812 7.0625 -6.734375 6.875 -7.046875 C 6.695312 -7.316406 6.546875 -7.53125 6.421875 -7.6875 C 6.304688 -7.851562 6.195312 -7.976562 6.09375 -8.0625 C 5.988281 -8.144531 5.882812 -8.203125 5.78125 -8.234375 C 5.675781 -8.265625 5.550781 -8.28125 5.40625 -8.28125 C 4.738281 -8.28125 4.222656 -7.96875 3.859375 -7.34375 C 3.492188 -6.726562 3.3125 -5.863281 3.3125 -4.75 C 3.3125 -3.5625 3.53125 -2.644531 3.96875 -2 C 4.414062 -1.363281 5.050781 -1.046875 5.875 -1.046875 C 6.34375 -1.046875 6.8125 -1.132812 7.28125 -1.3125 C 7.75 -1.488281 8.195312 -1.742188 8.625 -2.078125 Z M 9.0625 -1.421875 "/></g></g><g style="fill:#0f338a;fill-opacity:1;"><g transform="translate(84.510791, 19.940845)"><path style="stroke:none" d="M 0.421875 -8.15625 L 0.421875 -8.921875 C 1.109375 -9.117188 1.679688 -9.414062 2.140625 -9.8125 C 2.609375 -10.207031 2.957031 -10.660156 3.1875 -11.171875 L 4.0625 -11.171875 L 4.0625 -9.09375 L 6.046875 -9.09375 L 6.046875 -8.15625 L 4.0625 -8.15625 L 4.0625 -2.890625 C 4.0625 -2.171875 4.140625 -1.660156 4.296875 -1.359375 C 4.453125 -1.066406 4.710938 -0.921875 5.078125 -0.921875 C 5.523438 -0.921875 5.863281 -1.128906 6.09375 -1.546875 L 6.453125 -1.046875 C 6.128906 -0.234375 5.375 0.171875 4.1875 0.171875 C 3.394531 0.171875 2.78125 -0.0078125 2.34375 -0.375 C 1.90625 -0.738281 1.6875 -1.253906 1.6875 -1.921875 L 1.6875 -8.15625 Z M 0.421875 -8.15625 "/></g></g><g style="fill:#0f338a;fill-opacity:1;"><g transform="translate(91.069707, 19.940845)"><path style="stroke:none" d=""/></g></g><g style="fill:#0f338a;fill-opacity:1;"><g transform="translate(95.636907, 19.940845)"><path style="stroke:none" d="M 13 -5.328125 C 13 -4.347656 12.890625 -3.507812 12.671875 -2.8125 C 12.460938 -2.125 12.132812 -1.554688 11.6875 -1.109375 C 11.25 -0.671875 10.675781 -0.347656 9.96875 -0.140625 C 9.257812 0.0664062 8.414062 0.171875 7.4375 0.171875 C 5.59375 0.171875 4.242188 -0.210938 3.390625 -0.984375 C 2.535156 -1.753906 2.109375 -2.988281 2.109375 -4.6875 L 2.109375 -9.390625 C 2.109375 -9.835938 2.101562 -10.210938 2.09375 -10.515625 C 2.082031 -10.816406 2.066406 -11.070312 2.046875 -11.28125 C 2.023438 -11.488281 1.992188 -11.65625 1.953125 -11.78125 C 1.910156 -11.914062 1.859375 -12.03125 1.796875 -12.125 C 1.703125 -12.28125 1.554688 -12.382812 1.359375 -12.4375 C 1.160156 -12.5 0.863281 -12.53125 0.46875 -12.53125 L 0.46875 -13.21875 L 6.625 -13.21875 L 6.625 -12.53125 C 6.144531 -12.53125 5.789062 -12.503906 5.5625 -12.453125 C 5.332031 -12.398438 5.15625 -12.300781 5.03125 -12.15625 C 4.945312 -12.0625 4.878906 -11.945312 4.828125 -11.8125 C 4.773438 -11.6875 4.734375 -11.515625 4.703125 -11.296875 C 4.679688 -11.085938 4.664062 -10.828125 4.65625 -10.515625 C 4.644531 -10.210938 4.640625 -9.835938 4.640625 -9.390625 L 4.640625 -4.890625 C 4.640625 -3.585938 4.914062 -2.625 5.46875 -2 C 6.019531 -1.375 6.875 -1.0625 8.03125 -1.0625 C 10.394531 -1.0625 11.578125 -2.375 11.578125 -5 L 11.578125 -8.96875 C 11.578125 -9.445312 11.566406 -9.859375 11.546875 -10.203125 C 11.523438 -10.546875 11.492188 -10.835938 11.453125 -11.078125 C 11.421875 -11.316406 11.375 -11.515625 11.3125 -11.671875 C 11.25 -11.835938 11.171875 -11.972656 11.078125 -12.078125 C 10.910156 -12.234375 10.703125 -12.347656 10.453125 -12.421875 C 10.203125 -12.492188 9.851562 -12.53125 9.40625 -12.53125 L 9.40625 -13.21875 L 14.96875 -13.21875 L 14.96875 -12.53125 C 14.550781 -12.53125 14.226562 -12.5 14 -12.4375 C 13.769531 -12.375 13.59375 -12.265625 13.46875 -12.109375 C 13.375 -12.003906 13.296875 -11.867188 13.234375 -11.703125 C 13.179688 -11.535156 13.132812 -11.328125 13.09375 -11.078125 C 13.0625 -10.835938 13.035156 -10.546875 13.015625 -10.203125 C 13.003906 -9.859375 13 -9.445312 13 -8.96875 Z M 13 -5.328125 "/></g></g><g style="fill:#0f338a;fill-opacity:1;"><g transform="translate(110.265635, 19.940845)"><path style="stroke:none" d="M 1.453125 0 L 0.921875 0 L 0.921875 -3.125 L 1.65625 -3.125 C 1.84375 -2.300781 2.117188 -1.695312 2.484375 -1.3125 C 2.859375 -0.9375 3.335938 -0.75 3.921875 -0.75 C 4.335938 -0.75 4.660156 -0.835938 4.890625 -1.015625 C 5.128906 -1.191406 5.25 -1.4375 5.25 -1.75 C 5.25 -2.070312 5.101562 -2.382812 4.8125 -2.6875 C 4.53125 -2.988281 4.070312 -3.3125 3.4375 -3.65625 C 2.5625 -4.125 1.9375 -4.585938 1.5625 -5.046875 C 1.1875 -5.515625 1 -6.039062 1 -6.625 C 1 -7 1.066406 -7.347656 1.203125 -7.671875 C 1.347656 -8.003906 1.539062 -8.289062 1.78125 -8.53125 C 2.03125 -8.769531 2.328125 -8.957031 2.671875 -9.09375 C 3.015625 -9.226562 3.390625 -9.296875 3.796875 -9.296875 C 4.148438 -9.296875 4.5 -9.242188 4.84375 -9.140625 C 5.195312 -9.035156 5.503906 -8.890625 5.765625 -8.703125 L 6.078125 -9.125 L 6.53125 -9.125 L 6.53125 -6.53125 L 5.859375 -6.53125 C 5.585938 -7.175781 5.3125 -7.640625 5.03125 -7.921875 C 4.757812 -8.210938 4.421875 -8.359375 4.015625 -8.359375 C 3.691406 -8.359375 3.4375 -8.269531 3.25 -8.09375 C 3.0625 -7.925781 2.96875 -7.703125 2.96875 -7.421875 C 2.96875 -7.097656 3.109375 -6.789062 3.390625 -6.5 C 3.671875 -6.21875 4.140625 -5.90625 4.796875 -5.5625 C 5.253906 -5.3125 5.644531 -5.066406 5.96875 -4.828125 C 6.300781 -4.585938 6.570312 -4.34375 6.78125 -4.09375 C 6.988281 -3.84375 7.140625 -3.582031 7.234375 -3.3125 C 7.335938 -3.050781 7.390625 -2.765625 7.390625 -2.453125 C 7.390625 -2.054688 7.3125 -1.695312 7.15625 -1.375 C 7.007812 -1.050781 6.796875 -0.773438 6.515625 -0.546875 C 6.242188 -0.316406 5.914062 -0.140625 5.53125 -0.015625 C 5.15625 0.109375 4.734375 0.171875 4.265625 0.171875 C 3.765625 0.171875 3.300781 0.109375 2.875 -0.015625 C 2.457031 -0.148438 2.113281 -0.34375 1.84375 -0.59375 Z M 1.453125 0 "/></g></g></g></svg>