<svg xmlns="http://www.w3.org/2000/svg" xmlns:xlink="http://www.w3.org/1999/xlink" width="171" zoomAndPan="magnify" viewBox="0 0 128.25 33.749998" height="45" preserveAspectRatio="xMidYMid meet" version="1.2"><defs><clipPath id="269037c422"><path d="M 0.109375 0 L 126.851562 0 L 126.851562 32.757812 L 0.109375 32.757812 Z M 0.109375 0 "/></clipPath><clipPath id="7d668fa23c"><path d="M 11.226562 0 L 115.589844 0 C 121.726562 0 126.707031 4.976562 126.707031 11.117188 L 126.707031 21.640625 C 126.707031 27.78125 121.726562 32.757812 115.589844 32.757812 L 11.226562 32.757812 C 5.085938 32.757812 0.109375 27.78125 0.109375 21.640625 L 0.109375 11.117188 C 0.109375 4.976562 5.085938 0 11.226562 0 Z M 11.226562 0 "/></clipPath><linearGradient x1="28.466999" gradientTransform="matrix(2.999428,0,0,2.999428,0.000000000452137,0.000000000000073512)" y1="0.000000446423" x2="28.466999" gradientUnits="userSpaceOnUse" y2="14.731975" id="7bf935c513"><stop style="stop-color:#00a2a5;stop-opacity:1;" offset="0"/><stop style="stop-color:#01a2a5;stop-opacity:1;" offset="0.00390625"/><stop style="stop-color:#02a3a6;stop-opacity:1;" offset="0.0078125"/><stop style="stop-color:#03a3a6;stop-opacity:1;" offset="0.0117187"/><stop style="stop-color:#04a3a6;stop-opacity:1;" offset="0.015625"/><stop style="stop-color:#05a4a7;stop-opacity:1;" offset="0.0195312"/><stop style="stop-color:#06a4a7;stop-opacity:1;" offset="0.0234375"/><stop style="stop-color:#07a4a7;stop-opacity:1;" offset="0.0273438"/><stop style="stop-color:#08a5a8;stop-opacity:1;" offset="0.03125"/><stop style="stop-color:#09a5a8;stop-opacity:1;" offset="0.0351562"/><stop style="stop-color:#0aa6a8;stop-opacity:1;" offset="0.0390625"/><stop style="stop-color:#0ba6a9;stop-opacity:1;" offset="0.0429688"/><stop style="stop-color:#0ca6a9;stop-opacity:1;" offset="0.046875"/><stop style="stop-color:#0da7aa;stop-opacity:1;" offset="0.0507813"/><stop style="stop-color:#0ea7aa;stop-opacity:1;" offset="0.0546875"/><stop style="stop-color:#0fa7aa;stop-opacity:1;" offset="0.0585938"/><stop style="stop-color:#10a8ab;stop-opacity:1;" offset="0.0625"/><stop style="stop-color:#11a8ab;stop-opacity:1;" offset="0.0664062"/><stop style="stop-color:#12a8ab;stop-opacity:1;" offset="0.0703125"/><stop style="stop-color:#13a9ac;stop-opacity:1;" offset="0.0742187"/><stop style="stop-color:#14a9ac;stop-opacity:1;" offset="0.078125"/><stop style="stop-color:#15aaac;stop-opacity:1;" offset="0.0820312"/><stop style="stop-color:#16aaad;stop-opacity:1;" offset="0.0859375"/><stop style="stop-color:#17aaad;stop-opacity:1;" offset="0.0898437"/><stop style="stop-color:#18abad;stop-opacity:1;" offset="0.09375"/><stop style="stop-color:#19abae;stop-opacity:1;" offset="0.0976562"/><stop style="stop-color:#1aabae;stop-opacity:1;" offset="0.101562"/><stop style="stop-color:#1bacae;stop-opacity:1;" offset="0.105469"/><stop style="stop-color:#1cacaf;stop-opacity:1;" offset="0.109375"/><stop style="stop-color:#1dacaf;stop-opacity:1;" offset="0.113281"/><stop style="stop-color:#1eadb0;stop-opacity:1;" offset="0.117187"/><stop style="stop-color:#1fadb0;stop-opacity:1;" offset="0.121094"/><stop style="stop-color:#20aeb0;stop-opacity:1;" offset="0.125"/><stop style="stop-color:#21aeb1;stop-opacity:1;" offset="0.128906"/><stop style="stop-color:#22aeb1;stop-opacity:1;" offset="0.132812"/><stop style="stop-color:#23afb1;stop-opacity:1;" offset="0.136719"/><stop style="stop-color:#24afb2;stop-opacity:1;" offset="0.140625"/><stop style="stop-color:#25afb2;stop-opacity:1;" offset="0.144531"/><stop style="stop-color:#26b0b2;stop-opacity:1;" offset="0.148437"/><stop style="stop-color:#27b0b3;stop-opacity:1;" offset="0.152344"/><stop style="stop-color:#28b0b3;stop-opacity:1;" offset="0.15625"/><stop style="stop-color:#29b1b3;stop-opacity:1;" offset="0.160156"/><stop style="stop-color:#2ab1b4;stop-opacity:1;" offset="0.164062"/><stop style="stop-color:#2bb2b4;stop-opacity:1;" offset="0.167969"/><stop style="stop-color:#2cb2b4;stop-opacity:1;" offset="0.171875"/><stop style="stop-color:#2db2b5;stop-opacity:1;" offset="0.175781"/><stop style="stop-color:#2eb3b5;stop-opacity:1;" offset="0.179687"/><stop style="stop-color:#2fb3b6;stop-opacity:1;" offset="0.183594"/><stop style="stop-color:#30b3b6;stop-opacity:1;" offset="0.1875"/><stop style="stop-color:#31b4b6;stop-opacity:1;" offset="0.191406"/><stop style="stop-color:#32b4b7;stop-opacity:1;" offset="0.195312"/><stop style="stop-color:#33b4b7;stop-opacity:1;" offset="0.199219"/><stop style="stop-color:#34b5b7;stop-opacity:1;" offset="0.203125"/><stop style="stop-color:#35b5b8;stop-opacity:1;" offset="0.207031"/><stop style="stop-color:#36b6b8;stop-opacity:1;" offset="0.210937"/><stop style="stop-color:#37b6b8;stop-opacity:1;" offset="0.214844"/><stop style="stop-color:#38b6b9;stop-opacity:1;" offset="0.21875"/><stop style="stop-color:#39b7b9;stop-opacity:1;" offset="0.222656"/><stop style="stop-color:#3ab7b9;stop-opacity:1;" offset="0.226562"/><stop style="stop-color:#3bb7ba;stop-opacity:1;" offset="0.230469"/><stop style="stop-color:#3cb8ba;stop-opacity:1;" offset="0.234375"/><stop style="stop-color:#3db8ba;stop-opacity:1;" offset="0.238281"/><stop style="stop-color:#3eb8bb;stop-opacity:1;" offset="0.242187"/><stop style="stop-color:#3fb9bb;stop-opacity:1;" offset="0.246094"/><stop style="stop-color:#40b9bb;stop-opacity:1;" offset="0.25"/><stop style="stop-color:#41babc;stop-opacity:1;" offset="0.253906"/><stop style="stop-color:#42babc;stop-opacity:1;" offset="0.257812"/><stop style="stop-color:#43babd;stop-opacity:1;" offset="0.261719"/><stop style="stop-color:#44bbbd;stop-opacity:1;" offset="0.265625"/><stop style="stop-color:#45bbbd;stop-opacity:1;" offset="0.269531"/><stop style="stop-color:#46bbbe;stop-opacity:1;" offset="0.273437"/><stop style="stop-color:#47bcbe;stop-opacity:1;" offset="0.277344"/><stop style="stop-color:#48bcbe;stop-opacity:1;" offset="0.28125"/><stop style="stop-color:#49bcbf;stop-opacity:1;" offset="0.285156"/><stop style="stop-color:#4abdbf;stop-opacity:1;" offset="0.289062"/><stop style="stop-color:#4bbdbf;stop-opacity:1;" offset="0.292969"/><stop style="stop-color:#4cbec0;stop-opacity:1;" offset="0.296875"/><stop style="stop-color:#4dbec0;stop-opacity:1;" offset="0.300781"/><stop style="stop-color:#4ebec0;stop-opacity:1;" offset="0.304688"/><stop style="stop-color:#4fbfc1;stop-opacity:1;" offset="0.308594"/><stop style="stop-color:#50bfc1;stop-opacity:1;" offset="0.3125"/><stop style="stop-color:#51bfc1;stop-opacity:1;" offset="0.316406"/><stop style="stop-color:#52c0c2;stop-opacity:1;" offset="0.320312"/><stop style="stop-color:#53c0c2;stop-opacity:1;" offset="0.324219"/><stop style="stop-color:#54c0c3;stop-opacity:1;" offset="0.328125"/><stop style="stop-color:#55c1c3;stop-opacity:1;" offset="0.332031"/><stop style="stop-color:#56c1c3;stop-opacity:1;" offset="0.335937"/><stop style="stop-color:#57c2c4;stop-opacity:1;" offset="0.339844"/><stop style="stop-color:#58c2c4;stop-opacity:1;" offset="0.34375"/><stop style="stop-color:#59c2c4;stop-opacity:1;" offset="0.347656"/><stop style="stop-color:#5ac3c5;stop-opacity:1;" offset="0.351562"/><stop style="stop-color:#5bc3c5;stop-opacity:1;" offset="0.355469"/><stop style="stop-color:#5cc3c5;stop-opacity:1;" offset="0.359375"/><stop style="stop-color:#5dc4c6;stop-opacity:1;" offset="0.363281"/><stop style="stop-color:#5ec4c6;stop-opacity:1;" offset="0.367188"/><stop style="stop-color:#5fc4c6;stop-opacity:1;" offset="0.371094"/><stop style="stop-color:#60c5c7;stop-opacity:1;" offset="0.375"/><stop style="stop-color:#61c5c7;stop-opacity:1;" offset="0.378906"/><stop style="stop-color:#62c6c7;stop-opacity:1;" offset="0.382812"/><stop style="stop-color:#63c6c8;stop-opacity:1;" offset="0.386719"/><stop style="stop-color:#64c6c8;stop-opacity:1;" offset="0.390625"/><stop style="stop-color:#65c7c8;stop-opacity:1;" offset="0.394531"/><stop style="stop-color:#66c7c9;stop-opacity:1;" offset="0.398437"/><stop style="stop-color:#67c7c9;stop-opacity:1;" offset="0.402344"/><stop style="stop-color:#68c8ca;stop-opacity:1;" offset="0.40625"/><stop style="stop-color:#69c8ca;stop-opacity:1;" offset="0.410156"/><stop style="stop-color:#6ac8ca;stop-opacity:1;" offset="0.414062"/><stop style="stop-color:#6bc9cb;stop-opacity:1;" offset="0.417969"/><stop style="stop-color:#6cc9cb;stop-opacity:1;" offset="0.421875"/><stop style="stop-color:#6dcacb;stop-opacity:1;" offset="0.425781"/><stop style="stop-color:#6ecacc;stop-opacity:1;" offset="0.429687"/><stop style="stop-color:#6fcacc;stop-opacity:1;" offset="0.433594"/><stop style="stop-color:#70cbcc;stop-opacity:1;" offset="0.4375"/><stop style="stop-color:#71cbcd;stop-opacity:1;" offset="0.441406"/><stop style="stop-color:#72cbcd;stop-opacity:1;" offset="0.445312"/><stop style="stop-color:#73cccd;stop-opacity:1;" offset="0.449219"/><stop style="stop-color:#74ccce;stop-opacity:1;" offset="0.453125"/><stop style="stop-color:#75ccce;stop-opacity:1;" offset="0.457031"/><stop style="stop-color:#76cdce;stop-opacity:1;" offset="0.460938"/><stop style="stop-color:#77cdcf;stop-opacity:1;" offset="0.464844"/><stop style="stop-color:#78cecf;stop-opacity:1;" offset="0.46875"/><stop style="stop-color:#79ced0;stop-opacity:1;" offset="0.472656"/><stop style="stop-color:#7aced0;stop-opacity:1;" offset="0.476562"/><stop style="stop-color:#7bcfd0;stop-opacity:1;" offset="0.480469"/><stop style="stop-color:#7ccfd1;stop-opacity:1;" offset="0.484375"/><stop style="stop-color:#7dcfd1;stop-opacity:1;" offset="0.488281"/><stop style="stop-color:#7ed0d1;stop-opacity:1;" offset="0.492187"/><stop style="stop-color:#7fd0d2;stop-opacity:1;" offset="0.496094"/><stop style="stop-color:#7fd0d2;stop-opacity:1;" offset="0.5"/><stop style="stop-color:#80d1d2;stop-opacity:1;" offset="0.503906"/><stop style="stop-color:#81d1d3;stop-opacity:1;" offset="0.507812"/><stop style="stop-color:#82d2d3;stop-opacity:1;" offset="0.511719"/><stop style="stop-color:#83d2d3;stop-opacity:1;" offset="0.515625"/><stop style="stop-color:#84d2d4;stop-opacity:1;" offset="0.519531"/><stop style="stop-color:#85d3d4;stop-opacity:1;" offset="0.523438"/><stop style="stop-color:#86d3d4;stop-opacity:1;" offset="0.527344"/><stop style="stop-color:#87d3d5;stop-opacity:1;" offset="0.53125"/><stop style="stop-color:#88d4d5;stop-opacity:1;" offset="0.535156"/><stop style="stop-color:#89d4d6;stop-opacity:1;" offset="0.539063"/><stop style="stop-color:#8ad4d6;stop-opacity:1;" offset="0.542969"/><stop style="stop-color:#8bd5d6;stop-opacity:1;" offset="0.546875"/><stop style="stop-color:#8cd5d7;stop-opacity:1;" offset="0.550781"/><stop style="stop-color:#8dd6d7;stop-opacity:1;" offset="0.554688"/><stop style="stop-color:#8ed6d7;stop-opacity:1;" offset="0.558594"/><stop style="stop-color:#8fd6d8;stop-opacity:1;" offset="0.5625"/><stop style="stop-color:#90d7d8;stop-opacity:1;" offset="0.566406"/><stop style="stop-color:#91d7d8;stop-opacity:1;" offset="0.570312"/><stop style="stop-color:#92d7d9;stop-opacity:1;" offset="0.574219"/><stop style="stop-color:#93d8d9;stop-opacity:1;" offset="0.578125"/><stop style="stop-color:#94d8d9;stop-opacity:1;" offset="0.582031"/><stop style="stop-color:#95d8da;stop-opacity:1;" offset="0.585938"/><stop style="stop-color:#96d9da;stop-opacity:1;" offset="0.589844"/><stop style="stop-color:#97d9da;stop-opacity:1;" offset="0.59375"/><stop style="stop-color:#98dadb;stop-opacity:1;" offset="0.597656"/><stop style="stop-color:#99dadb;stop-opacity:1;" offset="0.601562"/><stop style="stop-color:#9adadb;stop-opacity:1;" offset="0.605469"/><stop style="stop-color:#9bdbdc;stop-opacity:1;" offset="0.609375"/><stop style="stop-color:#9cdbdc;stop-opacity:1;" offset="0.613281"/><stop style="stop-color:#9ddbdd;stop-opacity:1;" offset="0.617188"/><stop style="stop-color:#9edcdd;stop-opacity:1;" offset="0.621094"/><stop style="stop-color:#9fdcdd;stop-opacity:1;" offset="0.625"/><stop style="stop-color:#a0dcde;stop-opacity:1;" offset="0.628906"/><stop style="stop-color:#a1ddde;stop-opacity:1;" offset="0.632812"/><stop style="stop-color:#a2ddde;stop-opacity:1;" offset="0.636719"/><stop style="stop-color:#a3dedf;stop-opacity:1;" offset="0.640625"/><stop style="stop-color:#a4dedf;stop-opacity:1;" offset="0.644531"/><stop style="stop-color:#a5dedf;stop-opacity:1;" offset="0.648438"/><stop style="stop-color:#a6dfe0;stop-opacity:1;" offset="0.652344"/><stop style="stop-color:#a7dfe0;stop-opacity:1;" offset="0.65625"/><stop style="stop-color:#a8dfe0;stop-opacity:1;" offset="0.660156"/><stop style="stop-color:#a9e0e1;stop-opacity:1;" offset="0.664063"/><stop style="stop-color:#aae0e1;stop-opacity:1;" offset="0.667969"/><stop style="stop-color:#abe0e1;stop-opacity:1;" offset="0.671875"/><stop style="stop-color:#ace1e2;stop-opacity:1;" offset="0.675781"/><stop style="stop-color:#ade1e2;stop-opacity:1;" offset="0.679688"/><stop style="stop-color:#aee2e3;stop-opacity:1;" offset="0.683594"/><stop style="stop-color:#afe2e3;stop-opacity:1;" offset="0.6875"/><stop style="stop-color:#b0e2e3;stop-opacity:1;" offset="0.691406"/><stop style="stop-color:#b1e3e4;stop-opacity:1;" offset="0.695313"/><stop style="stop-color:#b2e3e4;stop-opacity:1;" offset="0.699219"/><stop style="stop-color:#b3e3e4;stop-opacity:1;" offset="0.703125"/><stop style="stop-color:#b4e4e5;stop-opacity:1;" offset="0.707031"/><stop style="stop-color:#b5e4e5;stop-opacity:1;" offset="0.710938"/><stop style="stop-color:#b6e4e5;stop-opacity:1;" offset="0.714844"/><stop style="stop-color:#b7e5e6;stop-opacity:1;" offset="0.71875"/><stop style="stop-color:#b8e5e6;stop-opacity:1;" offset="0.722656"/><stop style="stop-color:#b9e6e6;stop-opacity:1;" offset="0.726562"/><stop style="stop-color:#bae6e7;stop-opacity:1;" offset="0.730469"/><stop style="stop-color:#bbe6e7;stop-opacity:1;" offset="0.734375"/><stop style="stop-color:#bce7e7;stop-opacity:1;" offset="0.738281"/><stop style="stop-color:#bde7e8;stop-opacity:1;" offset="0.742188"/><stop style="stop-color:#bee7e8;stop-opacity:1;" offset="0.746094"/><stop style="stop-color:#bfe8e8;stop-opacity:1;" offset="0.75"/><stop style="stop-color:#c0e8e9;stop-opacity:1;" offset="0.753906"/><stop style="stop-color:#c1e8e9;stop-opacity:1;" offset="0.757813"/><stop style="stop-color:#c2e9ea;stop-opacity:1;" offset="0.761719"/><stop style="stop-color:#c3e9ea;stop-opacity:1;" offset="0.765625"/><stop style="stop-color:#c4eaea;stop-opacity:1;" offset="0.769531"/><stop style="stop-color:#c5eaeb;stop-opacity:1;" offset="0.773438"/><stop style="stop-color:#c6eaeb;stop-opacity:1;" offset="0.777344"/><stop style="stop-color:#c7ebeb;stop-opacity:1;" offset="0.78125"/><stop style="stop-color:#c8ebec;stop-opacity:1;" offset="0.785156"/><stop style="stop-color:#c9ebec;stop-opacity:1;" offset="0.789063"/><stop style="stop-color:#caecec;stop-opacity:1;" offset="0.792969"/><stop style="stop-color:#cbeced;stop-opacity:1;" offset="0.796875"/><stop style="stop-color:#cceced;stop-opacity:1;" offset="0.800781"/><stop style="stop-color:#cdeded;stop-opacity:1;" offset="0.804688"/><stop style="stop-color:#ceedee;stop-opacity:1;" offset="0.808594"/><stop style="stop-color:#cfeeee;stop-opacity:1;" offset="0.8125"/><stop style="stop-color:#d0eeee;stop-opacity:1;" offset="0.816406"/><stop style="stop-color:#d1eeef;stop-opacity:1;" offset="0.820313"/><stop style="stop-color:#d2efef;stop-opacity:1;" offset="0.824219"/><stop style="stop-color:#d3eff0;stop-opacity:1;" offset="0.828125"/><stop style="stop-color:#d4eff0;stop-opacity:1;" offset="0.832031"/><stop style="stop-color:#d5f0f0;stop-opacity:1;" offset="0.835938"/><stop style="stop-color:#d6f0f1;stop-opacity:1;" offset="0.839844"/><stop style="stop-color:#d7f0f1;stop-opacity:1;" offset="0.84375"/><stop style="stop-color:#d8f1f1;stop-opacity:1;" offset="0.847656"/><stop style="stop-color:#d9f1f2;stop-opacity:1;" offset="0.851562"/><stop style="stop-color:#daf2f2;stop-opacity:1;" offset="0.855469"/><stop style="stop-color:#dbf2f2;stop-opacity:1;" offset="0.859375"/><stop style="stop-color:#dcf2f3;stop-opacity:1;" offset="0.863281"/><stop style="stop-color:#ddf3f3;stop-opacity:1;" offset="0.867188"/><stop style="stop-color:#def3f3;stop-opacity:1;" offset="0.871094"/><stop style="stop-color:#dff3f4;stop-opacity:1;" offset="0.875"/><stop style="stop-color:#e0f4f4;stop-opacity:1;" offset="0.878906"/><stop style="stop-color:#e1f4f4;stop-opacity:1;" offset="0.882813"/><stop style="stop-color:#e2f4f5;stop-opacity:1;" offset="0.886719"/><stop style="stop-color:#e3f5f5;stop-opacity:1;" offset="0.890625"/><stop style="stop-color:#e4f5f6;stop-opacity:1;" offset="0.894531"/><stop style="stop-color:#e5f6f6;stop-opacity:1;" offset="0.898438"/><stop style="stop-color:#e6f6f6;stop-opacity:1;" offset="0.902344"/><stop style="stop-color:#e7f6f7;stop-opacity:1;" offset="0.90625"/><stop style="stop-color:#e8f7f7;stop-opacity:1;" offset="0.910156"/><stop style="stop-color:#e9f7f7;stop-opacity:1;" offset="0.914062"/><stop style="stop-color:#eaf7f8;stop-opacity:1;" offset="0.917969"/><stop style="stop-color:#ebf8f8;stop-opacity:1;" offset="0.921875"/><stop style="stop-color:#ecf8f8;stop-opacity:1;" offset="0.925781"/><stop style="stop-color:#edf8f9;stop-opacity:1;" offset="0.929688"/><stop style="stop-color:#eef9f9;stop-opacity:1;" offset="0.933594"/><stop style="stop-color:#eff9f9;stop-opacity:1;" offset="0.9375"/><stop style="stop-color:#f0fafa;stop-opacity:1;" offset="0.941406"/><stop style="stop-color:#f1fafa;stop-opacity:1;" offset="0.945312"/><stop style="stop-color:#f2fafa;stop-opacity:1;" offset="0.949219"/><stop style="stop-color:#f3fbfb;stop-opacity:1;" offset="0.953125"/><stop style="stop-color:#f4fbfb;stop-opacity:1;" offset="0.957031"/><stop style="stop-color:#f5fbfb;stop-opacity:1;" offset="0.960938"/><stop style="stop-color:#f6fcfc;stop-opacity:1;" offset="0.964844"/><stop style="stop-color:#f7fcfc;stop-opacity:1;" offset="0.96875"/><stop style="stop-color:#f8fcfd;stop-opacity:1;" offset="0.972656"/><stop style="stop-color:#f9fdfd;stop-opacity:1;" offset="0.976563"/><stop style="stop-color:#fafdfd;stop-opacity:1;" offset="0.980469"/><stop style="stop-color:#fbfefe;stop-opacity:1;" offset="0.984375"/><stop style="stop-color:#fcfefe;stop-opacity:1;" offset="0.988281"/><stop style="stop-color:#fdfefe;stop-opacity:1;" offset="0.992188"/><stop style="stop-color:#feffff;stop-opacity:1;" offset="0.996094"/><stop style="stop-color:#ffffff;stop-opacity:1;" offset="1"/></linearGradient></defs><g id="a08d7103f8"><g clip-rule="nonzero" clip-path="url(#269037c422)"><g clip-rule="nonzero" clip-path="url(#7d668fa23c)"><path style="fill:none;stroke-width:8;stroke-linecap:butt;stroke-linejoin:miter;stroke:url(#7bf935c513);stroke-miterlimit:4;" d="M 14.997203 0.00000133902 L 155.776357 0.00000133902 C 164.054384 0.00000133902 170.772707 6.713055 170.772707 14.996351 L 170.772707 29.191771 C 170.772707 37.475067 164.054384 44.188121 155.776357 44.188121 L 14.997203 44.188121 C 6.713907 44.188121 0.000853542 37.475067 0.000853542 29.191771 L 0.000853542 14.996351 C 0.000853542 6.713055 6.713907 0.00000133902 14.997203 0.00000133902 Z M 14.997203 0.00000133902 " transform="matrix(0.741326,0,0,0.741326,0.108742,-0.000000992647)"/></g></g><g style="fill:#1b438c;fill-opacity:1;"><g transform="translate(13.434655, 22.779731)"><path style="stroke:none" d="M 7.484375 0 L 0.6875 0 L 0.6875 -0.765625 C 1.113281 -0.773438 1.457031 -0.8125 1.71875 -0.875 C 1.976562 -0.945312 2.175781 -1.078125 2.3125 -1.265625 C 2.457031 -1.460938 2.554688 -1.734375 2.609375 -2.078125 C 2.660156 -2.429688 2.6875 -2.90625 2.6875 -3.5 L 2.6875 -11.15625 C 2.6875 -11.6875 2.660156 -12.125 2.609375 -12.46875 C 2.566406 -12.820312 2.484375 -13.097656 2.359375 -13.296875 C 2.234375 -13.503906 2.050781 -13.648438 1.8125 -13.734375 C 1.582031 -13.816406 1.269531 -13.867188 0.875 -13.890625 L 0.875 -14.65625 L 7.28125 -14.65625 L 7.28125 -13.890625 C 6.894531 -13.867188 6.582031 -13.816406 6.34375 -13.734375 C 6.113281 -13.648438 5.929688 -13.503906 5.796875 -13.296875 C 5.671875 -13.097656 5.585938 -12.820312 5.546875 -12.46875 C 5.503906 -12.125 5.484375 -11.6875 5.484375 -11.15625 L 5.484375 -3.5 C 5.484375 -2.90625 5.503906 -2.429688 5.546875 -2.078125 C 5.585938 -1.734375 5.679688 -1.460938 5.828125 -1.265625 C 5.972656 -1.078125 6.175781 -0.945312 6.4375 -0.875 C 6.695312 -0.8125 7.046875 -0.773438 7.484375 -0.765625 Z M 7.484375 0 "/></g></g><g style="fill:#1b438c;fill-opacity:1;"><g transform="translate(21.598921, 22.779731)"><path style="stroke:none" d="M 4.890625 -3.109375 C 4.890625 -2.585938 4.90625 -2.175781 4.9375 -1.875 C 4.96875 -1.570312 5.035156 -1.34375 5.140625 -1.1875 C 5.253906 -1.03125 5.421875 -0.925781 5.640625 -0.875 C 5.859375 -0.820312 6.160156 -0.785156 6.546875 -0.765625 L 6.546875 0 L 0.546875 0 L 0.546875 -0.765625 C 0.921875 -0.785156 1.21875 -0.820312 1.4375 -0.875 C 1.65625 -0.925781 1.820312 -1.023438 1.9375 -1.171875 C 2.0625 -1.328125 2.144531 -1.546875 2.1875 -1.828125 C 2.226562 -2.109375 2.25 -2.488281 2.25 -2.96875 L 2.25 -5.34375 C 2.25 -6.09375 2.234375 -6.695312 2.203125 -7.15625 C 2.179688 -7.625 2.148438 -7.941406 2.109375 -8.109375 C 2.078125 -8.273438 2.023438 -8.410156 1.953125 -8.515625 C 1.890625 -8.617188 1.796875 -8.695312 1.671875 -8.75 C 1.546875 -8.8125 1.382812 -8.851562 1.1875 -8.875 C 1 -8.894531 0.757812 -8.90625 0.46875 -8.90625 L 0.46875 -9.546875 L 4.15625 -10.28125 L 4.390625 -8.609375 L 4.46875 -8.609375 C 4.882812 -9.140625 5.378906 -9.550781 5.953125 -9.84375 C 6.523438 -10.132812 7.15625 -10.28125 7.84375 -10.28125 C 8.65625 -10.28125 9.3125 -10.164062 9.8125 -9.9375 C 10.3125 -9.71875 10.757812 -9.347656 11.15625 -8.828125 C 11.363281 -8.535156 11.550781 -8.15625 11.71875 -7.6875 C 11.882812 -7.226562 11.96875 -6.59375 11.96875 -5.78125 L 11.96875 -3.109375 C 11.96875 -2.585938 11.984375 -2.175781 12.015625 -1.875 C 12.046875 -1.570312 12.113281 -1.34375 12.21875 -1.1875 C 12.332031 -1.03125 12.492188 -0.925781 12.703125 -0.875 C 12.921875 -0.820312 13.21875 -0.785156 13.59375 -0.765625 L 13.59375 0 L 7.625 0 L 7.625 -0.765625 C 8.007812 -0.773438 8.3125 -0.804688 8.53125 -0.859375 C 8.757812 -0.921875 8.929688 -1.023438 9.046875 -1.171875 C 9.160156 -1.328125 9.234375 -1.546875 9.265625 -1.828125 C 9.304688 -2.117188 9.328125 -2.5 9.328125 -2.96875 L 9.328125 -5.5625 C 9.328125 -6.207031 9.285156 -6.75 9.203125 -7.1875 C 9.128906 -7.632812 9.003906 -7.992188 8.828125 -8.265625 C 8.660156 -8.535156 8.4375 -8.734375 8.15625 -8.859375 C 7.882812 -8.984375 7.539062 -9.046875 7.125 -9.046875 C 6.71875 -9.046875 6.367188 -8.929688 6.078125 -8.703125 C 5.785156 -8.472656 5.53125 -8.15625 5.3125 -7.75 C 5.195312 -7.519531 5.097656 -7.222656 5.015625 -6.859375 C 4.929688 -6.492188 4.890625 -6.117188 4.890625 -5.734375 Z M 4.890625 -3.109375 "/></g></g><g style="fill:#1b438c;fill-opacity:1;"><g transform="translate(35.4344, 22.779731)"><path style="stroke:none" d="M 1.625 0 L 1.03125 0 L 1.03125 -3.46875 L 1.828125 -3.46875 C 2.046875 -2.550781 2.359375 -1.882812 2.765625 -1.46875 C 3.171875 -1.050781 3.695312 -0.84375 4.34375 -0.84375 C 4.8125 -0.84375 5.175781 -0.9375 5.4375 -1.125 C 5.695312 -1.320312 5.828125 -1.59375 5.828125 -1.9375 C 5.828125 -2.289062 5.664062 -2.632812 5.34375 -2.96875 C 5.03125 -3.3125 4.519531 -3.671875 3.8125 -4.046875 C 2.84375 -4.566406 2.148438 -5.082031 1.734375 -5.59375 C 1.316406 -6.113281 1.109375 -6.695312 1.109375 -7.34375 C 1.109375 -7.757812 1.1875 -8.148438 1.34375 -8.515625 C 1.5 -8.878906 1.710938 -9.191406 1.984375 -9.453125 C 2.253906 -9.722656 2.582031 -9.929688 2.96875 -10.078125 C 3.351562 -10.222656 3.765625 -10.296875 4.203125 -10.296875 C 4.597656 -10.296875 4.988281 -10.238281 5.375 -10.125 C 5.757812 -10.007812 6.097656 -9.851562 6.390625 -9.65625 L 6.734375 -10.109375 L 7.234375 -10.109375 L 7.234375 -7.234375 L 6.484375 -7.234375 C 6.191406 -7.953125 5.890625 -8.46875 5.578125 -8.78125 C 5.273438 -9.101562 4.898438 -9.265625 4.453125 -9.265625 C 4.097656 -9.265625 3.816406 -9.171875 3.609375 -8.984375 C 3.398438 -8.796875 3.296875 -8.539062 3.296875 -8.21875 C 3.296875 -7.863281 3.445312 -7.523438 3.75 -7.203125 C 4.0625 -6.890625 4.582031 -6.546875 5.3125 -6.171875 C 5.820312 -5.890625 6.257812 -5.613281 6.625 -5.34375 C 6.988281 -5.082031 7.285156 -4.8125 7.515625 -4.53125 C 7.742188 -4.257812 7.910156 -3.972656 8.015625 -3.671875 C 8.128906 -3.378906 8.1875 -3.0625 8.1875 -2.71875 C 8.1875 -2.28125 8.101562 -1.878906 7.9375 -1.515625 C 7.769531 -1.160156 7.535156 -0.859375 7.234375 -0.609375 C 6.929688 -0.359375 6.566406 -0.160156 6.140625 -0.015625 C 5.710938 0.117188 5.238281 0.1875 4.71875 0.1875 C 4.175781 0.1875 3.671875 0.113281 3.203125 -0.03125 C 2.734375 -0.175781 2.34375 -0.390625 2.03125 -0.671875 Z M 1.625 0 "/></g></g><g style="fill:#1b438c;fill-opacity:1;"><g transform="translate(44.302812, 22.779731)"><path style="stroke:none" d="M 8.84375 -6.96875 C 8.84375 -7.476562 8.828125 -7.878906 8.796875 -8.171875 C 8.773438 -8.472656 8.707031 -8.703125 8.59375 -8.859375 C 8.488281 -9.015625 8.320312 -9.117188 8.09375 -9.171875 C 7.875 -9.234375 7.570312 -9.285156 7.1875 -9.328125 L 7.1875 -10.09375 L 11.5 -10.09375 L 11.5 -4.3125 C 11.5 -3.539062 11.503906 -2.9375 11.515625 -2.5 C 11.535156 -2.0625 11.570312 -1.734375 11.625 -1.515625 C 11.664062 -1.359375 11.710938 -1.226562 11.765625 -1.125 C 11.816406 -1.03125 11.898438 -0.953125 12.015625 -0.890625 C 12.128906 -0.835938 12.28125 -0.800781 12.46875 -0.78125 C 12.664062 -0.769531 12.925781 -0.765625 13.25 -0.765625 L 13.25 -0.015625 L 9.453125 0.203125 L 9.25 -1.484375 L 9.171875 -1.484375 C 8.835938 -0.953125 8.375 -0.539062 7.78125 -0.25 C 7.1875 0.0390625 6.519531 0.1875 5.78125 0.1875 C 4.425781 0.1875 3.394531 -0.289062 2.6875 -1.25 C 2.132812 -1.988281 1.859375 -3.035156 1.859375 -4.390625 L 1.859375 -6.96875 C 1.859375 -7.488281 1.84375 -7.894531 1.8125 -8.1875 C 1.789062 -8.488281 1.726562 -8.710938 1.625 -8.859375 C 1.519531 -9.015625 1.359375 -9.117188 1.140625 -9.171875 C 0.921875 -9.234375 0.625 -9.285156 0.25 -9.328125 L 0.25 -10.09375 L 4.515625 -10.09375 L 4.515625 -4.703125 C 4.515625 -3.421875 4.671875 -2.488281 4.984375 -1.90625 C 5.304688 -1.332031 5.816406 -1.046875 6.515625 -1.046875 C 7.253906 -1.046875 7.828125 -1.390625 8.234375 -2.078125 C 8.640625 -2.734375 8.84375 -3.703125 8.84375 -4.984375 Z M 8.84375 -6.96875 "/></g></g><g style="fill:#1b438c;fill-opacity:1;"><g transform="translate(57.795732, 22.779731)"><path style="stroke:none" d="M 4.90625 -2.953125 C 4.90625 -2.453125 4.925781 -2.054688 4.96875 -1.765625 C 5.019531 -1.484375 5.113281 -1.265625 5.25 -1.109375 C 5.394531 -0.960938 5.597656 -0.867188 5.859375 -0.828125 C 6.128906 -0.785156 6.484375 -0.765625 6.921875 -0.765625 L 6.921875 0 L 0.578125 0 L 0.578125 -0.765625 C 0.953125 -0.785156 1.253906 -0.820312 1.484375 -0.875 C 1.710938 -0.925781 1.882812 -1.023438 2 -1.171875 C 2.113281 -1.328125 2.1875 -1.546875 2.21875 -1.828125 C 2.25 -2.117188 2.265625 -2.503906 2.265625 -2.984375 L 2.265625 -5.3125 C 2.265625 -6.09375 2.242188 -6.71875 2.203125 -7.1875 C 2.171875 -7.65625 2.085938 -8.015625 1.953125 -8.265625 C 1.828125 -8.523438 1.644531 -8.695312 1.40625 -8.78125 C 1.175781 -8.863281 0.875 -8.90625 0.5 -8.90625 L 0.5 -9.578125 L 4.296875 -10.28125 L 4.609375 -8.09375 L 4.6875 -8.09375 C 5.03125 -8.757812 5.476562 -9.289062 6.03125 -9.6875 C 6.59375 -10.082031 7.179688 -10.28125 7.796875 -10.28125 C 8.285156 -10.28125 8.679688 -10.15625 8.984375 -9.90625 C 9.285156 -9.664062 9.4375 -9.363281 9.4375 -9 C 9.4375 -8.59375 9.316406 -8.25 9.078125 -7.96875 C 8.847656 -7.695312 8.53125 -7.5625 8.125 -7.5625 C 7.9375 -7.5625 7.765625 -7.597656 7.609375 -7.671875 C 7.460938 -7.742188 7.328125 -7.828125 7.203125 -7.921875 C 7.078125 -8.015625 6.953125 -8.101562 6.828125 -8.1875 C 6.710938 -8.269531 6.59375 -8.3125 6.46875 -8.3125 C 6.226562 -8.3125 6 -8.148438 5.78125 -7.828125 C 5.570312 -7.515625 5.394531 -7.09375 5.25 -6.5625 C 5.144531 -6.1875 5.0625 -5.757812 5 -5.28125 C 4.9375 -4.800781 4.90625 -4.328125 4.90625 -3.859375 Z M 4.90625 -2.953125 "/></g></g><g style="fill:#1b438c;fill-opacity:1;"><g transform="translate(67.273127, 22.779731)"><path style="stroke:none" d="M 6.546875 -5.421875 C 5.484375 -4.941406 4.679688 -4.492188 4.140625 -4.078125 C 3.597656 -3.671875 3.328125 -3.242188 3.328125 -2.796875 C 3.328125 -2.429688 3.425781 -2.140625 3.625 -1.921875 C 3.832031 -1.703125 4.085938 -1.59375 4.390625 -1.59375 C 4.703125 -1.59375 4.988281 -1.644531 5.25 -1.75 C 5.519531 -1.863281 5.75 -2.007812 5.9375 -2.1875 C 6.125 -2.363281 6.269531 -2.578125 6.375 -2.828125 C 6.488281 -3.078125 6.546875 -3.335938 6.546875 -3.609375 Z M 6.546875 -6.4375 L 6.546875 -7.234375 C 6.546875 -7.960938 6.414062 -8.492188 6.15625 -8.828125 C 5.894531 -9.171875 5.492188 -9.34375 4.953125 -9.34375 C 4.578125 -9.34375 4.296875 -9.242188 4.109375 -9.046875 C 3.921875 -8.847656 3.742188 -8.519531 3.578125 -8.0625 C 3.460938 -7.75 3.300781 -7.503906 3.09375 -7.328125 C 2.882812 -7.148438 2.597656 -7.0625 2.234375 -7.0625 C 1.867188 -7.0625 1.59375 -7.164062 1.40625 -7.375 C 1.21875 -7.59375 1.125 -7.898438 1.125 -8.296875 C 1.125 -8.910156 1.457031 -9.394531 2.125 -9.75 C 2.789062 -10.101562 3.796875 -10.28125 5.140625 -10.28125 C 6.554688 -10.28125 7.566406 -10.019531 8.171875 -9.5 C 8.785156 -8.988281 9.09375 -8.128906 9.09375 -6.921875 L 9.09375 -2.765625 C 9.09375 -1.679688 9.3125 -1.140625 9.75 -1.140625 C 9.988281 -1.140625 10.207031 -1.222656 10.40625 -1.390625 L 10.703125 -0.84375 C 10.515625 -0.519531 10.234375 -0.265625 9.859375 -0.078125 C 9.492188 0.0976562 9.078125 0.1875 8.609375 0.1875 C 8.023438 0.1875 7.578125 0.0078125 7.265625 -0.34375 C 6.960938 -0.695312 6.8125 -1.195312 6.8125 -1.84375 L 6.71875 -1.84375 C 6.351562 -1.1875 5.878906 -0.6875 5.296875 -0.34375 C 4.710938 0 4.046875 0.171875 3.296875 0.171875 C 2.492188 0.171875 1.847656 -0.0507812 1.359375 -0.5 C 0.878906 -0.957031 0.640625 -1.546875 0.640625 -2.265625 C 0.640625 -2.828125 0.882812 -3.347656 1.375 -3.828125 C 1.875 -4.316406 2.703125 -4.796875 3.859375 -5.265625 Z M 6.546875 -6.4375 "/></g></g><g style="fill:#1b438c;fill-opacity:1;"><g transform="translate(78.196871, 22.779731)"><path style="stroke:none" d="M 4.890625 -3.109375 C 4.890625 -2.585938 4.90625 -2.175781 4.9375 -1.875 C 4.96875 -1.570312 5.035156 -1.34375 5.140625 -1.1875 C 5.253906 -1.03125 5.421875 -0.925781 5.640625 -0.875 C 5.859375 -0.820312 6.160156 -0.785156 6.546875 -0.765625 L 6.546875 0 L 0.546875 0 L 0.546875 -0.765625 C 0.921875 -0.785156 1.21875 -0.820312 1.4375 -0.875 C 1.65625 -0.925781 1.820312 -1.023438 1.9375 -1.171875 C 2.0625 -1.328125 2.144531 -1.546875 2.1875 -1.828125 C 2.226562 -2.109375 2.25 -2.488281 2.25 -2.96875 L 2.25 -5.34375 C 2.25 -6.09375 2.234375 -6.695312 2.203125 -7.15625 C 2.179688 -7.625 2.148438 -7.941406 2.109375 -8.109375 C 2.078125 -8.273438 2.023438 -8.410156 1.953125 -8.515625 C 1.890625 -8.617188 1.796875 -8.695312 1.671875 -8.75 C 1.546875 -8.8125 1.382812 -8.851562 1.1875 -8.875 C 1 -8.894531 0.757812 -8.90625 0.46875 -8.90625 L 0.46875 -9.546875 L 4.15625 -10.28125 L 4.390625 -8.609375 L 4.46875 -8.609375 C 4.882812 -9.140625 5.378906 -9.550781 5.953125 -9.84375 C 6.523438 -10.132812 7.15625 -10.28125 7.84375 -10.28125 C 8.65625 -10.28125 9.3125 -10.164062 9.8125 -9.9375 C 10.3125 -9.71875 10.757812 -9.347656 11.15625 -8.828125 C 11.363281 -8.535156 11.550781 -8.15625 11.71875 -7.6875 C 11.882812 -7.226562 11.96875 -6.59375 11.96875 -5.78125 L 11.96875 -3.109375 C 11.96875 -2.585938 11.984375 -2.175781 12.015625 -1.875 C 12.046875 -1.570312 12.113281 -1.34375 12.21875 -1.1875 C 12.332031 -1.03125 12.492188 -0.925781 12.703125 -0.875 C 12.921875 -0.820312 13.21875 -0.785156 13.59375 -0.765625 L 13.59375 0 L 7.625 0 L 7.625 -0.765625 C 8.007812 -0.773438 8.3125 -0.804688 8.53125 -0.859375 C 8.757812 -0.921875 8.929688 -1.023438 9.046875 -1.171875 C 9.160156 -1.328125 9.234375 -1.546875 9.265625 -1.828125 C 9.304688 -2.117188 9.328125 -2.5 9.328125 -2.96875 L 9.328125 -5.5625 C 9.328125 -6.207031 9.285156 -6.75 9.203125 -7.1875 C 9.128906 -7.632812 9.003906 -7.992188 8.828125 -8.265625 C 8.660156 -8.535156 8.4375 -8.734375 8.15625 -8.859375 C 7.882812 -8.984375 7.539062 -9.046875 7.125 -9.046875 C 6.71875 -9.046875 6.367188 -8.929688 6.078125 -8.703125 C 5.785156 -8.472656 5.53125 -8.15625 5.3125 -7.75 C 5.195312 -7.519531 5.097656 -7.222656 5.015625 -6.859375 C 4.929688 -6.492188 4.890625 -6.117188 4.890625 -5.734375 Z M 4.890625 -3.109375 "/></g></g><g style="fill:#1b438c;fill-opacity:1;"><g transform="translate(92.03235, 22.779731)"><path style="stroke:none" d="M 10.046875 -1.578125 C 9.566406 -1.046875 8.96875 -0.632812 8.25 -0.34375 C 7.53125 -0.0507812 6.753906 0.09375 5.921875 0.09375 C 5.148438 0.09375 4.445312 -0.0234375 3.8125 -0.265625 C 3.175781 -0.515625 2.628906 -0.863281 2.171875 -1.3125 C 1.710938 -1.757812 1.359375 -2.296875 1.109375 -2.921875 C 0.867188 -3.546875 0.75 -4.238281 0.75 -5 C 0.75 -5.789062 0.878906 -6.507812 1.140625 -7.15625 C 1.410156 -7.800781 1.785156 -8.351562 2.265625 -8.8125 C 2.742188 -9.28125 3.316406 -9.640625 3.984375 -9.890625 C 4.660156 -10.148438 5.40625 -10.28125 6.21875 -10.28125 C 6.789062 -10.28125 7.320312 -10.222656 7.8125 -10.109375 C 8.300781 -9.992188 8.71875 -9.832031 9.0625 -9.625 C 9.414062 -9.425781 9.691406 -9.1875 9.890625 -8.90625 C 10.097656 -8.632812 10.203125 -8.34375 10.203125 -8.03125 C 10.203125 -7.664062 10.097656 -7.375 9.890625 -7.15625 C 9.679688 -6.9375 9.398438 -6.828125 9.046875 -6.828125 C 8.753906 -6.828125 8.492188 -6.898438 8.265625 -7.046875 C 8.046875 -7.203125 7.828125 -7.453125 7.609375 -7.796875 C 7.421875 -8.109375 7.257812 -8.351562 7.125 -8.53125 C 6.988281 -8.707031 6.863281 -8.84375 6.75 -8.9375 C 6.632812 -9.03125 6.519531 -9.09375 6.40625 -9.125 C 6.300781 -9.15625 6.164062 -9.171875 6 -9.171875 C 5.257812 -9.171875 4.6875 -8.828125 4.28125 -8.140625 C 3.875 -7.460938 3.671875 -6.503906 3.671875 -5.265625 C 3.671875 -3.953125 3.914062 -2.9375 4.40625 -2.21875 C 4.894531 -1.507812 5.597656 -1.15625 6.515625 -1.15625 C 7.023438 -1.15625 7.539062 -1.253906 8.0625 -1.453125 C 8.582031 -1.648438 9.078125 -1.929688 9.546875 -2.296875 Z M 10.046875 -1.578125 "/></g></g><g style="fill:#1b438c;fill-opacity:1;"><g transform="translate(102.765792, 22.779731)"><path style="stroke:none" d="M 10.28125 -1.765625 C 9.125 -0.460938 7.679688 0.1875 5.953125 0.1875 C 5.171875 0.1875 4.457031 0.0664062 3.8125 -0.171875 C 3.175781 -0.421875 2.628906 -0.769531 2.171875 -1.21875 C 1.710938 -1.675781 1.351562 -2.210938 1.09375 -2.828125 C 0.84375 -3.453125 0.71875 -4.144531 0.71875 -4.90625 C 0.71875 -5.695312 0.847656 -6.414062 1.109375 -7.0625 C 1.378906 -7.71875 1.757812 -8.285156 2.25 -8.765625 C 2.738281 -9.242188 3.316406 -9.613281 3.984375 -9.875 C 4.648438 -10.144531 5.382812 -10.28125 6.1875 -10.28125 C 7.53125 -10.28125 8.578125 -9.914062 9.328125 -9.1875 C 10.078125 -8.46875 10.453125 -7.453125 10.453125 -6.140625 C 10.453125 -5.941406 10.421875 -5.816406 10.359375 -5.765625 C 10.296875 -5.722656 10.113281 -5.703125 9.8125 -5.703125 L 3.6875 -5.703125 C 3.632812 -5.585938 3.609375 -5.378906 3.609375 -5.078125 C 3.609375 -3.835938 3.878906 -2.851562 4.421875 -2.125 C 4.960938 -1.40625 5.695312 -1.046875 6.625 -1.046875 C 7.15625 -1.046875 7.679688 -1.164062 8.203125 -1.40625 C 8.734375 -1.644531 9.25 -1.988281 9.75 -2.4375 Z M 6.578125 -6.78125 C 7.085938 -6.78125 7.414062 -6.804688 7.5625 -6.859375 C 7.707031 -6.921875 7.78125 -7.054688 7.78125 -7.265625 C 7.78125 -7.828125 7.617188 -8.285156 7.296875 -8.640625 C 6.984375 -8.992188 6.585938 -9.171875 6.109375 -9.171875 C 5.566406 -9.171875 5.082031 -8.945312 4.65625 -8.5 C 4.226562 -8.050781 3.953125 -7.476562 3.828125 -6.78125 Z M 6.578125 -6.78125 "/></g></g></g></svg>