<svg xmlns="http://www.w3.org/2000/svg" xmlns:xlink="http://www.w3.org/1999/xlink" width="181" zoomAndPan="magnify" viewBox="0 0 135.75 29.25" height="39" preserveAspectRatio="xMidYMid meet" version="1.2"><defs><clipPath id="83fbc60cc1"><path d="M 2.6875 2 L 130.65625 2 L 130.65625 27.789062 L 2.6875 27.789062 Z M 2.6875 2 "/></clipPath><clipPath id="2fc4d8e251"><path d="M 2.6875 0 L 130.65625 0 L 130.65625 26 L 2.6875 26 Z M 2.6875 0 "/></clipPath></defs><g id="84fe081594"><g clip-rule="nonzero" clip-path="url(#83fbc60cc1)"><path style=" stroke:none;fill-rule:nonzero;fill:#1b438c;fill-opacity:1;" d="M 9.539062 2.324219 L 124.140625 2.324219 C 124.59375 2.324219 125.046875 2.367188 125.492188 2.457031 C 125.9375 2.542969 126.367188 2.675781 126.789062 2.851562 C 127.207031 3.023438 127.605469 3.238281 127.984375 3.488281 C 128.363281 3.742188 128.710938 4.027344 129.03125 4.347656 C 129.355469 4.671875 129.640625 5.019531 129.894531 5.398438 C 130.144531 5.773438 130.359375 6.175781 130.53125 6.59375 C 130.707031 7.011719 130.835938 7.445312 130.925781 7.890625 C 131.015625 8.335938 131.058594 8.785156 131.058594 9.242188 L 131.058594 20.703125 C 131.058594 21.15625 131.015625 21.609375 130.925781 22.054688 C 130.835938 22.5 130.707031 22.929688 130.53125 23.351562 C 130.359375 23.769531 130.144531 24.167969 129.894531 24.546875 C 129.640625 24.925781 129.355469 25.273438 129.03125 25.59375 C 128.710938 25.917969 128.363281 26.203125 127.984375 26.457031 C 127.605469 26.707031 127.207031 26.921875 126.789062 27.09375 C 126.367188 27.269531 125.9375 27.398438 125.492188 27.488281 C 125.046875 27.578125 124.59375 27.621094 124.140625 27.621094 L 9.539062 27.621094 C 9.082031 27.621094 8.632812 27.578125 8.1875 27.488281 C 7.742188 27.398438 7.308594 27.269531 6.890625 27.09375 C 6.472656 26.921875 6.074219 26.707031 5.695312 26.457031 C 5.316406 26.203125 4.96875 25.917969 4.644531 25.59375 C 4.324219 25.273438 4.039062 24.925781 3.785156 24.546875 C 3.535156 24.167969 3.320312 23.769531 3.148438 23.351562 C 2.972656 22.929688 2.84375 22.5 2.753906 22.054688 C 2.664062 21.609375 2.621094 21.15625 2.621094 20.703125 L 2.621094 9.242188 C 2.621094 8.785156 2.664062 8.335938 2.753906 7.890625 C 2.84375 7.445312 2.972656 7.011719 3.148438 6.59375 C 3.320312 6.175781 3.535156 5.773438 3.785156 5.398438 C 4.039062 5.019531 4.324219 4.671875 4.644531 4.347656 C 4.96875 4.027344 5.316406 3.742188 5.695312 3.488281 C 6.074219 3.238281 6.472656 3.023438 6.890625 2.851562 C 7.308594 2.675781 7.742188 2.542969 8.1875 2.457031 C 8.632812 2.367188 9.082031 2.324219 9.539062 2.324219 Z M 9.539062 2.324219 "/></g><g clip-rule="nonzero" clip-path="url(#2fc4d8e251)"><path style=" stroke:none;fill-rule:nonzero;fill:#69c8ca;fill-opacity:1;" d="M 9.539062 0 L 124.140625 0 C 124.59375 0 125.046875 0.0429688 125.492188 0.132812 C 125.9375 0.222656 126.367188 0.351562 126.789062 0.527344 C 127.207031 0.699219 127.605469 0.914062 127.984375 1.164062 C 128.363281 1.417969 128.710938 1.703125 129.03125 2.027344 C 129.355469 2.347656 129.640625 2.695312 129.894531 3.074219 C 130.144531 3.453125 130.359375 3.851562 130.53125 4.269531 C 130.707031 4.691406 130.835938 5.121094 130.925781 5.566406 C 131.015625 6.015625 131.058594 6.464844 131.058594 6.917969 L 131.058594 18.378906 C 131.058594 18.835938 131.015625 19.285156 130.925781 19.730469 C 130.835938 20.175781 130.707031 20.609375 130.53125 21.027344 C 130.359375 21.449219 130.144531 21.847656 129.894531 22.222656 C 129.640625 22.601562 129.355469 22.953125 129.03125 23.273438 C 128.710938 23.59375 128.363281 23.878906 127.984375 24.132812 C 127.605469 24.386719 127.207031 24.597656 126.789062 24.773438 C 126.367188 24.945312 125.9375 25.078125 125.492188 25.164062 C 125.046875 25.253906 124.59375 25.296875 124.140625 25.296875 L 9.539062 25.296875 C 9.082031 25.296875 8.632812 25.253906 8.1875 25.164062 C 7.742188 25.078125 7.308594 24.945312 6.890625 24.773438 C 6.472656 24.597656 6.074219 24.386719 5.695312 24.132812 C 5.316406 23.878906 4.96875 23.59375 4.644531 23.273438 C 4.324219 22.953125 4.039062 22.601562 3.785156 22.222656 C 3.535156 21.847656 3.320312 21.449219 3.148438 21.027344 C 2.972656 20.609375 2.84375 20.175781 2.753906 19.730469 C 2.664062 19.285156 2.621094 18.835938 2.621094 18.378906 L 2.621094 6.917969 C 2.621094 6.464844 2.664062 6.015625 2.753906 5.566406 C 2.84375 5.121094 2.972656 4.691406 3.148438 4.269531 C 3.320312 3.851562 3.535156 3.453125 3.785156 3.074219 C 4.039062 2.695312 4.324219 2.347656 4.644531 2.027344 C 4.96875 1.703125 5.316406 1.417969 5.695312 1.164062 C 6.074219 0.914062 6.472656 0.699219 6.890625 0.527344 C 7.308594 0.351562 7.742188 0.222656 8.1875 0.132812 C 8.632812 0.0429688 9.082031 0 9.539062 0 Z M 9.539062 0 "/></g><g style="fill:#1b438c;fill-opacity:1;"><g transform="translate(14.200832, 19.7218)"><path style="stroke:none" d="M 12.3125 0 L 0.59375 0 L 0.59375 -0.6875 C 0.96875 -0.695312 1.273438 -0.726562 1.515625 -0.78125 C 1.753906 -0.832031 1.9375 -0.925781 2.0625 -1.0625 C 2.1875 -1.207031 2.269531 -1.398438 2.3125 -1.640625 C 2.351562 -1.890625 2.375 -2.21875 2.375 -2.625 L 2.375 -10.46875 C 2.375 -10.863281 2.351562 -11.179688 2.3125 -11.421875 C 2.28125 -11.671875 2.207031 -11.863281 2.09375 -12 C 1.976562 -12.144531 1.816406 -12.242188 1.609375 -12.296875 C 1.398438 -12.347656 1.125 -12.382812 0.78125 -12.40625 L 0.78125 -13.09375 L 6.640625 -13.09375 L 6.640625 -12.40625 C 6.253906 -12.394531 5.945312 -12.359375 5.71875 -12.296875 C 5.488281 -12.242188 5.3125 -12.144531 5.1875 -12 C 5.0625 -11.851562 4.976562 -11.648438 4.9375 -11.390625 C 4.894531 -11.128906 4.875 -10.785156 4.875 -10.359375 L 4.875 -3.234375 C 4.875 -2.753906 4.921875 -2.363281 5.015625 -2.0625 C 5.117188 -1.757812 5.285156 -1.523438 5.515625 -1.359375 C 5.753906 -1.203125 6.070312 -1.09375 6.46875 -1.03125 C 6.875 -0.96875 7.367188 -0.9375 7.953125 -0.9375 C 8.609375 -0.9375 9.15625 -0.972656 9.59375 -1.046875 C 10.039062 -1.128906 10.414062 -1.28125 10.71875 -1.5 C 11.019531 -1.726562 11.257812 -2.023438 11.4375 -2.390625 C 11.625 -2.765625 11.78125 -3.253906 11.90625 -3.859375 L 12.578125 -3.859375 Z M 12.3125 0 "/></g></g><g style="fill:#1b438c;fill-opacity:1;"><g transform="translate(27.037071, 19.7218)"><path style="stroke:none" d="M 9.1875 -1.578125 C 8.15625 -0.410156 6.867188 0.171875 5.328125 0.171875 C 4.617188 0.171875 3.976562 0.0625 3.40625 -0.15625 C 2.832031 -0.382812 2.34375 -0.695312 1.9375 -1.09375 C 1.53125 -1.5 1.210938 -1.976562 0.984375 -2.53125 C 0.753906 -3.082031 0.640625 -3.703125 0.640625 -4.390625 C 0.640625 -5.085938 0.757812 -5.726562 1 -6.3125 C 1.238281 -6.894531 1.578125 -7.398438 2.015625 -7.828125 C 2.453125 -8.253906 2.96875 -8.585938 3.5625 -8.828125 C 4.15625 -9.066406 4.8125 -9.1875 5.53125 -9.1875 C 6.726562 -9.1875 7.660156 -8.859375 8.328125 -8.203125 C 8.992188 -7.554688 9.328125 -6.648438 9.328125 -5.484375 C 9.328125 -5.304688 9.296875 -5.195312 9.234375 -5.15625 C 9.179688 -5.113281 9.023438 -5.09375 8.765625 -5.09375 L 3.296875 -5.09375 C 3.253906 -5 3.234375 -4.8125 3.234375 -4.53125 C 3.234375 -3.425781 3.472656 -2.550781 3.953125 -1.90625 C 4.429688 -1.257812 5.085938 -0.9375 5.921875 -0.9375 C 6.390625 -0.9375 6.859375 -1.039062 7.328125 -1.25 C 7.804688 -1.46875 8.265625 -1.773438 8.703125 -2.171875 Z M 5.875 -6.046875 C 6.332031 -6.046875 6.625 -6.070312 6.75 -6.125 C 6.882812 -6.175781 6.953125 -6.300781 6.953125 -6.5 C 6.953125 -6.988281 6.8125 -7.390625 6.53125 -7.703125 C 6.25 -8.023438 5.890625 -8.1875 5.453125 -8.1875 C 4.960938 -8.1875 4.53125 -7.984375 4.15625 -7.578125 C 3.78125 -7.179688 3.535156 -6.671875 3.421875 -6.046875 Z M 5.875 -6.046875 "/></g></g><g style="fill:#1b438c;fill-opacity:1;"><g transform="translate(36.983024, 19.7218)"><path style="stroke:none" d="M 5.84375 -4.84375 C 4.894531 -4.414062 4.175781 -4.015625 3.6875 -3.640625 C 3.207031 -3.273438 2.96875 -2.894531 2.96875 -2.5 C 2.96875 -2.164062 3.054688 -1.898438 3.234375 -1.703125 C 3.421875 -1.515625 3.648438 -1.421875 3.921875 -1.421875 C 4.191406 -1.421875 4.445312 -1.46875 4.6875 -1.5625 C 4.925781 -1.664062 5.128906 -1.796875 5.296875 -1.953125 C 5.472656 -2.109375 5.609375 -2.296875 5.703125 -2.515625 C 5.796875 -2.742188 5.84375 -2.984375 5.84375 -3.234375 Z M 5.84375 -5.75 L 5.84375 -6.453125 C 5.84375 -7.117188 5.726562 -7.597656 5.5 -7.890625 C 5.269531 -8.191406 4.910156 -8.34375 4.421875 -8.34375 C 4.085938 -8.34375 3.835938 -8.253906 3.671875 -8.078125 C 3.503906 -7.898438 3.347656 -7.609375 3.203125 -7.203125 C 3.097656 -6.921875 2.953125 -6.703125 2.765625 -6.546875 C 2.578125 -6.390625 2.316406 -6.3125 1.984375 -6.3125 C 1.671875 -6.3125 1.425781 -6.40625 1.25 -6.59375 C 1.082031 -6.789062 1 -7.0625 1 -7.40625 C 1 -7.957031 1.296875 -8.390625 1.890625 -8.703125 C 2.484375 -9.023438 3.382812 -9.1875 4.59375 -9.1875 C 5.863281 -9.1875 6.769531 -8.953125 7.3125 -8.484375 C 7.851562 -8.023438 8.125 -7.257812 8.125 -6.1875 L 8.125 -2.46875 C 8.125 -1.5 8.316406 -1.015625 8.703125 -1.015625 C 8.921875 -1.015625 9.117188 -1.085938 9.296875 -1.234375 L 9.546875 -0.75 C 9.390625 -0.46875 9.144531 -0.242188 8.8125 -0.078125 C 8.476562 0.0859375 8.101562 0.171875 7.6875 0.171875 C 7.164062 0.171875 6.769531 0.015625 6.5 -0.296875 C 6.226562 -0.617188 6.09375 -1.070312 6.09375 -1.65625 L 6 -1.65625 C 5.675781 -1.0625 5.25 -0.609375 4.71875 -0.296875 C 4.195312 0.00390625 3.601562 0.15625 2.9375 0.15625 C 2.226562 0.15625 1.65625 -0.0390625 1.21875 -0.4375 C 0.789062 -0.84375 0.578125 -1.367188 0.578125 -2.015625 C 0.578125 -2.515625 0.796875 -2.984375 1.234375 -3.421875 C 1.679688 -3.859375 2.421875 -4.285156 3.453125 -4.703125 Z M 5.84375 -5.75 "/></g></g><g style="fill:#1b438c;fill-opacity:1;"><g transform="translate(46.741969, 19.7218)"><path style="stroke:none" d="M 4.390625 -2.640625 C 4.390625 -2.191406 4.40625 -1.835938 4.4375 -1.578125 C 4.476562 -1.328125 4.5625 -1.132812 4.6875 -1 C 4.8125 -0.863281 4.992188 -0.773438 5.234375 -0.734375 C 5.472656 -0.703125 5.789062 -0.6875 6.1875 -0.6875 L 6.1875 0 L 0.515625 0 L 0.515625 -0.6875 C 0.847656 -0.707031 1.113281 -0.738281 1.3125 -0.78125 C 1.519531 -0.820312 1.675781 -0.910156 1.78125 -1.046875 C 1.882812 -1.191406 1.945312 -1.390625 1.96875 -1.640625 C 2 -1.890625 2.015625 -2.234375 2.015625 -2.671875 L 2.015625 -4.75 C 2.015625 -5.445312 2 -6.003906 1.96875 -6.421875 C 1.9375 -6.847656 1.863281 -7.171875 1.75 -7.390625 C 1.632812 -7.617188 1.472656 -7.769531 1.265625 -7.84375 C 1.054688 -7.914062 0.78125 -7.953125 0.4375 -7.953125 L 0.4375 -8.546875 L 3.84375 -9.1875 L 4.109375 -7.21875 L 4.1875 -7.21875 C 4.488281 -7.820312 4.890625 -8.300781 5.390625 -8.65625 C 5.890625 -9.007812 6.414062 -9.1875 6.96875 -9.1875 C 7.394531 -9.1875 7.742188 -9.078125 8.015625 -8.859375 C 8.296875 -8.640625 8.4375 -8.367188 8.4375 -8.046875 C 8.4375 -7.679688 8.328125 -7.375 8.109375 -7.125 C 7.898438 -6.875 7.617188 -6.75 7.265625 -6.75 C 7.085938 -6.75 6.929688 -6.78125 6.796875 -6.84375 C 6.660156 -6.914062 6.535156 -6.992188 6.421875 -7.078125 C 6.316406 -7.160156 6.210938 -7.238281 6.109375 -7.3125 C 6.003906 -7.382812 5.894531 -7.421875 5.78125 -7.421875 C 5.5625 -7.421875 5.351562 -7.28125 5.15625 -7 C 4.96875 -6.71875 4.8125 -6.335938 4.6875 -5.859375 C 4.601562 -5.523438 4.53125 -5.144531 4.46875 -4.71875 C 4.414062 -4.289062 4.390625 -3.867188 4.390625 -3.453125 Z M 4.390625 -2.640625 "/></g></g><g style="fill:#1b438c;fill-opacity:1;"><g transform="translate(55.208784, 19.7218)"><path style="stroke:none" d="M 4.375 -2.765625 C 4.375 -2.304688 4.382812 -1.941406 4.40625 -1.671875 C 4.4375 -1.410156 4.5 -1.207031 4.59375 -1.0625 C 4.695312 -0.914062 4.847656 -0.820312 5.046875 -0.78125 C 5.242188 -0.738281 5.507812 -0.707031 5.84375 -0.6875 L 5.84375 0 L 0.5 0 L 0.5 -0.6875 C 0.820312 -0.707031 1.082031 -0.738281 1.28125 -0.78125 C 1.476562 -0.820312 1.628906 -0.910156 1.734375 -1.046875 C 1.847656 -1.191406 1.921875 -1.382812 1.953125 -1.625 C 1.984375 -1.875 2 -2.21875 2 -2.65625 L 2 -4.78125 C 2 -5.445312 1.988281 -5.984375 1.96875 -6.390625 C 1.945312 -6.804688 1.921875 -7.085938 1.890625 -7.234375 C 1.859375 -7.390625 1.8125 -7.515625 1.75 -7.609375 C 1.695312 -7.703125 1.613281 -7.773438 1.5 -7.828125 C 1.382812 -7.878906 1.238281 -7.910156 1.0625 -7.921875 C 0.894531 -7.941406 0.679688 -7.953125 0.421875 -7.953125 L 0.421875 -8.53125 L 3.703125 -9.1875 L 3.921875 -7.6875 L 4 -7.6875 C 4.375 -8.15625 4.816406 -8.519531 5.328125 -8.78125 C 5.835938 -9.050781 6.394531 -9.1875 7 -9.1875 C 7.726562 -9.1875 8.316406 -9.082031 8.765625 -8.875 C 9.210938 -8.675781 9.613281 -8.347656 9.96875 -7.890625 C 10.15625 -7.628906 10.320312 -7.289062 10.46875 -6.875 C 10.613281 -6.457031 10.6875 -5.890625 10.6875 -5.171875 L 10.6875 -2.765625 C 10.6875 -2.304688 10.703125 -1.941406 10.734375 -1.671875 C 10.765625 -1.410156 10.828125 -1.207031 10.921875 -1.0625 C 11.015625 -0.914062 11.15625 -0.820312 11.34375 -0.78125 C 11.539062 -0.738281 11.804688 -0.707031 12.140625 -0.6875 L 12.140625 0 L 6.8125 0 L 6.8125 -0.6875 C 7.15625 -0.695312 7.425781 -0.722656 7.625 -0.765625 C 7.820312 -0.816406 7.972656 -0.910156 8.078125 -1.046875 C 8.179688 -1.191406 8.25 -1.390625 8.28125 -1.640625 C 8.3125 -1.890625 8.328125 -2.226562 8.328125 -2.65625 L 8.328125 -4.96875 C 8.328125 -5.539062 8.289062 -6.023438 8.21875 -6.421875 C 8.15625 -6.816406 8.046875 -7.132812 7.890625 -7.375 C 7.742188 -7.625 7.546875 -7.800781 7.296875 -7.90625 C 7.046875 -8.019531 6.734375 -8.078125 6.359375 -8.078125 C 5.992188 -8.078125 5.679688 -7.972656 5.421875 -7.765625 C 5.160156 -7.566406 4.9375 -7.285156 4.75 -6.921875 C 4.644531 -6.710938 4.554688 -6.445312 4.484375 -6.125 C 4.410156 -5.800781 4.375 -5.460938 4.375 -5.109375 Z M 4.375 -2.765625 "/></g></g><g style="fill:#1b438c;fill-opacity:1;"><g transform="translate(67.56898, 19.7218)"><path style="stroke:none" d=""/></g></g><g style="fill:#1b438c;fill-opacity:1;"><g transform="translate(72.091413, 19.7218)"><path style="stroke:none" d="M 9.875 -3.171875 L 13.796875 -13.09375 L 18.765625 -13.09375 L 18.765625 -12.40625 C 18.390625 -12.40625 18.085938 -12.367188 17.859375 -12.296875 C 17.628906 -12.222656 17.453125 -12.085938 17.328125 -11.890625 C 17.203125 -11.703125 17.117188 -11.441406 17.078125 -11.109375 C 17.035156 -10.773438 17.015625 -10.351562 17.015625 -9.84375 L 17.015625 -3.25 C 17.015625 -2.675781 17.035156 -2.222656 17.078125 -1.890625 C 17.128906 -1.566406 17.222656 -1.3125 17.359375 -1.125 C 17.492188 -0.945312 17.6875 -0.832031 17.9375 -0.78125 C 18.195312 -0.726562 18.535156 -0.695312 18.953125 -0.6875 L 18.953125 0 L 12.5625 0 L 12.5625 -0.6875 C 12.976562 -0.695312 13.3125 -0.734375 13.5625 -0.796875 C 13.820312 -0.859375 14.019531 -0.972656 14.15625 -1.140625 C 14.300781 -1.304688 14.394531 -1.546875 14.4375 -1.859375 C 14.488281 -2.171875 14.515625 -2.59375 14.515625 -3.125 L 14.515625 -11.078125 L 14.4375 -11.078125 L 9.859375 0.171875 L 8.609375 0.171875 L 3.875 -11.078125 L 3.8125 -11.078125 L 3.8125 -3.25 C 3.8125 -2.675781 3.832031 -2.222656 3.875 -1.890625 C 3.914062 -1.566406 4.003906 -1.3125 4.140625 -1.125 C 4.285156 -0.945312 4.484375 -0.832031 4.734375 -0.78125 C 4.984375 -0.726562 5.320312 -0.695312 5.75 -0.6875 L 5.75 0 L 0.515625 0 L 0.515625 -0.6875 C 0.929688 -0.695312 1.269531 -0.734375 1.53125 -0.796875 C 1.789062 -0.859375 1.988281 -0.972656 2.125 -1.140625 C 2.269531 -1.304688 2.363281 -1.546875 2.40625 -1.859375 C 2.457031 -2.171875 2.484375 -2.59375 2.484375 -3.125 L 2.484375 -9.96875 C 2.484375 -10.4375 2.457031 -10.828125 2.40625 -11.140625 C 2.363281 -11.460938 2.28125 -11.71875 2.15625 -11.90625 C 2.03125 -12.09375 1.851562 -12.222656 1.625 -12.296875 C 1.394531 -12.367188 1.085938 -12.40625 0.703125 -12.40625 L 0.703125 -13.09375 L 5.84375 -13.09375 L 9.8125 -3.171875 Z M 9.875 -3.171875 "/></g></g><g style="fill:#1b438c;fill-opacity:1;"><g transform="translate(91.167256, 19.7218)"><path style="stroke:none" d="M 5.578125 -9.1875 C 6.253906 -9.1875 6.894531 -9.066406 7.5 -8.828125 C 8.113281 -8.597656 8.648438 -8.28125 9.109375 -7.875 C 9.566406 -7.46875 9.925781 -6.984375 10.1875 -6.421875 C 10.457031 -5.859375 10.59375 -5.242188 10.59375 -4.578125 C 10.59375 -3.878906 10.457031 -3.238281 10.1875 -2.65625 C 9.925781 -2.082031 9.566406 -1.585938 9.109375 -1.171875 C 8.648438 -0.753906 8.113281 -0.425781 7.5 -0.1875 C 6.894531 0.0507812 6.253906 0.171875 5.578125 0.171875 C 4.910156 0.171875 4.273438 0.0546875 3.671875 -0.171875 C 3.066406 -0.410156 2.535156 -0.738281 2.078125 -1.15625 C 1.628906 -1.570312 1.273438 -2.070312 1.015625 -2.65625 C 0.753906 -3.238281 0.625 -3.878906 0.625 -4.578125 C 0.625 -5.242188 0.753906 -5.859375 1.015625 -6.421875 C 1.273438 -6.992188 1.628906 -7.484375 2.078125 -7.890625 C 2.535156 -8.296875 3.066406 -8.613281 3.671875 -8.84375 C 4.273438 -9.070312 4.910156 -9.1875 5.578125 -9.1875 Z M 5.578125 -8.1875 C 5.234375 -8.1875 4.921875 -8.097656 4.640625 -7.921875 C 4.359375 -7.753906 4.117188 -7.507812 3.921875 -7.1875 C 3.722656 -6.875 3.566406 -6.492188 3.453125 -6.046875 C 3.347656 -5.597656 3.296875 -5.101562 3.296875 -4.5625 C 3.296875 -3.988281 3.347656 -3.472656 3.453125 -3.015625 C 3.566406 -2.566406 3.722656 -2.179688 3.921875 -1.859375 C 4.117188 -1.546875 4.351562 -1.300781 4.625 -1.125 C 4.90625 -0.945312 5.222656 -0.859375 5.578125 -0.859375 C 5.929688 -0.859375 6.25 -0.945312 6.53125 -1.125 C 6.820312 -1.300781 7.066406 -1.550781 7.265625 -1.875 C 7.472656 -2.195312 7.632812 -2.582031 7.75 -3.03125 C 7.863281 -3.488281 7.921875 -4 7.921875 -4.5625 C 7.921875 -5.101562 7.863281 -5.59375 7.75 -6.03125 C 7.632812 -6.476562 7.472656 -6.863281 7.265625 -7.1875 C 7.066406 -7.507812 6.820312 -7.753906 6.53125 -7.921875 C 6.25 -8.097656 5.929688 -8.1875 5.578125 -8.1875 Z M 5.578125 -8.1875 "/></g></g><g style="fill:#1b438c;fill-opacity:1;"><g transform="translate(102.388333, 19.7218)"><path style="stroke:none" d="M 4.390625 -2.640625 C 4.390625 -2.191406 4.40625 -1.835938 4.4375 -1.578125 C 4.476562 -1.328125 4.5625 -1.132812 4.6875 -1 C 4.8125 -0.863281 4.992188 -0.773438 5.234375 -0.734375 C 5.472656 -0.703125 5.789062 -0.6875 6.1875 -0.6875 L 6.1875 0 L 0.515625 0 L 0.515625 -0.6875 C 0.847656 -0.707031 1.113281 -0.738281 1.3125 -0.78125 C 1.519531 -0.820312 1.675781 -0.910156 1.78125 -1.046875 C 1.882812 -1.191406 1.945312 -1.390625 1.96875 -1.640625 C 2 -1.890625 2.015625 -2.234375 2.015625 -2.671875 L 2.015625 -4.75 C 2.015625 -5.445312 2 -6.003906 1.96875 -6.421875 C 1.9375 -6.847656 1.863281 -7.171875 1.75 -7.390625 C 1.632812 -7.617188 1.472656 -7.769531 1.265625 -7.84375 C 1.054688 -7.914062 0.78125 -7.953125 0.4375 -7.953125 L 0.4375 -8.546875 L 3.84375 -9.1875 L 4.109375 -7.21875 L 4.1875 -7.21875 C 4.488281 -7.820312 4.890625 -8.300781 5.390625 -8.65625 C 5.890625 -9.007812 6.414062 -9.1875 6.96875 -9.1875 C 7.394531 -9.1875 7.742188 -9.078125 8.015625 -8.859375 C 8.296875 -8.640625 8.4375 -8.367188 8.4375 -8.046875 C 8.4375 -7.679688 8.328125 -7.375 8.109375 -7.125 C 7.898438 -6.875 7.617188 -6.75 7.265625 -6.75 C 7.085938 -6.75 6.929688 -6.78125 6.796875 -6.84375 C 6.660156 -6.914062 6.535156 -6.992188 6.421875 -7.078125 C 6.316406 -7.160156 6.210938 -7.238281 6.109375 -7.3125 C 6.003906 -7.382812 5.894531 -7.421875 5.78125 -7.421875 C 5.5625 -7.421875 5.351562 -7.28125 5.15625 -7 C 4.96875 -6.71875 4.8125 -6.335938 4.6875 -5.859375 C 4.601562 -5.523438 4.53125 -5.144531 4.46875 -4.71875 C 4.414062 -4.289062 4.390625 -3.867188 4.390625 -3.453125 Z M 4.390625 -2.640625 "/></g></g><g style="fill:#1b438c;fill-opacity:1;"><g transform="translate(110.753142, 19.7218)"><path style="stroke:none" d="M 9.1875 -1.578125 C 8.15625 -0.410156 6.867188 0.171875 5.328125 0.171875 C 4.617188 0.171875 3.976562 0.0625 3.40625 -0.15625 C 2.832031 -0.382812 2.34375 -0.695312 1.9375 -1.09375 C 1.53125 -1.5 1.210938 -1.976562 0.984375 -2.53125 C 0.753906 -3.082031 0.640625 -3.703125 0.640625 -4.390625 C 0.640625 -5.085938 0.757812 -5.726562 1 -6.3125 C 1.238281 -6.894531 1.578125 -7.398438 2.015625 -7.828125 C 2.453125 -8.253906 2.96875 -8.585938 3.5625 -8.828125 C 4.15625 -9.066406 4.8125 -9.1875 5.53125 -9.1875 C 6.726562 -9.1875 7.660156 -8.859375 8.328125 -8.203125 C 8.992188 -7.554688 9.328125 -6.648438 9.328125 -5.484375 C 9.328125 -5.304688 9.296875 -5.195312 9.234375 -5.15625 C 9.179688 -5.113281 9.023438 -5.09375 8.765625 -5.09375 L 3.296875 -5.09375 C 3.253906 -5 3.234375 -4.8125 3.234375 -4.53125 C 3.234375 -3.425781 3.472656 -2.550781 3.953125 -1.90625 C 4.429688 -1.257812 5.085938 -0.9375 5.921875 -0.9375 C 6.390625 -0.9375 6.859375 -1.039062 7.328125 -1.25 C 7.804688 -1.46875 8.265625 -1.773438 8.703125 -2.171875 Z M 5.875 -6.046875 C 6.332031 -6.046875 6.625 -6.070312 6.75 -6.125 C 6.882812 -6.175781 6.953125 -6.300781 6.953125 -6.5 C 6.953125 -6.988281 6.8125 -7.390625 6.53125 -7.703125 C 6.25 -8.023438 5.890625 -8.1875 5.453125 -8.1875 C 4.960938 -8.1875 4.53125 -7.984375 4.15625 -7.578125 C 3.78125 -7.179688 3.535156 -6.671875 3.421875 -6.046875 Z M 5.875 -6.046875 "/></g></g></g></svg>