<svg xmlns="http://www.w3.org/2000/svg" xmlns:xlink="http://www.w3.org/1999/xlink" width="183" zoomAndPan="magnify" viewBox="0 0 137.25 29.25" height="39" preserveAspectRatio="xMidYMid meet" version="1.2"><defs><clipPath id="87048a56ed"><path d="M 3.789062 2 L 131.757812 2 L 131.757812 27.789062 L 3.789062 27.789062 Z M 3.789062 2 "/></clipPath><clipPath id="5f18c3b8ed"><path d="M 3.789062 0 L 131.757812 0 L 131.757812 26 L 3.789062 26 Z M 3.789062 0 "/></clipPath></defs><g id="34167c23cc"><g clip-rule="nonzero" clip-path="url(#87048a56ed)"><path style=" stroke:none;fill-rule:nonzero;fill:#1b438c;fill-opacity:1;" d="M 10.640625 2.324219 L 125.242188 2.324219 C 125.699219 2.324219 126.148438 2.367188 126.59375 2.457031 C 127.039062 2.542969 127.472656 2.675781 127.890625 2.851562 C 128.3125 3.023438 128.710938 3.238281 129.085938 3.488281 C 129.464844 3.742188 129.8125 4.027344 130.136719 4.347656 C 130.457031 4.671875 130.742188 5.019531 130.996094 5.398438 C 131.25 5.773438 131.460938 6.175781 131.636719 6.59375 C 131.808594 7.011719 131.941406 7.445312 132.027344 7.890625 C 132.117188 8.335938 132.160156 8.785156 132.160156 9.242188 L 132.160156 20.703125 C 132.160156 21.15625 132.117188 21.609375 132.027344 22.054688 C 131.941406 22.5 131.808594 22.929688 131.636719 23.351562 C 131.460938 23.769531 131.25 24.167969 130.996094 24.546875 C 130.742188 24.925781 130.457031 25.273438 130.136719 25.59375 C 129.8125 25.917969 129.464844 26.203125 129.085938 26.457031 C 128.710938 26.707031 128.3125 26.921875 127.890625 27.09375 C 127.472656 27.269531 127.039062 27.398438 126.59375 27.488281 C 126.148438 27.578125 125.699219 27.621094 125.242188 27.621094 L 10.640625 27.621094 C 10.1875 27.621094 9.738281 27.578125 9.292969 27.488281 C 8.847656 27.398438 8.414062 27.269531 7.992188 27.09375 C 7.574219 26.921875 7.175781 26.707031 6.796875 26.457031 C 6.421875 26.203125 6.070312 25.917969 5.75 25.59375 C 5.429688 25.273438 5.140625 24.925781 4.890625 24.546875 C 4.636719 24.167969 4.421875 23.769531 4.25 23.351562 C 4.074219 22.929688 3.945312 22.5 3.855469 22.054688 C 3.765625 21.609375 3.722656 21.15625 3.722656 20.703125 L 3.722656 9.242188 C 3.722656 8.785156 3.765625 8.335938 3.855469 7.890625 C 3.945312 7.445312 4.074219 7.011719 4.25 6.59375 C 4.421875 6.175781 4.636719 5.773438 4.890625 5.398438 C 5.140625 5.019531 5.429688 4.671875 5.75 4.347656 C 6.070312 4.027344 6.421875 3.742188 6.796875 3.488281 C 7.175781 3.238281 7.574219 3.023438 7.992188 2.851562 C 8.414062 2.675781 8.847656 2.542969 9.292969 2.457031 C 9.738281 2.367188 10.1875 2.324219 10.640625 2.324219 Z M 10.640625 2.324219 "/></g><g clip-rule="nonzero" clip-path="url(#5f18c3b8ed)"><path style=" stroke:none;fill-rule:nonzero;fill:#69c8ca;fill-opacity:1;" d="M 10.640625 0 L 125.242188 0 C 125.699219 0 126.148438 0.0429688 126.59375 0.132812 C 127.039062 0.222656 127.472656 0.351562 127.890625 0.527344 C 128.3125 0.699219 128.710938 0.914062 129.085938 1.164062 C 129.464844 1.417969 129.8125 1.703125 130.136719 2.027344 C 130.457031 2.347656 130.742188 2.695312 130.996094 3.074219 C 131.25 3.453125 131.460938 3.851562 131.636719 4.269531 C 131.808594 4.691406 131.941406 5.121094 132.027344 5.566406 C 132.117188 6.015625 132.160156 6.464844 132.160156 6.917969 L 132.160156 18.378906 C 132.160156 18.835938 132.117188 19.285156 132.027344 19.730469 C 131.941406 20.175781 131.808594 20.609375 131.636719 21.027344 C 131.460938 21.449219 131.25 21.847656 130.996094 22.222656 C 130.742188 22.601562 130.457031 22.953125 130.136719 23.273438 C 129.8125 23.59375 129.464844 23.878906 129.085938 24.132812 C 128.710938 24.386719 128.3125 24.597656 127.890625 24.773438 C 127.472656 24.945312 127.039062 25.078125 126.59375 25.164062 C 126.148438 25.253906 125.699219 25.296875 125.242188 25.296875 L 10.640625 25.296875 C 10.1875 25.296875 9.738281 25.253906 9.292969 25.164062 C 8.847656 25.078125 8.414062 24.945312 7.992188 24.773438 C 7.574219 24.597656 7.175781 24.386719 6.796875 24.132812 C 6.421875 23.878906 6.070312 23.59375 5.75 23.273438 C 5.429688 22.953125 5.140625 22.601562 4.890625 22.222656 C 4.636719 21.847656 4.421875 21.449219 4.25 21.027344 C 4.074219 20.609375 3.945312 20.175781 3.855469 19.730469 C 3.765625 19.285156 3.722656 18.835938 3.722656 18.378906 L 3.722656 6.917969 C 3.722656 6.464844 3.765625 6.015625 3.855469 5.566406 C 3.945312 5.121094 4.074219 4.691406 4.25 4.269531 C 4.421875 3.851562 4.636719 3.453125 4.890625 3.074219 C 5.140625 2.695312 5.429688 2.347656 5.75 2.027344 C 6.070312 1.703125 6.421875 1.417969 6.796875 1.164062 C 7.175781 0.914062 7.574219 0.699219 7.992188 0.527344 C 8.414062 0.351562 8.847656 0.222656 9.292969 0.132812 C 9.738281 0.0429688 10.1875 0 10.640625 0 Z M 10.640625 0 "/></g><g style="fill:#1b438c;fill-opacity:1;"><g transform="translate(34.039645, 19.884216)"><path style="stroke:none" d="M 0.9375 -4.453125 L 1.625 -4.453125 C 1.78125 -3.347656 2.21875 -2.476562 2.9375 -1.84375 C 3.664062 -1.207031 4.554688 -0.890625 5.609375 -0.890625 C 6.046875 -0.890625 6.441406 -0.941406 6.796875 -1.046875 C 7.160156 -1.148438 7.46875 -1.296875 7.71875 -1.484375 C 7.976562 -1.679688 8.175781 -1.910156 8.3125 -2.171875 C 8.457031 -2.429688 8.53125 -2.722656 8.53125 -3.046875 C 8.53125 -3.328125 8.484375 -3.566406 8.390625 -3.765625 C 8.304688 -3.972656 8.140625 -4.171875 7.890625 -4.359375 C 7.648438 -4.554688 7.316406 -4.753906 6.890625 -4.953125 C 6.472656 -5.148438 5.925781 -5.375 5.25 -5.625 C 3.882812 -6.15625 2.875 -6.765625 2.21875 -7.453125 C 1.570312 -8.140625 1.25 -8.957031 1.25 -9.90625 C 1.25 -10.445312 1.351562 -10.941406 1.5625 -11.390625 C 1.78125 -11.847656 2.078125 -12.238281 2.453125 -12.5625 C 2.828125 -12.894531 3.28125 -13.148438 3.8125 -13.328125 C 4.34375 -13.503906 4.925781 -13.59375 5.5625 -13.59375 C 6.15625 -13.59375 6.710938 -13.5 7.234375 -13.3125 C 7.753906 -13.132812 8.269531 -12.859375 8.78125 -12.484375 L 9.109375 -13.359375 L 9.515625 -13.359375 L 9.71875 -9.59375 L 9.03125 -9.59375 C 8.75 -10.539062 8.3125 -11.265625 7.71875 -11.765625 C 7.125 -12.273438 6.441406 -12.53125 5.671875 -12.53125 C 4.953125 -12.53125 4.367188 -12.351562 3.921875 -12 C 3.472656 -11.644531 3.25 -11.191406 3.25 -10.640625 C 3.25 -10.390625 3.285156 -10.164062 3.359375 -9.96875 C 3.441406 -9.78125 3.59375 -9.597656 3.8125 -9.421875 C 4.039062 -9.253906 4.34375 -9.078125 4.71875 -8.890625 C 5.101562 -8.710938 5.597656 -8.515625 6.203125 -8.296875 C 7.015625 -7.984375 7.707031 -7.664062 8.28125 -7.34375 C 8.863281 -7.03125 9.335938 -6.6875 9.703125 -6.3125 C 10.066406 -5.945312 10.335938 -5.5625 10.515625 -5.15625 C 10.691406 -4.75 10.78125 -4.300781 10.78125 -3.8125 C 10.78125 -3.21875 10.648438 -2.675781 10.390625 -2.1875 C 10.140625 -1.707031 9.78125 -1.289062 9.3125 -0.9375 C 8.851562 -0.59375 8.304688 -0.320312 7.671875 -0.125 C 7.046875 0.0703125 6.347656 0.171875 5.578125 0.171875 C 4.878906 0.171875 4.25 0.078125 3.6875 -0.109375 C 3.132812 -0.304688 2.5625 -0.617188 1.96875 -1.046875 L 1.625 0 L 1.203125 0 Z M 0.9375 -4.453125 "/></g></g><g style="fill:#1b438c;fill-opacity:1;"><g transform="translate(45.504757, 19.884216)"><path style="stroke:none" d="M 8.109375 -6.375 C 8.109375 -6.84375 8.09375 -7.210938 8.0625 -7.484375 C 8.039062 -7.765625 7.976562 -7.972656 7.875 -8.109375 C 7.769531 -8.253906 7.613281 -8.351562 7.40625 -8.40625 C 7.207031 -8.457031 6.9375 -8.503906 6.59375 -8.546875 L 6.59375 -9.234375 L 10.53125 -9.234375 L 10.53125 -3.953125 C 10.53125 -3.242188 10.535156 -2.6875 10.546875 -2.28125 C 10.566406 -1.882812 10.601562 -1.585938 10.65625 -1.390625 C 10.6875 -1.242188 10.722656 -1.125 10.765625 -1.03125 C 10.816406 -0.945312 10.894531 -0.878906 11 -0.828125 C 11.101562 -0.773438 11.242188 -0.738281 11.421875 -0.71875 C 11.609375 -0.707031 11.847656 -0.703125 12.140625 -0.703125 L 12.140625 -0.015625 L 8.671875 0.1875 L 8.46875 -1.359375 L 8.40625 -1.359375 C 8.101562 -0.867188 7.675781 -0.488281 7.125 -0.21875 C 6.582031 0.0390625 5.972656 0.171875 5.296875 0.171875 C 4.054688 0.171875 3.109375 -0.269531 2.453125 -1.15625 C 1.953125 -1.820312 1.703125 -2.78125 1.703125 -4.03125 L 1.703125 -6.375 C 1.703125 -6.851562 1.691406 -7.226562 1.671875 -7.5 C 1.648438 -7.78125 1.585938 -7.988281 1.484375 -8.125 C 1.390625 -8.257812 1.242188 -8.351562 1.046875 -8.40625 C 0.847656 -8.457031 0.578125 -8.503906 0.234375 -8.546875 L 0.234375 -9.234375 L 4.125 -9.234375 L 4.125 -4.3125 C 4.125 -3.132812 4.269531 -2.28125 4.5625 -1.75 C 4.851562 -1.21875 5.320312 -0.953125 5.96875 -0.953125 C 6.65625 -0.953125 7.179688 -1.269531 7.546875 -1.90625 C 7.921875 -2.507812 8.109375 -3.394531 8.109375 -4.5625 Z M 8.109375 -6.375 "/></g></g><g style="fill:#1b438c;fill-opacity:1;"><g transform="translate(57.858548, 19.884216)"><path style="stroke:none" d="M 3.921875 -3.8125 C 3.921875 -3.382812 3.984375 -2.988281 4.109375 -2.625 C 4.234375 -2.257812 4.398438 -1.941406 4.609375 -1.671875 C 4.816406 -1.398438 5.066406 -1.1875 5.359375 -1.03125 C 5.648438 -0.882812 5.96875 -0.8125 6.3125 -0.8125 C 7.007812 -0.8125 7.535156 -1.128906 7.890625 -1.765625 C 8.253906 -2.410156 8.4375 -3.359375 8.4375 -4.609375 C 8.4375 -5.816406 8.257812 -6.734375 7.90625 -7.359375 C 7.550781 -7.992188 7.019531 -8.3125 6.3125 -8.3125 C 5.894531 -8.3125 5.507812 -8.195312 5.15625 -7.96875 C 4.800781 -7.75 4.523438 -7.4375 4.328125 -7.03125 C 4.054688 -6.46875 3.921875 -5.765625 3.921875 -4.921875 Z M 3.890625 -8.03125 L 3.953125 -8.03125 C 4.253906 -8.476562 4.644531 -8.820312 5.125 -9.0625 C 5.601562 -9.300781 6.144531 -9.421875 6.75 -9.421875 C 7.363281 -9.421875 7.9375 -9.296875 8.46875 -9.046875 C 9 -8.796875 9.457031 -8.453125 9.84375 -8.015625 C 10.226562 -7.585938 10.53125 -7.082031 10.75 -6.5 C 10.976562 -5.914062 11.09375 -5.296875 11.09375 -4.640625 C 11.09375 -3.941406 10.972656 -3.296875 10.734375 -2.703125 C 10.492188 -2.117188 10.164062 -1.613281 9.75 -1.1875 C 9.34375 -0.757812 8.863281 -0.421875 8.3125 -0.171875 C 7.757812 0.0664062 7.175781 0.1875 6.5625 0.1875 C 5.914062 0.1875 5.3125 0.0625 4.75 -0.1875 C 4.1875 -0.4375 3.738281 -0.765625 3.40625 -1.171875 L 2.078125 0 L 1.484375 0 L 1.484375 -10.375 C 1.484375 -11.46875 1.40625 -12.21875 1.25 -12.625 C 1.21875 -12.707031 1.175781 -12.773438 1.125 -12.828125 C 1.082031 -12.890625 1.015625 -12.941406 0.921875 -12.984375 C 0.835938 -13.023438 0.71875 -13.054688 0.5625 -13.078125 C 0.414062 -13.109375 0.222656 -13.144531 -0.015625 -13.1875 L -0.015625 -13.78125 L 3.890625 -14.46875 Z M 3.890625 -8.03125 "/></g></g><g style="fill:#1b438c;fill-opacity:1;"><g transform="translate(69.602488, 19.884216)"><path style="stroke:none" d="M 4.5 -2.875 C 4.5 -2.382812 4.507812 -2 4.53125 -1.71875 C 4.550781 -1.445312 4.613281 -1.238281 4.71875 -1.09375 C 4.820312 -0.945312 4.972656 -0.847656 5.171875 -0.796875 C 5.367188 -0.753906 5.644531 -0.722656 6 -0.703125 L 6 0 L 0.484375 0 L 0.484375 -0.703125 C 0.835938 -0.722656 1.117188 -0.753906 1.328125 -0.796875 C 1.535156 -0.847656 1.691406 -0.941406 1.796875 -1.078125 C 1.898438 -1.222656 1.96875 -1.425781 2 -1.6875 C 2.039062 -1.945312 2.0625 -2.296875 2.0625 -2.734375 L 2.0625 -4.90625 C 2.0625 -5.5625 2.050781 -6.109375 2.03125 -6.546875 C 2.007812 -6.992188 1.976562 -7.300781 1.9375 -7.46875 C 1.90625 -7.613281 1.859375 -7.726562 1.796875 -7.8125 C 1.742188 -7.90625 1.660156 -7.976562 1.546875 -8.03125 C 1.441406 -8.082031 1.300781 -8.113281 1.125 -8.125 C 0.957031 -8.144531 0.734375 -8.15625 0.453125 -8.15625 L 0.453125 -8.75 L 3.8125 -9.421875 L 4.03125 -7.90625 L 4.125 -7.90625 C 4.613281 -8.445312 5.101562 -8.832031 5.59375 -9.0625 C 6.09375 -9.300781 6.671875 -9.421875 7.328125 -9.421875 C 8.085938 -9.421875 8.71875 -9.285156 9.21875 -9.015625 C 9.71875 -8.742188 10.097656 -8.359375 10.359375 -7.859375 L 10.421875 -7.859375 C 10.847656 -8.347656 11.347656 -8.726562 11.921875 -9 C 12.503906 -9.28125 13.128906 -9.421875 13.796875 -9.421875 C 14.492188 -9.421875 15.097656 -9.332031 15.609375 -9.15625 C 16.128906 -8.976562 16.535156 -8.726562 16.828125 -8.40625 C 17.054688 -8.132812 17.222656 -7.785156 17.328125 -7.359375 C 17.441406 -6.929688 17.5 -6.332031 17.5 -5.5625 L 17.5 -2.875 C 17.5 -2.394531 17.515625 -2.015625 17.546875 -1.734375 C 17.578125 -1.460938 17.644531 -1.25 17.75 -1.09375 C 17.851562 -0.945312 18.003906 -0.847656 18.203125 -0.796875 C 18.398438 -0.753906 18.675781 -0.722656 19.03125 -0.703125 L 19.03125 0 L 13.515625 0 L 13.515625 -0.703125 C 13.859375 -0.710938 14.128906 -0.742188 14.328125 -0.796875 C 14.535156 -0.847656 14.695312 -0.945312 14.8125 -1.09375 C 14.925781 -1.238281 14.992188 -1.4375 15.015625 -1.6875 C 15.046875 -1.945312 15.0625 -2.296875 15.0625 -2.734375 L 15.0625 -5.015625 C 15.0625 -5.617188 15.023438 -6.128906 14.953125 -6.546875 C 14.890625 -6.972656 14.78125 -7.3125 14.625 -7.5625 C 14.476562 -7.820312 14.28125 -8.003906 14.03125 -8.109375 C 13.78125 -8.222656 13.472656 -8.28125 13.109375 -8.28125 C 12.703125 -8.28125 12.367188 -8.179688 12.109375 -7.984375 C 11.847656 -7.785156 11.628906 -7.53125 11.453125 -7.21875 C 11.148438 -6.675781 11 -5.992188 11 -5.171875 L 11 -2.875 C 11 -2.394531 11.007812 -2.015625 11.03125 -1.734375 C 11.0625 -1.460938 11.128906 -1.25 11.234375 -1.09375 C 11.335938 -0.945312 11.488281 -0.847656 11.6875 -0.796875 C 11.894531 -0.753906 12.175781 -0.722656 12.53125 -0.703125 L 12.53125 0 L 7.015625 0 L 7.015625 -0.703125 C 7.359375 -0.722656 7.628906 -0.753906 7.828125 -0.796875 C 8.035156 -0.847656 8.191406 -0.941406 8.296875 -1.078125 C 8.410156 -1.222656 8.484375 -1.425781 8.515625 -1.6875 C 8.546875 -1.945312 8.5625 -2.296875 8.5625 -2.734375 L 8.5625 -5.015625 C 8.5625 -5.617188 8.523438 -6.128906 8.453125 -6.546875 C 8.390625 -6.972656 8.273438 -7.3125 8.109375 -7.5625 C 7.953125 -7.820312 7.742188 -8.003906 7.484375 -8.109375 C 7.234375 -8.222656 6.914062 -8.28125 6.53125 -8.28125 C 6.15625 -8.28125 5.84375 -8.1875 5.59375 -8 C 5.34375 -7.8125 5.132812 -7.5625 4.96875 -7.25 C 4.820312 -6.96875 4.707031 -6.644531 4.625 -6.28125 C 4.539062 -5.925781 4.5 -5.554688 4.5 -5.171875 Z M 4.5 -2.875 "/></g></g><g style="fill:#1b438c;fill-opacity:1;"><g transform="translate(88.873707, 19.884216)"><path style="stroke:none" d="M 4.484375 -2.859375 C 4.484375 -2.390625 4.5 -2.015625 4.53125 -1.734375 C 4.570312 -1.460938 4.644531 -1.25 4.75 -1.09375 C 4.851562 -0.945312 5.003906 -0.847656 5.203125 -0.796875 C 5.398438 -0.742188 5.664062 -0.710938 6 -0.703125 L 6 0 L 0.5 0 L 0.5 -0.703125 C 0.832031 -0.710938 1.097656 -0.75 1.296875 -0.8125 C 1.503906 -0.875 1.660156 -0.976562 1.765625 -1.125 C 1.878906 -1.269531 1.957031 -1.472656 2 -1.734375 C 2.039062 -1.992188 2.0625 -2.328125 2.0625 -2.734375 L 2.0625 -4.875 C 2.0625 -5.550781 2.046875 -6.109375 2.015625 -6.546875 C 1.992188 -6.984375 1.96875 -7.285156 1.9375 -7.453125 C 1.875 -7.734375 1.738281 -7.921875 1.53125 -8.015625 C 1.332031 -8.109375 0.96875 -8.15625 0.4375 -8.15625 L 0.4375 -8.75 L 4.484375 -9.421875 Z M 1.921875 -13.109375 C 1.921875 -13.492188 2.050781 -13.816406 2.3125 -14.078125 C 2.570312 -14.335938 2.890625 -14.46875 3.265625 -14.46875 C 3.648438 -14.46875 3.972656 -14.335938 4.234375 -14.078125 C 4.492188 -13.816406 4.625 -13.492188 4.625 -13.109375 C 4.625 -12.742188 4.492188 -12.425781 4.234375 -12.15625 C 3.972656 -11.894531 3.648438 -11.765625 3.265625 -11.765625 C 2.890625 -11.765625 2.570312 -11.894531 2.3125 -12.15625 C 2.050781 -12.425781 1.921875 -12.742188 1.921875 -13.109375 Z M 1.921875 -13.109375 "/></g></g><g style="fill:#1b438c;fill-opacity:1;"><g transform="translate(95.163856, 19.884216)"><path style="stroke:none" d="M 0.4375 -8.28125 L 0.4375 -9.0625 C 1.132812 -9.257812 1.71875 -9.554688 2.1875 -9.953125 C 2.65625 -10.359375 3.007812 -10.828125 3.25 -11.359375 L 4.125 -11.359375 L 4.125 -9.234375 L 6.140625 -9.234375 L 6.140625 -8.28125 L 4.125 -8.28125 L 4.125 -2.921875 C 4.125 -2.203125 4.203125 -1.691406 4.359375 -1.390625 C 4.523438 -1.085938 4.789062 -0.9375 5.15625 -0.9375 C 5.613281 -0.9375 5.957031 -1.144531 6.1875 -1.5625 L 6.5625 -1.0625 C 6.226562 -0.238281 5.457031 0.171875 4.25 0.171875 C 3.445312 0.171875 2.820312 -0.0078125 2.375 -0.375 C 1.925781 -0.75 1.703125 -1.273438 1.703125 -1.953125 L 1.703125 -8.28125 Z M 0.4375 -8.28125 "/></g></g></g></svg>