<svg xmlns="http://www.w3.org/2000/svg" xmlns:xlink="http://www.w3.org/1999/xlink" width="187" zoomAndPan="magnify" viewBox="0 0 140.25 29.25" height="39" preserveAspectRatio="xMidYMid meet" version="1.2"><defs><clipPath id="c6c4a57fc0"><path d="M 1.410156 0 L 138 0 L 138 28.3125 L 1.410156 28.3125 Z M 1.410156 0 "/></clipPath><clipPath id="0565c483bb"><path d="M 12.375 0 L 126.925781 0 C 129.835938 0 132.625 1.15625 134.679688 3.210938 C 136.734375 5.269531 137.890625 8.058594 137.890625 10.964844 L 137.890625 17.210938 C 137.890625 20.117188 136.734375 22.90625 134.679688 24.964844 C 132.625 27.019531 129.835938 28.175781 126.925781 28.175781 L 12.375 28.175781 C 9.46875 28.175781 6.679688 27.019531 4.621094 24.964844 C 2.566406 22.90625 1.410156 20.117188 1.410156 17.210938 L 1.410156 10.964844 C 1.410156 8.058594 2.566406 5.269531 4.621094 3.210938 C 6.679688 1.15625 9.46875 0 12.375 0 Z M 12.375 0 "/></clipPath><radialGradient gradientTransform="matrix(1.367522,0,0,1.367522,0.000000000226346,-0.000000000000031973)" id="b929000020" gradientUnits="userSpaceOnUse" r="139.359047" cx="0" fx="0" cy="0" fy="0"><stop style="stop-color:#15898b;stop-opacity:1;" offset="0"/><stop style="stop-color:#168a8c;stop-opacity:1;" offset="0.00390625"/><stop style="stop-color:#178a8c;stop-opacity:1;" offset="0.0078125"/><stop style="stop-color:#178a8c;stop-opacity:1;" offset="0.0117188"/><stop style="stop-color:#188b8d;stop-opacity:1;" offset="0.015625"/><stop style="stop-color:#198b8d;stop-opacity:1;" offset="0.0195312"/><stop style="stop-color:#1a8c8e;stop-opacity:1;" offset="0.0234375"/><stop style="stop-color:#1a8c8e;stop-opacity:1;" offset="0.0273438"/><stop style="stop-color:#1b8d8f;stop-opacity:1;" offset="0.03125"/><stop style="stop-color:#1c8d8f;stop-opacity:1;" offset="0.0351562"/><stop style="stop-color:#1c8d8f;stop-opacity:1;" offset="0.0390625"/><stop style="stop-color:#1d8e90;stop-opacity:1;" offset="0.0429688"/><stop style="stop-color:#1e8e90;stop-opacity:1;" offset="0.046875"/><stop style="stop-color:#1f8f91;stop-opacity:1;" offset="0.0507812"/><stop style="stop-color:#1f8f91;stop-opacity:1;" offset="0.0546875"/><stop style="stop-color:#209091;stop-opacity:1;" offset="0.0585938"/><stop style="stop-color:#219092;stop-opacity:1;" offset="0.0625"/><stop style="stop-color:#219092;stop-opacity:1;" offset="0.0664062"/><stop style="stop-color:#229193;stop-opacity:1;" offset="0.0703125"/><stop style="stop-color:#239193;stop-opacity:1;" offset="0.0742188"/><stop style="stop-color:#249294;stop-opacity:1;" offset="0.078125"/><stop style="stop-color:#249294;stop-opacity:1;" offset="0.0820312"/><stop style="stop-color:#259394;stop-opacity:1;" offset="0.0859375"/><stop style="stop-color:#269395;stop-opacity:1;" offset="0.0898438"/><stop style="stop-color:#269395;stop-opacity:1;" offset="0.09375"/><stop style="stop-color:#279496;stop-opacity:1;" offset="0.0976562"/><stop style="stop-color:#289496;stop-opacity:1;" offset="0.101562"/><stop style="stop-color:#299596;stop-opacity:1;" offset="0.105469"/><stop style="stop-color:#299597;stop-opacity:1;" offset="0.109375"/><stop style="stop-color:#2a9697;stop-opacity:1;" offset="0.113281"/><stop style="stop-color:#2b9698;stop-opacity:1;" offset="0.117188"/><stop style="stop-color:#2b9698;stop-opacity:1;" offset="0.121094"/><stop style="stop-color:#2c9799;stop-opacity:1;" offset="0.125"/><stop style="stop-color:#2d9799;stop-opacity:1;" offset="0.128906"/><stop style="stop-color:#2e9899;stop-opacity:1;" offset="0.132812"/><stop style="stop-color:#2e989a;stop-opacity:1;" offset="0.136719"/><stop style="stop-color:#2f989a;stop-opacity:1;" offset="0.140625"/><stop style="stop-color:#30999b;stop-opacity:1;" offset="0.144531"/><stop style="stop-color:#30999b;stop-opacity:1;" offset="0.148438"/><stop style="stop-color:#319a9b;stop-opacity:1;" offset="0.152344"/><stop style="stop-color:#329a9c;stop-opacity:1;" offset="0.15625"/><stop style="stop-color:#339b9c;stop-opacity:1;" offset="0.160156"/><stop style="stop-color:#339b9d;stop-opacity:1;" offset="0.164062"/><stop style="stop-color:#349b9d;stop-opacity:1;" offset="0.167969"/><stop style="stop-color:#359c9e;stop-opacity:1;" offset="0.171875"/><stop style="stop-color:#359c9e;stop-opacity:1;" offset="0.175781"/><stop style="stop-color:#369d9e;stop-opacity:1;" offset="0.179688"/><stop style="stop-color:#379d9f;stop-opacity:1;" offset="0.183594"/><stop style="stop-color:#389e9f;stop-opacity:1;" offset="0.1875"/><stop style="stop-color:#389ea0;stop-opacity:1;" offset="0.191406"/><stop style="stop-color:#399ea0;stop-opacity:1;" offset="0.195312"/><stop style="stop-color:#3a9fa1;stop-opacity:1;" offset="0.199219"/><stop style="stop-color:#3a9fa1;stop-opacity:1;" offset="0.203125"/><stop style="stop-color:#3ba0a1;stop-opacity:1;" offset="0.207031"/><stop style="stop-color:#3ca0a2;stop-opacity:1;" offset="0.210938"/><stop style="stop-color:#3da1a2;stop-opacity:1;" offset="0.214844"/><stop style="stop-color:#3da1a3;stop-opacity:1;" offset="0.21875"/><stop style="stop-color:#3ea1a3;stop-opacity:1;" offset="0.222656"/><stop style="stop-color:#3fa2a3;stop-opacity:1;" offset="0.226562"/><stop style="stop-color:#3fa2a4;stop-opacity:1;" offset="0.230469"/><stop style="stop-color:#40a3a4;stop-opacity:1;" offset="0.234375"/><stop style="stop-color:#41a3a5;stop-opacity:1;" offset="0.238281"/><stop style="stop-color:#42a4a5;stop-opacity:1;" offset="0.242188"/><stop style="stop-color:#42a4a6;stop-opacity:1;" offset="0.246094"/><stop style="stop-color:#43a4a6;stop-opacity:1;" offset="0.25"/><stop style="stop-color:#44a5a6;stop-opacity:1;" offset="0.253906"/><stop style="stop-color:#44a5a7;stop-opacity:1;" offset="0.257812"/><stop style="stop-color:#45a6a7;stop-opacity:1;" offset="0.261719"/><stop style="stop-color:#46a6a8;stop-opacity:1;" offset="0.265625"/><stop style="stop-color:#47a7a8;stop-opacity:1;" offset="0.269531"/><stop style="stop-color:#47a7a8;stop-opacity:1;" offset="0.273438"/><stop style="stop-color:#48a7a9;stop-opacity:1;" offset="0.277344"/><stop style="stop-color:#49a8a9;stop-opacity:1;" offset="0.28125"/><stop style="stop-color:#49a8aa;stop-opacity:1;" offset="0.285156"/><stop style="stop-color:#4aa9aa;stop-opacity:1;" offset="0.289062"/><stop style="stop-color:#4ba9ab;stop-opacity:1;" offset="0.292969"/><stop style="stop-color:#4caaab;stop-opacity:1;" offset="0.296875"/><stop style="stop-color:#4caaab;stop-opacity:1;" offset="0.300781"/><stop style="stop-color:#4daaac;stop-opacity:1;" offset="0.304688"/><stop style="stop-color:#4eabac;stop-opacity:1;" offset="0.308594"/><stop style="stop-color:#4eabad;stop-opacity:1;" offset="0.3125"/><stop style="stop-color:#4facad;stop-opacity:1;" offset="0.316406"/><stop style="stop-color:#50acad;stop-opacity:1;" offset="0.320312"/><stop style="stop-color:#51adae;stop-opacity:1;" offset="0.324219"/><stop style="stop-color:#51adae;stop-opacity:1;" offset="0.328125"/><stop style="stop-color:#52adaf;stop-opacity:1;" offset="0.332031"/><stop style="stop-color:#53aeaf;stop-opacity:1;" offset="0.335938"/><stop style="stop-color:#53aeb0;stop-opacity:1;" offset="0.339844"/><stop style="stop-color:#54afb0;stop-opacity:1;" offset="0.34375"/><stop style="stop-color:#55afb0;stop-opacity:1;" offset="0.347656"/><stop style="stop-color:#56b0b1;stop-opacity:1;" offset="0.351562"/><stop style="stop-color:#56b0b1;stop-opacity:1;" offset="0.355469"/><stop style="stop-color:#57b0b2;stop-opacity:1;" offset="0.359375"/><stop style="stop-color:#58b1b2;stop-opacity:1;" offset="0.363281"/><stop style="stop-color:#58b1b3;stop-opacity:1;" offset="0.367188"/><stop style="stop-color:#59b2b3;stop-opacity:1;" offset="0.371094"/><stop style="stop-color:#5ab2b3;stop-opacity:1;" offset="0.375"/><stop style="stop-color:#5bb2b4;stop-opacity:1;" offset="0.378906"/><stop style="stop-color:#5bb3b4;stop-opacity:1;" offset="0.382812"/><stop style="stop-color:#5cb3b5;stop-opacity:1;" offset="0.386719"/><stop style="stop-color:#5db4b5;stop-opacity:1;" offset="0.390625"/><stop style="stop-color:#5eb4b5;stop-opacity:1;" offset="0.394531"/><stop style="stop-color:#5eb5b6;stop-opacity:1;" offset="0.398438"/><stop style="stop-color:#5fb5b6;stop-opacity:1;" offset="0.402344"/><stop style="stop-color:#60b5b7;stop-opacity:1;" offset="0.40625"/><stop style="stop-color:#60b6b7;stop-opacity:1;" offset="0.410156"/><stop style="stop-color:#61b6b8;stop-opacity:1;" offset="0.414062"/><stop style="stop-color:#62b7b8;stop-opacity:1;" offset="0.417969"/><stop style="stop-color:#63b7b8;stop-opacity:1;" offset="0.421875"/><stop style="stop-color:#63b8b9;stop-opacity:1;" offset="0.425781"/><stop style="stop-color:#64b8b9;stop-opacity:1;" offset="0.429688"/><stop style="stop-color:#65b8ba;stop-opacity:1;" offset="0.433594"/><stop style="stop-color:#65b9ba;stop-opacity:1;" offset="0.4375"/><stop style="stop-color:#66b9ba;stop-opacity:1;" offset="0.441406"/><stop style="stop-color:#67babb;stop-opacity:1;" offset="0.445312"/><stop style="stop-color:#68babb;stop-opacity:1;" offset="0.449219"/><stop style="stop-color:#68bbbc;stop-opacity:1;" offset="0.453125"/><stop style="stop-color:#69bbbc;stop-opacity:1;" offset="0.457031"/><stop style="stop-color:#6abbbd;stop-opacity:1;" offset="0.460938"/><stop style="stop-color:#6abcbd;stop-opacity:1;" offset="0.464844"/><stop style="stop-color:#6bbcbd;stop-opacity:1;" offset="0.46875"/><stop style="stop-color:#6cbdbe;stop-opacity:1;" offset="0.472656"/><stop style="stop-color:#6dbdbe;stop-opacity:1;" offset="0.476562"/><stop style="stop-color:#6dbebf;stop-opacity:1;" offset="0.480469"/><stop style="stop-color:#6ebebf;stop-opacity:1;" offset="0.484375"/><stop style="stop-color:#6fbebf;stop-opacity:1;" offset="0.488281"/><stop style="stop-color:#6fbfc0;stop-opacity:1;" offset="0.492188"/><stop style="stop-color:#70bfc0;stop-opacity:1;" offset="0.496094"/><stop style="stop-color:#71c0c1;stop-opacity:1;" offset="0.5"/><stop style="stop-color:#72c0c1;stop-opacity:1;" offset="0.503906"/><stop style="stop-color:#72c1c2;stop-opacity:1;" offset="0.507812"/><stop style="stop-color:#73c1c2;stop-opacity:1;" offset="0.511719"/><stop style="stop-color:#74c1c2;stop-opacity:1;" offset="0.515625"/><stop style="stop-color:#74c2c3;stop-opacity:1;" offset="0.519531"/><stop style="stop-color:#75c2c3;stop-opacity:1;" offset="0.523438"/><stop style="stop-color:#76c3c4;stop-opacity:1;" offset="0.527344"/><stop style="stop-color:#77c3c4;stop-opacity:1;" offset="0.53125"/><stop style="stop-color:#77c4c4;stop-opacity:1;" offset="0.535156"/><stop style="stop-color:#78c4c5;stop-opacity:1;" offset="0.539062"/><stop style="stop-color:#79c4c5;stop-opacity:1;" offset="0.542969"/><stop style="stop-color:#79c5c6;stop-opacity:1;" offset="0.546875"/><stop style="stop-color:#7ac5c6;stop-opacity:1;" offset="0.550781"/><stop style="stop-color:#7bc6c7;stop-opacity:1;" offset="0.554688"/><stop style="stop-color:#7cc6c7;stop-opacity:1;" offset="0.558594"/><stop style="stop-color:#7cc7c7;stop-opacity:1;" offset="0.5625"/><stop style="stop-color:#7dc7c8;stop-opacity:1;" offset="0.566406"/><stop style="stop-color:#7ec7c8;stop-opacity:1;" offset="0.570312"/><stop style="stop-color:#7ec8c9;stop-opacity:1;" offset="0.574219"/><stop style="stop-color:#7fc8c9;stop-opacity:1;" offset="0.578125"/><stop style="stop-color:#80c9ca;stop-opacity:1;" offset="0.582031"/><stop style="stop-color:#81c9ca;stop-opacity:1;" offset="0.585938"/><stop style="stop-color:#81caca;stop-opacity:1;" offset="0.589844"/><stop style="stop-color:#82cacb;stop-opacity:1;" offset="0.59375"/><stop style="stop-color:#83cacb;stop-opacity:1;" offset="0.597656"/><stop style="stop-color:#83cbcc;stop-opacity:1;" offset="0.601562"/><stop style="stop-color:#84cbcc;stop-opacity:1;" offset="0.605469"/><stop style="stop-color:#85cccc;stop-opacity:1;" offset="0.609375"/><stop style="stop-color:#86cccd;stop-opacity:1;" offset="0.613281"/><stop style="stop-color:#86cdcd;stop-opacity:1;" offset="0.617188"/><stop style="stop-color:#87cdce;stop-opacity:1;" offset="0.621094"/><stop style="stop-color:#88cdce;stop-opacity:1;" offset="0.625"/><stop style="stop-color:#88cecf;stop-opacity:1;" offset="0.628906"/><stop style="stop-color:#89cecf;stop-opacity:1;" offset="0.632812"/><stop style="stop-color:#8acfcf;stop-opacity:1;" offset="0.636719"/><stop style="stop-color:#8bcfd0;stop-opacity:1;" offset="0.640625"/><stop style="stop-color:#8bcfd0;stop-opacity:1;" offset="0.644531"/><stop style="stop-color:#8cd0d1;stop-opacity:1;" offset="0.648438"/><stop style="stop-color:#8dd0d1;stop-opacity:1;" offset="0.652344"/><stop style="stop-color:#8dd1d1;stop-opacity:1;" offset="0.65625"/><stop style="stop-color:#8ed1d2;stop-opacity:1;" offset="0.660156"/><stop style="stop-color:#8fd2d2;stop-opacity:1;" offset="0.664062"/><stop style="stop-color:#90d2d3;stop-opacity:1;" offset="0.667969"/><stop style="stop-color:#90d2d3;stop-opacity:1;" offset="0.671875"/><stop style="stop-color:#91d3d4;stop-opacity:1;" offset="0.675781"/><stop style="stop-color:#92d3d4;stop-opacity:1;" offset="0.679688"/><stop style="stop-color:#92d4d4;stop-opacity:1;" offset="0.683594"/><stop style="stop-color:#93d4d5;stop-opacity:1;" offset="0.6875"/><stop style="stop-color:#94d5d5;stop-opacity:1;" offset="0.691406"/><stop style="stop-color:#95d5d6;stop-opacity:1;" offset="0.695312"/><stop style="stop-color:#95d5d6;stop-opacity:1;" offset="0.699219"/><stop style="stop-color:#96d6d6;stop-opacity:1;" offset="0.703125"/><stop style="stop-color:#97d6d7;stop-opacity:1;" offset="0.707031"/><stop style="stop-color:#97d7d7;stop-opacity:1;" offset="0.710938"/><stop style="stop-color:#98d7d8;stop-opacity:1;" offset="0.714844"/><stop style="stop-color:#99d8d8;stop-opacity:1;" offset="0.71875"/><stop style="stop-color:#9ad8d9;stop-opacity:1;" offset="0.722656"/><stop style="stop-color:#9ad8d9;stop-opacity:1;" offset="0.726562"/><stop style="stop-color:#9bd9d9;stop-opacity:1;" offset="0.730469"/><stop style="stop-color:#9cd9da;stop-opacity:1;" offset="0.734375"/><stop style="stop-color:#9cdada;stop-opacity:1;" offset="0.738281"/><stop style="stop-color:#9ddadb;stop-opacity:1;" offset="0.742188"/><stop style="stop-color:#9edbdb;stop-opacity:1;" offset="0.746094"/><stop style="stop-color:#9fdbdc;stop-opacity:1;" offset="0.75"/><stop style="stop-color:#9fdbdc;stop-opacity:1;" offset="0.753906"/><stop style="stop-color:#a0dcdc;stop-opacity:1;" offset="0.757812"/><stop style="stop-color:#a1dcdd;stop-opacity:1;" offset="0.761719"/><stop style="stop-color:#a1dddd;stop-opacity:1;" offset="0.765625"/><stop style="stop-color:#a2ddde;stop-opacity:1;" offset="0.769531"/><stop style="stop-color:#a3dede;stop-opacity:1;" offset="0.773438"/><stop style="stop-color:#a4dede;stop-opacity:1;" offset="0.777344"/><stop style="stop-color:#a4dedf;stop-opacity:1;" offset="0.78125"/><stop style="stop-color:#a5dfdf;stop-opacity:1;" offset="0.785156"/><stop style="stop-color:#a6dfe0;stop-opacity:1;" offset="0.789062"/><stop style="stop-color:#a6e0e0;stop-opacity:1;" offset="0.792969"/><stop style="stop-color:#a7e0e1;stop-opacity:1;" offset="0.796875"/><stop style="stop-color:#a8e1e1;stop-opacity:1;" offset="0.800781"/><stop style="stop-color:#a9e1e1;stop-opacity:1;" offset="0.804688"/><stop style="stop-color:#a9e1e2;stop-opacity:1;" offset="0.808594"/><stop style="stop-color:#aae2e2;stop-opacity:1;" offset="0.8125"/><stop style="stop-color:#abe2e3;stop-opacity:1;" offset="0.816406"/><stop style="stop-color:#abe3e3;stop-opacity:1;" offset="0.820312"/><stop style="stop-color:#ace3e3;stop-opacity:1;" offset="0.824219"/><stop style="stop-color:#ade4e4;stop-opacity:1;" offset="0.828125"/><stop style="stop-color:#aee4e4;stop-opacity:1;" offset="0.832031"/><stop style="stop-color:#aee4e5;stop-opacity:1;" offset="0.835938"/><stop style="stop-color:#afe5e5;stop-opacity:1;" offset="0.839844"/><stop style="stop-color:#b0e5e6;stop-opacity:1;" offset="0.84375"/><stop style="stop-color:#b0e6e6;stop-opacity:1;" offset="0.847656"/><stop style="stop-color:#b1e6e6;stop-opacity:1;" offset="0.851562"/><stop style="stop-color:#b2e7e7;stop-opacity:1;" offset="0.855469"/><stop style="stop-color:#b3e7e7;stop-opacity:1;" offset="0.859375"/><stop style="stop-color:#b3e7e8;stop-opacity:1;" offset="0.863281"/><stop style="stop-color:#b4e8e8;stop-opacity:1;" offset="0.867188"/><stop style="stop-color:#b5e8e8;stop-opacity:1;" offset="0.871094"/><stop style="stop-color:#b5e9e9;stop-opacity:1;" offset="0.875"/><stop style="stop-color:#b6e9e9;stop-opacity:1;" offset="0.878906"/><stop style="stop-color:#b7e9ea;stop-opacity:1;" offset="0.882812"/><stop style="stop-color:#b8eaea;stop-opacity:1;" offset="0.886719"/><stop style="stop-color:#b8eaeb;stop-opacity:1;" offset="0.890625"/><stop style="stop-color:#b9ebeb;stop-opacity:1;" offset="0.894531"/><stop style="stop-color:#baebeb;stop-opacity:1;" offset="0.898438"/><stop style="stop-color:#baecec;stop-opacity:1;" offset="0.902344"/><stop style="stop-color:#bbecec;stop-opacity:1;" offset="0.90625"/><stop style="stop-color:#bceced;stop-opacity:1;" offset="0.910156"/><stop style="stop-color:#bdeded;stop-opacity:1;" offset="0.914062"/><stop style="stop-color:#bdeded;stop-opacity:1;" offset="0.917969"/><stop style="stop-color:#beeeee;stop-opacity:1;" offset="0.921875"/><stop style="stop-color:#bfeeee;stop-opacity:1;" offset="0.925781"/><stop style="stop-color:#bfefef;stop-opacity:1;" offset="0.929688"/><stop style="stop-color:#c0efef;stop-opacity:1;" offset="0.933594"/><stop style="stop-color:#c1eff0;stop-opacity:1;" offset="0.9375"/><stop style="stop-color:#c2f0f0;stop-opacity:1;" offset="0.941406"/><stop style="stop-color:#c2f0f0;stop-opacity:1;" offset="0.945312"/><stop style="stop-color:#c3f1f1;stop-opacity:1;" offset="0.949219"/><stop style="stop-color:#c4f1f1;stop-opacity:1;" offset="0.953125"/><stop style="stop-color:#c4f2f2;stop-opacity:1;" offset="0.957031"/><stop style="stop-color:#c5f2f2;stop-opacity:1;" offset="0.960938"/><stop style="stop-color:#c6f2f3;stop-opacity:1;" offset="0.964844"/><stop style="stop-color:#c7f3f3;stop-opacity:1;" offset="0.96875"/><stop style="stop-color:#c7f3f3;stop-opacity:1;" offset="0.972656"/><stop style="stop-color:#c8f4f4;stop-opacity:1;" offset="0.976562"/><stop style="stop-color:#c9f4f4;stop-opacity:1;" offset="0.980469"/><stop style="stop-color:#c9f5f5;stop-opacity:1;" offset="0.984375"/><stop style="stop-color:#caf5f5;stop-opacity:1;" offset="0.988281"/><stop style="stop-color:#cbf5f5;stop-opacity:1;" offset="0.992188"/><stop style="stop-color:#ccf6f6;stop-opacity:1;" offset="0.996094"/><stop style="stop-color:#ccf6f6;stop-opacity:1;" offset="1"/></radialGradient></defs><g id="5d95fb2092"><g clip-rule="nonzero" clip-path="url(#c6c4a57fc0)"><g clip-rule="nonzero" clip-path="url(#0565c483bb)"><path style="fill:none;stroke-width:8;stroke-linecap:butt;stroke-linejoin:miter;stroke:url(#b929000020);stroke-miterlimit:4;" d="M 14.99461 -0.00000133333 L 171.645268 -0.00000133333 C 175.624969 -0.00000133333 179.439072 1.581195 182.248901 4.391025 C 185.058731 7.206196 186.639928 11.020299 186.639928 14.994658 L 186.639928 23.536326 C 186.639928 27.510685 185.058731 31.324788 182.248901 34.13996 C 179.439072 36.949789 175.624969 38.530986 171.645268 38.530986 L 14.99461 38.530986 C 11.020251 38.530986 7.206148 36.949789 4.390977 34.13996 C 1.581147 31.324788 -0.0000493951 27.510685 -0.0000493951 23.536326 L -0.0000493951 14.994658 C -0.0000493951 11.020299 1.581147 7.206196 4.390977 4.391025 C 7.206148 1.581195 11.020251 -0.00000133333 14.99461 -0.00000133333 Z M 14.99461 -0.00000133333 " transform="matrix(0.73125,0,0,0.73125,1.410192,0.000000975)"/></g></g><g style="fill:#1b438c;fill-opacity:1;"><g transform="translate(10.423971, 17.487466)"><path style="stroke:none" d="M 5.9375 -2.328125 L 7.6875 -6.84375 C 7.863281 -7.28125 8.003906 -7.640625 8.109375 -7.921875 C 8.210938 -8.203125 8.289062 -8.429688 8.34375 -8.609375 C 8.394531 -8.796875 8.429688 -8.941406 8.453125 -9.046875 C 8.472656 -9.160156 8.484375 -9.265625 8.484375 -9.359375 C 8.484375 -9.578125 8.398438 -9.71875 8.234375 -9.78125 C 8.078125 -9.851562 7.753906 -9.890625 7.265625 -9.890625 L 7.265625 -10.4375 L 11.109375 -10.4375 L 11.109375 -9.890625 C 10.359375 -9.890625 9.835938 -9.523438 9.546875 -8.796875 L 5.984375 0.140625 L 4.984375 0.140625 L 1.75 -7.78125 C 1.570312 -8.195312 1.410156 -8.539062 1.265625 -8.8125 C 1.117188 -9.082031 0.960938 -9.296875 0.796875 -9.453125 C 0.640625 -9.617188 0.460938 -9.726562 0.265625 -9.78125 C 0.0664062 -9.84375 -0.160156 -9.875 -0.421875 -9.875 L -0.421875 -10.4375 L 4.703125 -10.4375 L 4.703125 -9.875 C 4.460938 -9.863281 4.265625 -9.847656 4.109375 -9.828125 C 3.953125 -9.816406 3.828125 -9.789062 3.734375 -9.75 C 3.648438 -9.707031 3.585938 -9.648438 3.546875 -9.578125 C 3.515625 -9.515625 3.5 -9.429688 3.5 -9.328125 C 3.5 -9.203125 3.519531 -9.050781 3.5625 -8.875 C 3.601562 -8.707031 3.671875 -8.503906 3.765625 -8.265625 Z M 5.9375 -2.328125 "/></g></g><g style="fill:#1b438c;fill-opacity:1;"><g transform="translate(21.12003, 17.487466)"><path style="stroke:none" d="M 3.484375 -2.21875 C 3.484375 -1.863281 3.492188 -1.578125 3.515625 -1.359375 C 3.546875 -1.140625 3.601562 -0.96875 3.6875 -0.84375 C 3.769531 -0.726562 3.882812 -0.648438 4.03125 -0.609375 C 4.1875 -0.578125 4.394531 -0.554688 4.65625 -0.546875 L 4.65625 0 L 0.390625 0 L 0.390625 -0.546875 C 0.640625 -0.554688 0.84375 -0.582031 1 -0.625 C 1.164062 -0.675781 1.289062 -0.757812 1.375 -0.875 C 1.457031 -0.988281 1.515625 -1.144531 1.546875 -1.34375 C 1.578125 -1.550781 1.59375 -1.8125 1.59375 -2.125 L 1.59375 -3.796875 C 1.59375 -4.316406 1.582031 -4.742188 1.5625 -5.078125 C 1.550781 -5.421875 1.53125 -5.65625 1.5 -5.78125 C 1.457031 -6.007812 1.359375 -6.160156 1.203125 -6.234375 C 1.046875 -6.304688 0.757812 -6.34375 0.34375 -6.34375 L 0.34375 -6.796875 L 3.484375 -7.3125 Z M 1.484375 -10.1875 C 1.484375 -10.488281 1.582031 -10.738281 1.78125 -10.9375 C 1.988281 -11.144531 2.238281 -11.25 2.53125 -11.25 C 2.832031 -11.25 3.082031 -11.144531 3.28125 -10.9375 C 3.488281 -10.738281 3.59375 -10.488281 3.59375 -10.1875 C 3.59375 -9.894531 3.488281 -9.644531 3.28125 -9.4375 C 3.082031 -9.238281 2.832031 -9.140625 2.53125 -9.140625 C 2.238281 -9.140625 1.988281 -9.238281 1.78125 -9.4375 C 1.582031 -9.644531 1.484375 -9.894531 1.484375 -10.1875 Z M 1.484375 -10.1875 "/></g></g><g style="fill:#1b438c;fill-opacity:1;"><g transform="translate(26.007799, 17.487466)"><path style="stroke:none" d="M 7.3125 -1.265625 C 6.488281 -0.328125 5.460938 0.140625 4.234375 0.140625 C 3.679688 0.140625 3.175781 0.0507812 2.71875 -0.125 C 2.257812 -0.300781 1.867188 -0.550781 1.546875 -0.875 C 1.222656 -1.195312 0.96875 -1.578125 0.78125 -2.015625 C 0.601562 -2.460938 0.515625 -2.957031 0.515625 -3.5 C 0.515625 -4.050781 0.609375 -4.5625 0.796875 -5.03125 C 0.984375 -5.5 1.25 -5.898438 1.59375 -6.234375 C 1.945312 -6.578125 2.359375 -6.84375 2.828125 -7.03125 C 3.304688 -7.21875 3.832031 -7.3125 4.40625 -7.3125 C 5.363281 -7.3125 6.109375 -7.050781 6.640625 -6.53125 C 7.171875 -6.019531 7.4375 -5.300781 7.4375 -4.375 C 7.4375 -4.226562 7.410156 -4.140625 7.359375 -4.109375 C 7.316406 -4.078125 7.191406 -4.0625 6.984375 -4.0625 L 2.625 -4.0625 C 2.59375 -3.976562 2.578125 -3.828125 2.578125 -3.609375 C 2.578125 -2.734375 2.765625 -2.035156 3.140625 -1.515625 C 3.523438 -1.003906 4.050781 -0.75 4.71875 -0.75 C 5.09375 -0.75 5.46875 -0.832031 5.84375 -1 C 6.21875 -1.175781 6.582031 -1.421875 6.9375 -1.734375 Z M 4.6875 -4.828125 C 5.050781 -4.828125 5.285156 -4.84375 5.390625 -4.875 C 5.492188 -4.914062 5.546875 -5.015625 5.546875 -5.171875 C 5.546875 -5.566406 5.429688 -5.890625 5.203125 -6.140625 C 4.972656 -6.398438 4.6875 -6.53125 4.34375 -6.53125 C 3.957031 -6.53125 3.613281 -6.367188 3.3125 -6.046875 C 3.007812 -5.722656 2.8125 -5.316406 2.71875 -4.828125 Z M 4.6875 -4.828125 "/></g></g><g style="fill:#1b438c;fill-opacity:1;"><g transform="translate(33.752269, 17.487466)"><path style="stroke:none" d="M 4.234375 0.140625 L 3.21875 0.140625 L 1.375 -5.4375 C 1.226562 -5.863281 1.054688 -6.164062 0.859375 -6.34375 C 0.671875 -6.519531 0.421875 -6.617188 0.109375 -6.640625 L 0.109375 -7.1875 L 3.984375 -7.1875 L 3.984375 -6.640625 C 3.660156 -6.628906 3.429688 -6.578125 3.296875 -6.484375 C 3.171875 -6.398438 3.109375 -6.257812 3.109375 -6.0625 C 3.109375 -5.957031 3.125 -5.84375 3.15625 -5.71875 C 3.1875 -5.601562 3.222656 -5.472656 3.265625 -5.328125 L 4.125 -2.15625 L 4.171875 -2.15625 L 6.0625 -7.1875 L 7.1875 -7.1875 L 8.609375 -2.15625 L 8.671875 -2.15625 L 9.75 -4.953125 C 9.84375 -5.179688 9.90625 -5.378906 9.9375 -5.546875 C 9.976562 -5.710938 10 -5.859375 10 -5.984375 C 10 -6.222656 9.921875 -6.390625 9.765625 -6.484375 C 9.609375 -6.585938 9.398438 -6.640625 9.140625 -6.640625 L 9.140625 -7.1875 L 12.0625 -7.1875 L 12.0625 -6.640625 C 11.894531 -6.640625 11.753906 -6.617188 11.640625 -6.578125 C 11.535156 -6.546875 11.425781 -6.460938 11.3125 -6.328125 C 11.207031 -6.191406 11.09375 -5.984375 10.96875 -5.703125 C 10.84375 -5.421875 10.6875 -5.035156 10.5 -4.546875 L 8.625 0.140625 L 7.5625 0.140625 L 6.125 -4.671875 L 6.0625 -4.671875 Z M 4.234375 0.140625 "/></g></g><g style="fill:#1b438c;fill-opacity:1;"><g transform="translate(45.423034, 17.487466)"><path style="stroke:none" d=""/></g></g><g style="fill:#1b438c;fill-opacity:1;"><g transform="translate(49.024543, 17.487466)"><path style="stroke:none" d="M 4.65625 -3.859375 C 3.894531 -3.515625 3.320312 -3.195312 2.9375 -2.90625 C 2.5625 -2.613281 2.375 -2.304688 2.375 -1.984375 C 2.375 -1.722656 2.441406 -1.515625 2.578125 -1.359375 C 2.722656 -1.210938 2.90625 -1.140625 3.125 -1.140625 C 3.34375 -1.140625 3.546875 -1.175781 3.734375 -1.25 C 3.929688 -1.332031 4.097656 -1.4375 4.234375 -1.5625 C 4.367188 -1.6875 4.472656 -1.835938 4.546875 -2.015625 C 4.617188 -2.191406 4.65625 -2.378906 4.65625 -2.578125 Z M 4.65625 -4.578125 L 4.65625 -5.140625 C 4.65625 -5.671875 4.5625 -6.054688 4.375 -6.296875 C 4.195312 -6.535156 3.910156 -6.65625 3.515625 -6.65625 C 3.253906 -6.65625 3.054688 -6.582031 2.921875 -6.4375 C 2.785156 -6.300781 2.660156 -6.070312 2.546875 -5.75 C 2.460938 -5.519531 2.347656 -5.34375 2.203125 -5.21875 C 2.054688 -5.09375 1.847656 -5.03125 1.578125 -5.03125 C 1.328125 -5.03125 1.132812 -5.101562 1 -5.25 C 0.863281 -5.40625 0.796875 -5.625 0.796875 -5.90625 C 0.796875 -6.34375 1.03125 -6.6875 1.5 -6.9375 C 1.976562 -7.1875 2.695312 -7.3125 3.65625 -7.3125 C 4.664062 -7.3125 5.382812 -7.128906 5.8125 -6.765625 C 6.25 -6.398438 6.46875 -5.789062 6.46875 -4.9375 L 6.46875 -1.96875 C 6.46875 -1.195312 6.625 -0.8125 6.9375 -0.8125 C 7.101562 -0.8125 7.257812 -0.867188 7.40625 -0.984375 L 7.609375 -0.59375 C 7.484375 -0.363281 7.285156 -0.179688 7.015625 -0.046875 C 6.753906 0.078125 6.457031 0.140625 6.125 0.140625 C 5.707031 0.140625 5.390625 0.015625 5.171875 -0.234375 C 4.953125 -0.492188 4.84375 -0.851562 4.84375 -1.3125 L 4.78125 -1.3125 C 4.519531 -0.84375 4.179688 -0.484375 3.765625 -0.234375 C 3.347656 0.00390625 2.875 0.125 2.34375 0.125 C 1.769531 0.125 1.3125 -0.0351562 0.96875 -0.359375 C 0.625 -0.679688 0.453125 -1.097656 0.453125 -1.609375 C 0.453125 -2.003906 0.628906 -2.375 0.984375 -2.71875 C 1.335938 -3.070312 1.925781 -3.414062 2.75 -3.75 Z M 4.65625 -4.578125 "/></g></g><g style="fill:#1b438c;fill-opacity:1;"><g transform="translate(56.796228, 17.487466)"><path style="stroke:none" d="M 3.34375 -2.21875 C 3.34375 -1.863281 3.351562 -1.578125 3.375 -1.359375 C 3.40625 -1.140625 3.460938 -0.96875 3.546875 -0.84375 C 3.628906 -0.726562 3.742188 -0.648438 3.890625 -0.609375 C 4.046875 -0.578125 4.257812 -0.554688 4.53125 -0.546875 L 4.53125 0 L 0.25 0 L 0.25 -0.546875 C 0.507812 -0.554688 0.71875 -0.582031 0.875 -0.625 C 1.03125 -0.675781 1.148438 -0.757812 1.234375 -0.875 C 1.328125 -0.988281 1.390625 -1.144531 1.421875 -1.34375 C 1.453125 -1.550781 1.46875 -1.8125 1.46875 -2.125 L 1.46875 -7.71875 C 1.46875 -8.238281 1.457031 -8.671875 1.4375 -9.015625 C 1.414062 -9.359375 1.394531 -9.59375 1.375 -9.71875 C 1.320312 -9.9375 1.21875 -10.082031 1.0625 -10.15625 C 0.90625 -10.226562 0.617188 -10.265625 0.203125 -10.265625 L 0.203125 -10.734375 L 3.34375 -11.25 Z M 3.34375 -2.21875 "/></g></g><g style="fill:#1b438c;fill-opacity:1;"><g transform="translate(61.602754, 17.487466)"><path style="stroke:none" d="M 3.34375 -2.21875 C 3.34375 -1.863281 3.351562 -1.578125 3.375 -1.359375 C 3.40625 -1.140625 3.460938 -0.96875 3.546875 -0.84375 C 3.628906 -0.726562 3.742188 -0.648438 3.890625 -0.609375 C 4.046875 -0.578125 4.257812 -0.554688 4.53125 -0.546875 L 4.53125 0 L 0.25 0 L 0.25 -0.546875 C 0.507812 -0.554688 0.71875 -0.582031 0.875 -0.625 C 1.03125 -0.675781 1.148438 -0.757812 1.234375 -0.875 C 1.328125 -0.988281 1.390625 -1.144531 1.421875 -1.34375 C 1.453125 -1.550781 1.46875 -1.8125 1.46875 -2.125 L 1.46875 -7.71875 C 1.46875 -8.238281 1.457031 -8.671875 1.4375 -9.015625 C 1.414062 -9.359375 1.394531 -9.59375 1.375 -9.71875 C 1.320312 -9.9375 1.21875 -10.082031 1.0625 -10.15625 C 0.90625 -10.226562 0.617188 -10.265625 0.203125 -10.265625 L 0.203125 -10.734375 L 3.34375 -11.25 Z M 3.34375 -2.21875 "/></g></g><g style="fill:#1b438c;fill-opacity:1;"><g transform="translate(66.409281, 17.487466)"><path style="stroke:none" d=""/></g></g><g style="fill:#1b438c;fill-opacity:1;"><g transform="translate(70.01079, 17.487466)"><path style="stroke:none" d="M 0.734375 -3.453125 L 1.265625 -3.453125 C 1.390625 -2.597656 1.726562 -1.921875 2.28125 -1.421875 C 2.84375 -0.929688 3.535156 -0.6875 4.359375 -0.6875 C 4.691406 -0.6875 5 -0.726562 5.28125 -0.8125 C 5.5625 -0.894531 5.800781 -1.007812 6 -1.15625 C 6.195312 -1.300781 6.347656 -1.472656 6.453125 -1.671875 C 6.566406 -1.878906 6.625 -2.113281 6.625 -2.375 C 6.625 -2.59375 6.585938 -2.78125 6.515625 -2.9375 C 6.453125 -3.09375 6.328125 -3.242188 6.140625 -3.390625 C 5.953125 -3.535156 5.691406 -3.6875 5.359375 -3.84375 C 5.023438 -4 4.597656 -4.175781 4.078125 -4.375 C 3.023438 -4.78125 2.242188 -5.25 1.734375 -5.78125 C 1.222656 -6.320312 0.96875 -6.957031 0.96875 -7.6875 C 0.96875 -8.113281 1.050781 -8.503906 1.21875 -8.859375 C 1.382812 -9.210938 1.613281 -9.515625 1.90625 -9.765625 C 2.195312 -10.015625 2.546875 -10.207031 2.953125 -10.34375 C 3.367188 -10.488281 3.828125 -10.5625 4.328125 -10.5625 C 4.785156 -10.5625 5.21875 -10.488281 5.625 -10.34375 C 6.03125 -10.207031 6.429688 -9.992188 6.828125 -9.703125 L 7.078125 -10.375 L 7.390625 -10.375 L 7.546875 -7.453125 L 7.015625 -7.453125 C 6.796875 -8.191406 6.457031 -8.753906 6 -9.140625 C 5.539062 -9.535156 5.007812 -9.734375 4.40625 -9.734375 C 3.84375 -9.734375 3.382812 -9.59375 3.03125 -9.3125 C 2.6875 -9.039062 2.515625 -8.691406 2.515625 -8.265625 C 2.515625 -8.078125 2.546875 -7.90625 2.609375 -7.75 C 2.671875 -7.601562 2.785156 -7.460938 2.953125 -7.328125 C 3.128906 -7.191406 3.367188 -7.050781 3.671875 -6.90625 C 3.972656 -6.769531 4.359375 -6.617188 4.828125 -6.453125 C 5.453125 -6.203125 5.988281 -5.953125 6.4375 -5.703125 C 6.882812 -5.460938 7.25 -5.195312 7.53125 -4.90625 C 7.820312 -4.625 8.035156 -4.320312 8.171875 -4 C 8.304688 -3.6875 8.375 -3.34375 8.375 -2.96875 C 8.375 -2.507812 8.273438 -2.085938 8.078125 -1.703125 C 7.878906 -1.328125 7.597656 -1.003906 7.234375 -0.734375 C 6.878906 -0.460938 6.457031 -0.25 5.96875 -0.09375 C 5.476562 0.0625 4.929688 0.140625 4.328125 0.140625 C 3.785156 0.140625 3.296875 0.0664062 2.859375 -0.078125 C 2.429688 -0.234375 1.988281 -0.476562 1.53125 -0.8125 L 1.265625 0 L 0.9375 0 Z M 0.734375 -3.453125 "/></g></g><g style="fill:#1b438c;fill-opacity:1;"><g transform="translate(78.987493, 17.487466)"><path style="stroke:none" d="M 7.3125 -1.265625 C 6.488281 -0.328125 5.460938 0.140625 4.234375 0.140625 C 3.679688 0.140625 3.175781 0.0507812 2.71875 -0.125 C 2.257812 -0.300781 1.867188 -0.550781 1.546875 -0.875 C 1.222656 -1.195312 0.96875 -1.578125 0.78125 -2.015625 C 0.601562 -2.460938 0.515625 -2.957031 0.515625 -3.5 C 0.515625 -4.050781 0.609375 -4.5625 0.796875 -5.03125 C 0.984375 -5.5 1.25 -5.898438 1.59375 -6.234375 C 1.945312 -6.578125 2.359375 -6.84375 2.828125 -7.03125 C 3.304688 -7.21875 3.832031 -7.3125 4.40625 -7.3125 C 5.363281 -7.3125 6.109375 -7.050781 6.640625 -6.53125 C 7.171875 -6.019531 7.4375 -5.300781 7.4375 -4.375 C 7.4375 -4.226562 7.410156 -4.140625 7.359375 -4.109375 C 7.316406 -4.078125 7.191406 -4.0625 6.984375 -4.0625 L 2.625 -4.0625 C 2.59375 -3.976562 2.578125 -3.828125 2.578125 -3.609375 C 2.578125 -2.734375 2.765625 -2.035156 3.140625 -1.515625 C 3.523438 -1.003906 4.050781 -0.75 4.71875 -0.75 C 5.09375 -0.75 5.46875 -0.832031 5.84375 -1 C 6.21875 -1.175781 6.582031 -1.421875 6.9375 -1.734375 Z M 4.6875 -4.828125 C 5.050781 -4.828125 5.285156 -4.84375 5.390625 -4.875 C 5.492188 -4.914062 5.546875 -5.015625 5.546875 -5.171875 C 5.546875 -5.566406 5.429688 -5.890625 5.203125 -6.140625 C 4.972656 -6.398438 4.6875 -6.53125 4.34375 -6.53125 C 3.957031 -6.53125 3.613281 -6.367188 3.3125 -6.046875 C 3.007812 -5.722656 2.8125 -5.316406 2.71875 -4.828125 Z M 4.6875 -4.828125 "/></g></g><g style="fill:#1b438c;fill-opacity:1;"><g transform="translate(86.908114, 17.487466)"><path style="stroke:none" d="M 3.5 -2.09375 C 3.5 -1.75 3.515625 -1.472656 3.546875 -1.265625 C 3.578125 -1.066406 3.640625 -0.910156 3.734375 -0.796875 C 3.835938 -0.691406 3.984375 -0.625 4.171875 -0.59375 C 4.359375 -0.5625 4.613281 -0.546875 4.9375 -0.546875 L 4.9375 0 L 0.40625 0 L 0.40625 -0.546875 C 0.675781 -0.554688 0.890625 -0.578125 1.046875 -0.609375 C 1.210938 -0.648438 1.335938 -0.722656 1.421875 -0.828125 C 1.503906 -0.941406 1.554688 -1.097656 1.578125 -1.296875 C 1.597656 -1.503906 1.609375 -1.78125 1.609375 -2.125 L 1.609375 -3.78125 C 1.609375 -4.34375 1.59375 -4.789062 1.5625 -5.125 C 1.539062 -5.457031 1.484375 -5.710938 1.390625 -5.890625 C 1.304688 -6.066406 1.179688 -6.1875 1.015625 -6.25 C 0.847656 -6.3125 0.628906 -6.34375 0.359375 -6.34375 L 0.359375 -6.8125 L 3.0625 -7.3125 L 3.28125 -5.75 L 3.328125 -5.75 C 3.578125 -6.226562 3.898438 -6.609375 4.296875 -6.890625 C 4.691406 -7.171875 5.109375 -7.3125 5.546875 -7.3125 C 5.890625 -7.3125 6.171875 -7.222656 6.390625 -7.046875 C 6.609375 -6.878906 6.71875 -6.664062 6.71875 -6.40625 C 6.71875 -6.113281 6.632812 -5.867188 6.46875 -5.671875 C 6.300781 -5.472656 6.070312 -5.375 5.78125 -5.375 C 5.644531 -5.375 5.519531 -5.398438 5.40625 -5.453125 C 5.300781 -5.515625 5.207031 -5.578125 5.125 -5.640625 C 5.039062 -5.710938 4.953125 -5.773438 4.859375 -5.828125 C 4.773438 -5.890625 4.691406 -5.921875 4.609375 -5.921875 C 4.429688 -5.921875 4.265625 -5.804688 4.109375 -5.578125 C 3.960938 -5.359375 3.835938 -5.054688 3.734375 -4.671875 C 3.660156 -4.398438 3.601562 -4.09375 3.5625 -3.75 C 3.519531 -3.414062 3.5 -3.082031 3.5 -2.75 Z M 3.5 -2.09375 "/></g></g><g style="fill:#1b438c;fill-opacity:1;"><g transform="translate(93.650798, 17.487466)"><path style="stroke:none" d="M 1.375 -5.4375 C 1.269531 -5.695312 1.171875 -5.90625 1.078125 -6.0625 C 0.992188 -6.21875 0.898438 -6.335938 0.796875 -6.421875 C 0.703125 -6.515625 0.597656 -6.570312 0.484375 -6.59375 C 0.378906 -6.625 0.25 -6.640625 0.09375 -6.640625 L 0.09375 -7.1875 L 4.140625 -7.1875 L 4.140625 -6.640625 C 3.921875 -6.640625 3.742188 -6.628906 3.609375 -6.609375 C 3.472656 -6.585938 3.367188 -6.554688 3.296875 -6.515625 C 3.234375 -6.484375 3.191406 -6.4375 3.171875 -6.375 C 3.160156 -6.320312 3.15625 -6.257812 3.15625 -6.1875 C 3.15625 -6.070312 3.175781 -5.9375 3.21875 -5.78125 C 3.269531 -5.625 3.328125 -5.472656 3.390625 -5.328125 L 4.671875 -1.78125 L 4.734375 -1.78125 L 6.171875 -5.3125 C 6.234375 -5.46875 6.28125 -5.601562 6.3125 -5.71875 C 6.351562 -5.84375 6.375 -5.957031 6.375 -6.0625 C 6.375 -6.257812 6.304688 -6.398438 6.171875 -6.484375 C 6.035156 -6.578125 5.796875 -6.628906 5.453125 -6.640625 L 5.453125 -7.1875 L 8.453125 -7.1875 L 8.453125 -6.640625 C 8.210938 -6.640625 8.003906 -6.578125 7.828125 -6.453125 C 7.648438 -6.328125 7.46875 -6.046875 7.28125 -5.609375 L 4.734375 0.140625 L 3.515625 0.140625 Z M 1.375 -5.4375 "/></g></g><g style="fill:#1b438c;fill-opacity:1;"><g transform="translate(102.09946, 17.487466)"><path style="stroke:none" d="M 3.484375 -2.21875 C 3.484375 -1.863281 3.492188 -1.578125 3.515625 -1.359375 C 3.546875 -1.140625 3.601562 -0.96875 3.6875 -0.84375 C 3.769531 -0.726562 3.882812 -0.648438 4.03125 -0.609375 C 4.1875 -0.578125 4.394531 -0.554688 4.65625 -0.546875 L 4.65625 0 L 0.390625 0 L 0.390625 -0.546875 C 0.640625 -0.554688 0.84375 -0.582031 1 -0.625 C 1.164062 -0.675781 1.289062 -0.757812 1.375 -0.875 C 1.457031 -0.988281 1.515625 -1.144531 1.546875 -1.34375 C 1.578125 -1.550781 1.59375 -1.8125 1.59375 -2.125 L 1.59375 -3.796875 C 1.59375 -4.316406 1.582031 -4.742188 1.5625 -5.078125 C 1.550781 -5.421875 1.53125 -5.65625 1.5 -5.78125 C 1.457031 -6.007812 1.359375 -6.160156 1.203125 -6.234375 C 1.046875 -6.304688 0.757812 -6.34375 0.34375 -6.34375 L 0.34375 -6.796875 L 3.484375 -7.3125 Z M 1.484375 -10.1875 C 1.484375 -10.488281 1.582031 -10.738281 1.78125 -10.9375 C 1.988281 -11.144531 2.238281 -11.25 2.53125 -11.25 C 2.832031 -11.25 3.082031 -11.144531 3.28125 -10.9375 C 3.488281 -10.738281 3.59375 -10.488281 3.59375 -10.1875 C 3.59375 -9.894531 3.488281 -9.644531 3.28125 -9.4375 C 3.082031 -9.238281 2.832031 -9.140625 2.53125 -9.140625 C 2.238281 -9.140625 1.988281 -9.238281 1.78125 -9.4375 C 1.582031 -9.644531 1.484375 -9.894531 1.484375 -10.1875 Z M 1.484375 -10.1875 "/></g></g><g style="fill:#1b438c;fill-opacity:1;"><g transform="translate(106.987228, 17.487466)"><path style="stroke:none" d="M 7.15625 -1.125 C 6.8125 -0.75 6.382812 -0.457031 5.875 -0.25 C 5.363281 -0.0390625 4.8125 0.0625 4.21875 0.0625 C 3.664062 0.0625 3.160156 -0.0195312 2.703125 -0.1875 C 2.253906 -0.363281 1.867188 -0.609375 1.546875 -0.921875 C 1.222656 -1.242188 0.972656 -1.628906 0.796875 -2.078125 C 0.617188 -2.523438 0.53125 -3.019531 0.53125 -3.5625 C 0.53125 -4.125 0.625 -4.632812 0.8125 -5.09375 C 1 -5.550781 1.265625 -5.945312 1.609375 -6.28125 C 1.953125 -6.613281 2.363281 -6.867188 2.84375 -7.046875 C 3.320312 -7.222656 3.851562 -7.3125 4.4375 -7.3125 C 4.84375 -7.3125 5.21875 -7.269531 5.5625 -7.1875 C 5.90625 -7.113281 6.203125 -7.003906 6.453125 -6.859375 C 6.703125 -6.710938 6.898438 -6.539062 7.046875 -6.34375 C 7.191406 -6.15625 7.265625 -5.945312 7.265625 -5.71875 C 7.265625 -5.457031 7.1875 -5.25 7.03125 -5.09375 C 6.882812 -4.9375 6.6875 -4.859375 6.4375 -4.859375 C 6.226562 -4.859375 6.046875 -4.910156 5.890625 -5.015625 C 5.734375 -5.128906 5.578125 -5.304688 5.421875 -5.546875 C 5.285156 -5.765625 5.171875 -5.9375 5.078125 -6.0625 C 4.984375 -6.195312 4.894531 -6.296875 4.8125 -6.359375 C 4.726562 -6.429688 4.644531 -6.476562 4.5625 -6.5 C 4.476562 -6.519531 4.378906 -6.53125 4.265625 -6.53125 C 3.742188 -6.53125 3.335938 -6.285156 3.046875 -5.796875 C 2.753906 -5.304688 2.609375 -4.625 2.609375 -3.75 C 2.609375 -2.8125 2.78125 -2.085938 3.125 -1.578125 C 3.476562 -1.078125 3.984375 -0.828125 4.640625 -0.828125 C 5.003906 -0.828125 5.367188 -0.894531 5.734375 -1.03125 C 6.109375 -1.175781 6.460938 -1.378906 6.796875 -1.640625 Z M 7.15625 -1.125 "/></g></g><g style="fill:#1b438c;fill-opacity:1;"><g transform="translate(114.623521, 17.487466)"><path style="stroke:none" d="M 7.3125 -1.265625 C 6.488281 -0.328125 5.460938 0.140625 4.234375 0.140625 C 3.679688 0.140625 3.175781 0.0507812 2.71875 -0.125 C 2.257812 -0.300781 1.867188 -0.550781 1.546875 -0.875 C 1.222656 -1.195312 0.96875 -1.578125 0.78125 -2.015625 C 0.601562 -2.460938 0.515625 -2.957031 0.515625 -3.5 C 0.515625 -4.050781 0.609375 -4.5625 0.796875 -5.03125 C 0.984375 -5.5 1.25 -5.898438 1.59375 -6.234375 C 1.945312 -6.578125 2.359375 -6.84375 2.828125 -7.03125 C 3.304688 -7.21875 3.832031 -7.3125 4.40625 -7.3125 C 5.363281 -7.3125 6.109375 -7.050781 6.640625 -6.53125 C 7.171875 -6.019531 7.4375 -5.300781 7.4375 -4.375 C 7.4375 -4.226562 7.410156 -4.140625 7.359375 -4.109375 C 7.316406 -4.078125 7.191406 -4.0625 6.984375 -4.0625 L 2.625 -4.0625 C 2.59375 -3.976562 2.578125 -3.828125 2.578125 -3.609375 C 2.578125 -2.734375 2.765625 -2.035156 3.140625 -1.515625 C 3.523438 -1.003906 4.050781 -0.75 4.71875 -0.75 C 5.09375 -0.75 5.46875 -0.832031 5.84375 -1 C 6.21875 -1.175781 6.582031 -1.421875 6.9375 -1.734375 Z M 4.6875 -4.828125 C 5.050781 -4.828125 5.285156 -4.84375 5.390625 -4.875 C 5.492188 -4.914062 5.546875 -5.015625 5.546875 -5.171875 C 5.546875 -5.566406 5.429688 -5.890625 5.203125 -6.140625 C 4.972656 -6.398438 4.6875 -6.53125 4.34375 -6.53125 C 3.957031 -6.53125 3.613281 -6.367188 3.3125 -6.046875 C 3.007812 -5.722656 2.8125 -5.316406 2.71875 -4.828125 Z M 4.6875 -4.828125 "/></g></g><g style="fill:#1b438c;fill-opacity:1;"><g transform="translate(122.544142, 17.487466)"><path style="stroke:none" d="M 1.15625 0 L 0.734375 0 L 0.734375 -2.46875 L 1.296875 -2.46875 C 1.453125 -1.8125 1.671875 -1.332031 1.953125 -1.03125 C 2.242188 -0.738281 2.625 -0.59375 3.09375 -0.59375 C 3.425781 -0.59375 3.679688 -0.660156 3.859375 -0.796875 C 4.046875 -0.941406 4.140625 -1.132812 4.140625 -1.375 C 4.140625 -1.632812 4.023438 -1.882812 3.796875 -2.125 C 3.578125 -2.363281 3.210938 -2.617188 2.703125 -2.890625 C 2.023438 -3.253906 1.535156 -3.617188 1.234375 -3.984375 C 0.929688 -4.347656 0.78125 -4.765625 0.78125 -5.234375 C 0.78125 -5.523438 0.835938 -5.800781 0.953125 -6.0625 C 1.066406 -6.320312 1.21875 -6.546875 1.40625 -6.734375 C 1.601562 -6.921875 1.835938 -7.066406 2.109375 -7.171875 C 2.378906 -7.273438 2.675781 -7.328125 3 -7.328125 C 3.269531 -7.328125 3.539062 -7.285156 3.8125 -7.203125 C 4.09375 -7.117188 4.335938 -7.007812 4.546875 -6.875 L 4.796875 -7.1875 L 5.140625 -7.1875 L 5.140625 -5.140625 L 4.625 -5.140625 C 4.414062 -5.660156 4.195312 -6.03125 3.96875 -6.25 C 3.75 -6.476562 3.484375 -6.59375 3.171875 -6.59375 C 2.921875 -6.59375 2.71875 -6.523438 2.5625 -6.390625 C 2.414062 -6.253906 2.34375 -6.078125 2.34375 -5.859375 C 2.34375 -5.597656 2.453125 -5.351562 2.671875 -5.125 C 2.890625 -4.90625 3.257812 -4.660156 3.78125 -4.390625 C 4.144531 -4.191406 4.457031 -3.992188 4.71875 -3.796875 C 4.976562 -3.609375 5.1875 -3.414062 5.34375 -3.21875 C 5.507812 -3.03125 5.628906 -2.828125 5.703125 -2.609375 C 5.785156 -2.398438 5.828125 -2.175781 5.828125 -1.9375 C 5.828125 -1.625 5.765625 -1.335938 5.640625 -1.078125 C 5.523438 -0.828125 5.359375 -0.609375 5.140625 -0.421875 C 4.929688 -0.242188 4.675781 -0.101562 4.375 0 C 4.070312 0.09375 3.734375 0.140625 3.359375 0.140625 C 2.972656 0.140625 2.613281 0.0859375 2.28125 -0.015625 C 1.945312 -0.117188 1.671875 -0.269531 1.453125 -0.46875 Z M 1.15625 0 "/></g></g></g></svg>